<?xml version="1.0" encoding="utf-8"?>
<!-- Generator: Adobe Illustrator 21.0.2, SVG Export Plug-In . SVG Version: 6.00 Build 0)  -->
<svg version="1.1" id="Layer_1" xmlns="http://www.w3.org/2000/svg" xmlns:xlink="http://www.w3.org/1999/xlink" x="0px" y="0px"
	 viewBox="0 0 114.2 114.2" style="enable-background:new 0 0 114.2 114.2;" xml:space="preserve">
<style type="text/css">
	.st0{fill:#C7AE7C;}
</style>
<circle class="st0" cx="57.5" cy="56.9" r="54.8"/>
<path d="M57.3,0C25.8-0.1,0.1,25.3,0,56.8c-0.1,31.5,25.3,57.2,56.8,57.3s57.2-25.3,57.3-56.8C114.3,25.8,88.9,0.1,57.3,0z
	 M57.1,110.4c-29.6,0-53.5-24-53.5-53.5c0-29.6,24-53.5,53.5-53.5c29.6,0,53.5,24,53.5,53.5C110.6,86.4,86.6,110.4,57.1,110.4z"/>
<g>
	<path d="M80,43l6.3-5.5c-1.2-1.2-3.2-3.1-5.9-5c-1.4,1.5-3.5,3.8-3.5,3.8l2.1-4.7c-1.4-0.9-3-1.8-4.8-2.5c-1.3,2.2-3.3,5.5-3.4,5.3
		c0-0.1,0.8-3.3,1.5-6.1c-2-0.7-4.2-1.4-6.5-1.7l-2,5l0.2-5.3c-1.9-0.2-3.9-0.3-6-0.1l-0.6,4l-1.2-3.8c-0.2,0-0.5,0.1-0.7,0.1
		c-1.4,0.2-2.7,0.4-3.9,0.7l-0.2,3.7L50,27.6c-2.5,0.7-4.7,1.5-6.7,2.5c0.5,1.9,1.1,3.9,1.1,3.9L42,30.8c-1.7,1-3.3,2.1-4.7,3.3
		c1.1,1.5,2.2,3.2,2,3.2c-0.1,0-1.7-0.9-3.4-1.9c-1.3,1.3-2.5,2.7-3.5,4.2l2.5,2.7l-3.8-0.6c-1,1.7-1.8,3.5-2.4,5.3
		c1.1,0.8,2,1.5,2,1.5s-1.1,0-2.5,0c-0.5,1.7-0.9,3.4-1.1,5l0,0.4l1.7,1.5l-1.7,0.2l-0.3,8.5c0,0-0.2,4.6-5.8,4.7c0,0,1.8,2,5.5,0.7
		s4.2-8,4.2-8s1.1-9.8,9.5-15.3s18-3.7,23.8-0.4c5.8,3.3,9.4,8.3,9.4,8.3l19.1-8.2c0,0-2.7-4.8-4.3-6.4L80,43z"/>
	<path d="M72.5,77.4l2,0c0,0,1.3-9.7-2.1-16.2s-9.9-12.4-19.1-12.8c-9.1-0.3-15.1,5.2-17.2,12s3,12.4-6.1,17.6c0,0,10.8,0.7,13-2.5
		c2.2-3.2,2.1-4.2,2.1-4.2s-3.7-3.6-2.5-7.4c1.2-3.7,5.8-3.7,7.5-0.5c1.7,3.2,3.1,12.5,3.1,12.5l0.7,3.2c0,0,1,4.2,8.1,6.5
		c7.1,2.2,12,3.4,12,3.4s-0.3-2.3-2.5-5.3c-2.1-3-5.3-8.2-3.5-10.7c0,0-3.9-3.4-9.6-4.4c0,0,1.4-4.7,4.9-6.5c3.4-1.8,8.5,3.4,9.1,7
		C72.9,72.7,72.5,77.4,72.5,77.4z"/>
	<path d="M74.1,58.8c0,0.1-0.7,0.8-0.7,0.8s-7.7-16-25.6-12.3c-3.3,0.7-14.7,4.5-14.1,19.5l-1.8-0.2c0,0-1.5-15.3,13.1-21.1
		S72.4,53.1,74.1,58.8z"/>
</g>
<path d="M15.3,73c0-0.1-0.1-0.2-0.1-0.3l-3.4,1.1c0.1,0.3,0.2,0.5,0.2,0.5c0.2-0.1,0.5-0.2,0.7-0.3C13.6,73.7,14.4,73.3,15.3,73z"/>
<path d="M99.4,54.1C99.4,54.1,99.4,54.2,99.4,54.1C99.5,54.2,99.5,54.2,99.4,54.1C99.4,54.2,99.4,54.2,99.4,54.1z"/>
<path d="M49.8,15c1.2-0.2,1.9-0.4,3.1-0.5c-0.1-1.1-0.2-2.2-0.3-3.2c0-0.1,0-0.3-0.1-0.3c-0.6,0-1.2,0.1-1.8,0.2c0,0-0.4,0.1-0.4,0
	c0-0.1,0-0.2,0-0.3c0-0.3-0.1-0.6-0.1-0.8c1.9-0.2,3.8-0.4,5.8-0.5c0,0.3,0,0.5,0,0.8c0,0.1,0,0.2,0,0.4c0,0-0.3,0-0.3,0
	c-0.6,0-1.2,0-1.8,0.1c-0.2,0-0.2,0-0.1,0.3c0.1,1.1,0.2,2.2,0.2,3.3c2.4-0.2,4.8-0.1,7.3,0.1c0,0,0.3-3.2,0.3-3.5
	c-0.2,0-2.3-0.1-2.3-0.2c0-0.1,0-1.2,0.1-1.2c1,0,2,0.1,3,0.2c0.9,0.1,1.8,0.2,2.7,0.4c0,0-0.2,1-0.2,1.2c-0.7-0.1-1.5-0.2-2.2-0.3
	c-0.1,0.7-0.2,1.4-0.3,2.1c0,0.4-0.1,0.8-0.1,1.2c0,0.1,0,0.1,0,0.2c0,0,0.6,0.1,0.6,0.1c0.9,0.1,1.7,0.3,2.6,0.4
	c0.1-0.4,0.2-0.7,0.3-1.1c-0.8-0.2-1.5-0.3-2.3-0.4c0-0.2,0.1-0.5,0.1-0.7c0-0.1,0-0.2,0.1-0.4c0-0.1,0.3,0,0.3,0
	c0.6,0.1,1.2,0.2,1.8,0.3c0.1,0,0.1-0.1,0.1-0.3c0.2-1.1,0.4-2.1,0.6-3.2c-2.7-0.5-5.5-0.8-8.2-0.9c0,1.1-0.1,2.2-0.1,3.3
	c0,0.1-0.1,0.3,0.1,0.3c0.6,0,1.2,0,1.8,0.1c0,0,0.3,0,0.3,0c0,0.1,0,0.2,0,0.3c0,0.3,0,0.5-0.1,0.8c-1.3-0.1-2.7-0.1-4-0.1
	c-0.4,0-0.9,0-1.3,0c0,0-0.1-1.1-0.1-1.2c0.5,0,1,0,1.5,0c0.2,0,0.4,0,0.7,0c0,0,0-0.3,0-0.3c0-1.1,0-2.1,0-3.2
	c-2.8,0.1-5.5,0.2-8.3,0.7c0,0,0.5,3.1,0.6,3.5c0.7-0.1,1.4-0.2,2.2-0.3c0,0.2,0,0.4,0.1,0.6c0,0.1,0.1,0.5,0.1,0.6c0,0-0.2,0-0.3,0
	c-0.2,0-0.5,0.1-0.7,0.1c-0.5,0.1-0.5,0.1-1.1,0.2"/>
<path d="M43.3,98.5c0.1-0.4,0.3-0.8,0.4-1.1c0-0.1,0-0.1,0.1-0.2c0,0-0.4-0.1-0.5-0.2l-1.2,3.3c0.2,0.1,0.4,0.2,0.6,0.2
	C42.9,99.9,43.1,99.2,43.3,98.5z"/>
<path d="M16.7,73.5c0.2,0.5,0.2,0.6,0.4,1.1c0.1,0.2,0.2,0.4,0.3,0.6c0,0,0.2,0.3,0.1,0.3c0,0.1-0.4,0.2-0.5,0.3
	c-0.2,0.1-0.4,0.2-0.5,0.3c-0.3-0.7-0.6-1.3-0.9-2c-0.7,0.3-1.3,0.5-2,0.8c-0.4,0.2-0.7,0.3-1.1,0.5c-0.1,0-0.1,0.1-0.2,0.1
	c0,0,0.3,0.7,0.3,0.8c0.8,1.7,1.6,3.3,2.5,4.9c0.1,0.1,1,1.7,1,1.7c0.2-0.1,0.4-0.3,0.7-0.4c0.8-0.5,1.5-1,2.3-1.5
	c-0.4-0.6-0.8-1.2-1.1-1.9c0.2-0.1,0.3-0.2,0.5-0.3c0.1,0,0.4-0.3,0.5-0.3c0,0,0.1,0.2,0.1,0.2c0.1,0.2,0.2,0.4,0.4,0.7
	c0.3,0.5,0.6,0.9,0.9,1.4c0.5,0.8,1,1.5,1.5,2.2c0,0-0.8,0.6-0.9,0.7c-0.4-0.6-0.9-1.2-1.3-1.8c-0.6,0.4-1.2,0.8-1.8,1.2
	c-0.3,0.2-0.7,0.4-1,0.7c-0.1,0-0.1,0.1-0.2,0.1c0,0,0.5,0.7,0.6,0.8c1.1,1.5,2.2,2.9,3.4,4.3c0.1,0.1,1.2,1.4,1.3,1.4
	c0.2-0.2,0.4-0.4,0.6-0.6c0.6-0.5,1.1-1.1,1.7-1.6c0.2-0.2,0.3-0.2,0-0.4c-0.4-0.5-0.9-1-1.3-1.4c0.2-0.2,0.4-0.4,0.6-0.5
	c0.1-0.1,0.2-0.1,0.3-0.2c0,0,0.3,0.3,0.3,0.4c0.6,0.7,1.2,1.4,1.9,2.1c0.5,0.4,0.9,0.9,1.4,1.3c0.2,0.2,0.1,0.2-0.1,0.3
	c-0.2,0.2-0.4,0.4-0.6,0.6c-0.4-0.4-0.7-0.7-1.1-1.1c-0.2-0.2-0.3-0.3-0.5-0.5c0,0-0.2,0.2-0.2,0.2c-0.8,0.8-1.5,1.5-2.3,2.3
	c2,1.9,4.1,3.7,6.4,5.3c0.6-0.9,1.3-1.8,1.9-2.7c0.1-0.1,0.2-0.2,0.1-0.3c-0.5-0.3-0.9-0.7-1.4-1c0,0-0.3-0.2-0.3-0.3
	c0.1-0.1,0.1-0.2,0.2-0.3c0.2-0.2,0.3-0.4,0.5-0.6c1.4,1.1,2.9,2.1,4.4,3c-0.1,0.2-0.3,0.4-0.4,0.6c-0.1,0.1-0.1,0.2-0.2,0.3
	c0,0.1-0.3-0.2-0.4-0.2c-0.5-0.3-1-0.6-1.5-0.9c-0.1,0-0.2,0.2-0.2,0.2c-0.6,0.9-1.2,1.8-1.8,2.7c1.2,0.7,2.3,1.5,3.5,2.2
	c1.2,0.7,2.5,1.3,3.7,1.8c0.4-1,0.9-2,1.3-3c0-0.1,0.2-0.2,0-0.3c-0.5-0.2-1-0.5-1.5-0.7c0,0-0.4-0.2-0.4-0.2
	c0.1-0.1,0.1-0.2,0.2-0.3c0.1-0.2,0.2-0.5,0.4-0.7c0.8,0.4,1.6,0.8,2.4,1.1c0.1,0,0.7,0.3,1.3,0.6l0.4-1.1c-1.2-0.5-2.4-1-3.5-1.6
	c-0.3-0.2-0.6-0.3-1-0.5c-0.1,0-0.1-0.1-0.2,0c-0.2,0.3-0.3,0.6-0.5,0.9c-0.4,0.7-0.8,1.5-1.2,2.2c0.7,0.3,1.3,0.7,2,1
	c-0.1,0.1-0.5,1.1-0.5,1c-0.9-0.4-1.8-0.9-2.7-1.4c-0.8-0.5-1.6-0.9-2.4-1.4c0,0,0.6-0.9,0.6-1c0.6,0.4,1.3,0.8,1.9,1.2
	c0.3-0.6,0.7-1.2,1-1.8c0.2-0.3,0.4-0.7,0.6-1c0-0.1,0.1-0.1,0.1-0.2c0,0-0.5-0.3-0.5-0.3c-1.5-0.9-3.1-1.9-4.5-3
	c-0.1-0.1-1-0.9-1.1-0.8c-0.2,0.2-0.4,0.5-0.6,0.7c-0.5,0.6-1.1,1.3-1.6,1.9c0.6,0.5,1.2,1,1.8,1.4c-0.2,0.2-0.3,0.4-0.5,0.7
	c-0.1,0.1-0.1,0.2-0.2,0.3c0,0-0.4-0.3-0.5-0.3c-1.1-0.8-2.1-1.7-3.1-2.6c-0.1-0.1-0.9-0.8-0.8-0.8c0.2-0.2,0.4-0.5,0.6-0.7
	c0,0,0.1-0.2,0.2-0.2c0.2,0.2,0.3,0.3,0.5,0.5c0.4,0.4,0.8,0.7,1.2,1c0.8-0.9,1.5-1.8,2.3-2.7c0,0-2.1-1.9-2.3-2.2
	c-0.9-1-2-2-2.8-3.1c-0.8,0.7-1.7,1.4-2.5,2.1c-0.1,0.1-0.3,0.1-0.1,0.2c0.4,0.5,0.8,0.9,1.2,1.3c0,0,0.3,0.3,0.3,0.3
	c-0.1,0.1-0.2,0.1-0.2,0.2c-0.2,0.2-0.4,0.4-0.6,0.6c-1.3-1.5-2.5-2.9-3.6-4.5c0.2-0.2,0.4-0.3,0.6-0.5c0.1-0.1,0.2-0.1,0.3-0.2
	c0,0,0.2,0.2,0.2,0.2c0.3,0.5,0.7,1,1.1,1.4c0.1,0.2,0.1,0.1,0.3,0c0.9-0.7,1.7-1.3,2.6-2c-0.8-1-1.5-1.9-2.1-3
	c-0.7-1-1.3-2-1.9-3.1c-1,0.5-1.9,1-2.9,1.5c-0.1,0.1-0.3,0.1-0.2,0.2c0.3,0.5,0.6,1.1,0.9,1.6c0,0,0.2,0.3,0.1,0.3
	c-0.1,0.1-0.2,0.1-0.3,0.2c-0.2,0.1-0.5,0.3-0.7,0.4c-1-1.7-1.9-3.4-2.7-5.1c0.2-0.1,0.5-0.2,0.7-0.3c0.1,0,0.2-0.1,0.3-0.1
	c0,0,0.1,0.2,0.1,0.3c0.2,0.5,0.5,1.1,0.8,1.6c0.1,0.2,0.1,0.1,0.3,0c1-0.5,1.9-1,2.9-1.5c-0.7-1.3-0.8-1.5-1.3-2.9"/>
<g>
	<path d="M77.7,98c0,0,0-0.1-0.1-0.2L77.7,98z"/>
	<path d="M98.3,75.1c-0.1,0-0.2-0.2-0.3,0c-0.2,0.5-0.5,1-0.7,1.5c0,0-0.2,0.4-0.2,0.4c-0.1-0.1-0.2-0.1-0.3-0.2
		c-0.2-0.1-0.5-0.2-0.7-0.4c0.4-0.8,0.8-1.6,1.1-2.4c0.2-0.5,0.4-1,0.6-1.5c0,0,0,0,0-0.1L96.7,72c-0.5,1.3-1,2.6-1.6,3.8
		c-0.2,0.3-0.3,0.6-0.5,1c0,0.1-0.1,0.1,0,0.2c0.3,0.2,0.6,0.3,0.9,0.5c0.7,0.4,1.5,0.8,2.2,1.2c0.3-0.7,0.7-1.3,1-2
		c0.2,0.1,0.4,0.2,0.5,0.3c0.1,0,0.5,0.2,0.5,0.3c0,0.1-0.2,0.4-0.2,0.4c-0.1,0.2-0.2,0.5-0.4,0.7c-0.3,0.5-0.5,1-0.8,1.5
		c-0.5,0.8-0.9,1.6-1.4,2.4c0,0-0.9-0.6-1-0.6c0.4-0.6,0.8-1.3,1.2-1.9c-0.6-0.3-1.2-0.7-1.8-1c-0.3-0.2-0.7-0.4-1-0.6
		c-0.1,0-0.1-0.1-0.2-0.1c0,0-0.3,0.5-0.3,0.5c-0.9,1.5-1.9,3.1-3,4.5c-0.1,0.1-0.9,1-0.8,1.1c0.2,0.2,0.5,0.4,0.7,0.6
		c0.7,0.5,1.3,1.1,1.9,1.6c0.5-0.6,1-1.2,1.4-1.8c0.2,0.2,0.4,0.3,0.7,0.5c0.1,0.1,0.2,0.1,0.3,0.2c0,0-0.3,0.4-0.3,0.5
		c-0.8,1.1-1.7,2.1-2.6,3.1c-0.1,0.1-0.8,0.9-0.8,0.8c-0.2-0.2-0.5-0.4-0.7-0.6c0,0-0.2-0.1-0.2-0.2c0.2-0.2,0.3-0.3,0.5-0.5
		c0.4-0.4,0.7-0.8,1-1.2c-0.9-0.8-1.8-1.5-2.7-2.3c0,0-1.9,2.1-2.2,2.3c-1,0.9-2,2-3.1,2.8c0.7,0.8,1.4,1.7,2.1,2.5
		c0.1,0.1,0.1,0.3,0.2,0.1c0.5-0.4,0.9-0.8,1.3-1.2c0,0,0.3-0.3,0.3-0.3c0.1,0.1,0.1,0.2,0.2,0.2c0.2,0.2,0.4,0.4,0.6,0.6
		c-1.5,1.3-2.9,2.5-4.5,3.6c-0.2-0.2-0.3-0.4-0.5-0.6c-0.1-0.1-0.1-0.2-0.2-0.3c0,0,0.2-0.2,0.2-0.2c0.5-0.3,1-0.7,1.4-1.1
		c0.2-0.1,0.1-0.1,0-0.3c-0.7-0.9-1.3-1.7-2-2.6c-1,0.8-1.9,1.5-3,2.1c-1,0.7-2,1.3-3.1,1.9c0.5,1,1,1.9,1.5,2.9
		c0.1,0.1,0.1,0.3,0.2,0.2c0.5-0.3,1.1-0.6,1.6-0.9c0,0,0.3-0.2,0.3-0.1c0.1,0.1,0.1,0.2,0.2,0.3c0.1,0.2,0.3,0.5,0.4,0.7
		c-1.1,0.6-2.2,1.2-3.3,1.7l0.5,1.1c0.9-0.4,1.8-0.9,2.7-1.4c0.1-0.1,1.7-1,1.7-1c-0.1-0.2-0.3-0.4-0.4-0.7c-0.5-0.8-1-1.5-1.5-2.3
		c-0.6,0.4-1.2,0.8-1.9,1.1c-0.1-0.2-0.2-0.3-0.3-0.5c0-0.1-0.3-0.4-0.3-0.5c0,0,0.2-0.1,0.2-0.1c0.2-0.1,0.4-0.2,0.7-0.4
		c0.5-0.3,0.9-0.6,1.4-0.9c0.8-0.5,1.5-1,2.2-1.5c0,0,0.6,0.8,0.7,0.9c-0.6,0.4-1.2,0.9-1.8,1.3c0.4,0.6,0.8,1.2,1.2,1.8
		c0.2,0.3,0.4,0.7,0.7,1c0,0.1,0.1,0.1,0.1,0.2c0,0,0.7-0.5,0.8-0.6c1.5-1.1,2.9-2.2,4.3-3.4c0.1-0.1,1.4-1.2,1.4-1.3
		c-0.2-0.2-0.4-0.4-0.6-0.6c-0.5-0.6-1.1-1.1-1.6-1.7c-0.2-0.2-0.2-0.3-0.4,0c-0.5,0.4-1,0.9-1.4,1.3c-0.2-0.2-0.4-0.4-0.5-0.6
		c-0.1-0.1-0.1-0.2-0.2-0.3c0,0,0.3-0.3,0.4-0.3c0.7-0.6,1.4-1.2,2-1.9c0.4-0.5,0.9-0.9,1.3-1.4c0.2-0.2,0.2-0.1,0.3,0.1
		c0.2,0.2,0.4,0.4,0.6,0.6c-0.4,0.4-0.7,0.7-1.1,1.1c-0.1,0.2-0.3,0.3-0.4,0.5c0,0,0.2,0.2,0.2,0.2c0.8,0.8,1.5,1.5,2.3,2.3
		c1.9-2,3.7-4.1,5.3-6.4c-0.9-0.6-1.8-1.3-2.7-1.9c-0.1-0.1-0.2-0.2-0.3-0.1c-0.3,0.5-0.7,0.9-1,1.4c0,0-0.2,0.3-0.3,0.3
		c-0.1-0.1-0.2-0.1-0.3-0.2c-0.2-0.2-0.4-0.3-0.6-0.5c1.1-1.4,2.1-2.9,3-4.4c0.2,0.1,0.4,0.3,0.6,0.4c0.1,0.1,0.2,0.1,0.3,0.2
		c0.1,0-0.2,0.3-0.2,0.4c-0.3,0.5-0.6,1-0.9,1.5c0,0.1,0.2,0.2,0.2,0.2c0.9,0.6,1.8,1.2,2.7,1.8c0.7-1.2,1.5-2.3,2.2-3.5
		c0.7-1.2,1.3-2.5,1.8-3.7C100.3,76,99.3,75.6,98.3,75.1z"/>
</g>
<g>
	<polygon points="91.9,25.8 92,25.5 90.5,23.9 90.1,24.3 91.6,25.9 	"/>
	<polygon points="11.4,65.4 10.6,66 11,67.9 12.1,67.6 11.7,65.5 	"/>
	<polygon points="12,42.8 11.4,44.9 11.9,45 12.5,42.9 12.3,42.7 	"/>
	<rect x="103.5" y="53" transform="matrix(0.9974 -7.203209e-02 7.203209e-02 0.9974 -3.6135 7.614)" width="0.5" height="1.8"/>
	<polygon points="95.2,32 95.9,30.5 94.9,29.1 93.3,29.4 92.5,30.9 93.5,32.3 	"/>
	<polygon points="102.3,55.9 102.1,53.1 101,53.2 101.2,55.4 	"/>
	<polygon points="74.1,14.1 74,13.1 72.2,12.5 71.8,13.6 73.9,14.3 	"/>
	<path d="M57.1,5.8C28.9,5.8,5.9,28.7,5.9,56.9c0,28.2,22.9,51.1,51.1,51.1c28.2,0,51.1-22.9,51.1-51.1
		C108.2,28.7,85.3,5.8,57.1,5.8z M105.5,55.5l-0.8,0.5l-1,0.1l0.1,0.8l-0.9,0.5l-2.9-1.2L99.6,52l5.6-0.4L105.5,55.5z M105.1,50.4
		l-1.2-1.5l-3.8,0.7l-0.6,1.3l-0.8-4.1l1.2,1.5l3.8-0.7l0.5-1.9L105.1,50.4z M104,44.9l-1.4-0.2l-1-3.1l-0.5,0.2l1.2,3.8l-1,0.3
		l-3-0.5l-1.1-3.3l1-1l1,3.2l1.3,0.2L99.4,41l3-1L104,44.9z M99.7,34.3l0.1,0.2l0.3,0.5L98,37.9l2-1l0,0l0,0l0.3-1.2l1.8,3.6
		l-1.6-1.2l-4.2,2.1l-0.3-0.5L96,39.4L95.8,39v0l-0.1-0.2l0.1-0.1l0,0.1l2-2.7l-0.2,0.1L95.8,37l-0.3,1.4l-1.8-3.7l1.6,1.2l4.2-2.1
		L99.7,34.3z M97.4,30.4L96,33.1l-3.1,0.5L91,31l1.5-2.8l3.1-0.5L97.4,30.4z M93.4,25.1l-0.6,1.7l-1.7,0.5l-2-2.1L88,26.3l0.6,1.8
		l-3.3-3.4l1.8,0.6l3.4-3.3L93.4,25.1z M88.5,20.3l-1.3,0.6l-2.6-2l-0.3,0.4l3.2,2.4l-0.6,0.8l-2.7,1.3l-2.8-2.1l0.3-1.4l2.7,2.1
		l1.1-0.6l-3-2.3l1.9-2.5L88.5,20.3z M76.3,17.6l1.6-1.1l0.1-2l0.5-0.9l4.5,2.5L81.8,17l-2.6-1.5l-0.1,1.7l-1.4,0.9l3.2,1.8
		l-1.2,0.8l-4-2.2L76.3,17.6z M71.4,10.8l3.7,1.3l0.3,2.4l-1,0.9l0.2,1.7l0.4,0.1l-0.3,0.9l-1.2-0.4l0.1-0.2l-0.2-0.4l-0.2-1.8
		l-1.8-0.6l-0.3,0.9l1.3,1.4l-4.5-1.6l1.9-0.2L71.4,10.8z M57.1,7.7c3.8,0,7.5,0.4,11,1.3c-0.7,2.2-1.3,5.1-2,7.4
		c-2.9-0.6-5.9-1-9-1c-2.7,0-5.3,0.3-7.9,0.8L47,8.7C50.2,8.1,53.6,7.7,57.1,7.7z M42.4,10.9L41,12.3l1.1,3.2l3.1-1.1L45,15.9
		l-3.7,1.3l-1.6-4.5l-1.9-0.2L42.4,10.9z M33.5,14.7l-0.3,1.1l1.5,2.7l0.3,0.2l1.8-1l0-0.4l-1.5-2.7l-1.2-0.3l0.2-0.1l0,0l3.2-1.8
		l-1.1,1.6l1.6,2.8l0.1,1.7L35,20.3l-1.4-0.9l-1.6-2.8l-1.9,0.1L33.5,14.7z M29.2,17.3l0.3,1.4l-2.5,2l0.3,0.4l2.6-2l0.3,1.4l-2,1.6
		l1,1.2L31,23l-3.7,3l0.8-1.8l-3-3.7L29.2,17.3z M22.9,22.6l1,0.9l-1.2,1.4l2.5,2.3l1.8-0.7l-3.2,3.5l0.5-1.9l-2.5-2.3l-1.2,1.4
		l-1-0.9L22.9,22.6z M18,28.2l1.1,0.7l-1.8,2.7l0.8,1.4l1.6,0.2l1.8-2.7l1.1,0.7l-2.2,3.3l-3.1-0.4l-1.6-2.7L18,28.2z M14.3,34
		l0.9,1.1l-1.3,2.7l1.7,0l1,1.3l1.6-3.3l0.9,1.1L17.2,41l-0.9-0.4L15,39.1l-2,0.1l-0.9-0.4L14.3,34z M11,41.7l1.7-0.3l1.3,1.2
		l-0.8,2.8l1.5,0.4l1.3-1.4L14.7,49L14.3,47l-4.5-1.3L11,41.7z M9.1,48.9l1.2,0.8L10,52.9l0.5,0.1l0.4-4l1,0.1l2.5,1.6l-0.4,3.5
		l-1.4,0.5l0.4-3.4l-1.1-0.7l-0.4,3.7L8.5,54L9.1,48.9z M8.4,56.3l1.3,0.6l0.1,3l1.5-0.8l1.5,0.7l-0.2-3.7l1.3,0.6l0.2,4.5l-1,0
		l-1.8-0.8l-1.7,1l-1,0L8.4,56.3z M9.2,65.6l1.9-1.5l1.3,0.3l1.3-1l-0.1-0.4l1-0.2l0.3,1.3l-0.2,0l-0.2,0.3L13,65.5l0.4,1.8l0.9-0.2
		l0.5-1.9l1,4.7l-1.2-1.5l-4.6,1L9.2,65.6z M40.1,103.1c-13.5-5-24.2-15.7-29.2-29.1l7.3-2.4c4.3,11.2,13.2,20.1,24.5,24.3
		L40.1,103.1z M49.3,101.1l-0.2,1l-1.9,2.3l-3.3-0.8l-0.3-1.4l3.3,0.8l0.8-0.9l-3.6-0.9l0.7-3l5,1.2l-0.9,1.1l-3.1-0.7l-0.1,0.5
		L49.3,101.1z M55.2,105.4l-1.3-3.3l-1.8,3.1l-1.4-0.1l3.4-5.7l2.5,6.1L55.2,105.4z M17.4,56.9c0-21.9,17.8-39.6,39.6-39.6
		c21.9,0,39.6,17.8,39.6,39.6c0,21.9-17.8,39.6-39.6,39.6C35.2,96.6,17.4,78.8,17.4,56.9z M60.4,101.6l3.2-0.3l-0.5,1.3l-2.6,0.2
		l0.1,1.5l1.8,0.7l-4.7,0.4l1.6-1l-0.4-4.6l5.1-0.5l-0.5,1.3l-3.2,0.3L60.4,101.6z M71.1,103.4l-4.3,1.1l-0.3-1l0.4-1.9l-1.3-1.5
		l-0.3-1l5-1.3L70,99.3l-2.9,0.7l1.1,1.2l-0.4,1.6l3.5-0.9L71.1,103.4z M76,102.4c-0.9-1.9-2.1-4.7-3.1-7
		C83.7,90.9,92.2,82,96.2,70.9c2.1,0.9,5,2,7.1,2.9C98.6,86.7,88.6,97.1,76,102.4z M103.7,70.6l-1.1-0.9l0.6-2.9l-1.6,0.4l-1.3-1
		l-0.8,3.6l-1.1-0.9l1-4.4l1,0.2l1.5,1.2l1.9-0.5l1,0.2L103.7,70.6z M104.5,60.5l-3.4-0.3l-0.2,3.3l-1.3-0.7l0.3-3.9l4.7,0.4l1-1.7
		l-0.4,4.8L104.5,60.5z"/>
</g>
</svg>
