<?xml version="1.0" encoding="utf-8"?>
<!-- Generator: Adobe Illustrator 21.0.2, SVG Export Plug-In . SVG Version: 6.00 Build 0)  -->
<svg version="1.1" id="Layer_1" xmlns="http://www.w3.org/2000/svg" xmlns:xlink="http://www.w3.org/1999/xlink" x="0px" y="0px"
	 viewBox="0 0 218.4 236" style="enable-background:new 0 0 218.4 236;" xml:space="preserve">
<style type="text/css">
	.st0{fill:#010101;}
	.st1{fill:#BDBEC1;}
	.st2{fill:#C8AE7C;}
	.st3{fill:#FFFFFF;}
	.st4{fill:#357CC0;}
</style>
<path class="st0" d="M198.3,89.5C185.9,77,169.4,70.1,151.8,70c-7.8,0-15.3,1.3-22.6,3.9c-6.5,2.3-12.6,5.7-18.1,10l-0.3-0.2
	c0.2-1,0.4-3.7-0.5-7.4l2.8,0.9l2.2-4.2c0.2-0.3,1.6-3.1,2.9-7c1.3-4.1,2-7.8,2-11.3c2.2-1.4,2.7-3.3,2.8-4.7l0,0c0-0.1,0-0.3,0-0.4
	l27.4-1.9l-1.2-6.2c-0.2-0.8-0.5-2.6-1-4.6C144.2,24.9,134.1,6.9,108,2C77.3-3.8,62.6,19,57.5,30l-2.2,5.3c0,0,0,0,0,0
	c0,0.1-0.1,0.2-0.1,0.2s0,0-0.1-0.1c-0.2,0.1-0.8,0.1-1.7-0.2l-11.8-3.7l5,11.3c0.3,0.6,2.6,5.3,9.2,6l-2.1,0.4
	c-2.7-0.5-5.3-0.7-7.8-0.7h-4.6l-1,5c-2.2,0-4.2,0-6,0.2l-4.4,0.4l-1.1,8.8l-9.3,1.6L19,65.5c-0.2,0.3-4.8,7.9-9.3,18.7
	c-6.1,14.6-9,27.5-8.7,38.3c0.9,26.4,14.4,47.4,38.1,59.2c23.2,11.5,60.7,20.7,61.1,20.8l0.2,0c0.3,0.1,31.6,5.3,38.4,24.4l2,5.7
	l1.7-5.8c0.2-0.5,3.5-12.4-2.8-26.1c3.7,0.7,7.6,1,11.4,1c17.6,0.1,34.2-6.7,46.7-19.1c12.5-12.4,19.4-28.9,19.5-46.5
	S210.7,102,198.3,89.5z"/>
<path class="st0" d="M116.6,51.3c-0.8-4.9-2.8-9.6-5.5-13.4c-3.3-4.5-7.6-7.7-13-9.7c-5.4-2-10.9-2.2-15.9-0.6
	c-4.6,1.4-8.6,4.2-11.6,8.1c-2,2.6-2.8,5.3-3.6,7.8c-1.3,4.3-2.2,7.1-9.1,8.4l-8.2,1.5l7.8,3.1c0.1,0.1,3.3,1.3,6.9,2.2
	c5.5,1.4,9.2,1.3,11.4-0.3c3-2.1,4.7-3.9,5-5.2l0.2-0.9l-0.4-0.8c0,0-2-4.1-0.1-6.5c1-1.3,2.3-1.1,2.8-1c0.8,0.2,1.8,0.9,2,2.2
	c0.5,3.1-0.8,11.2-1.3,14.1L83.5,64l0,0c-0.1,0.7-0.5,6.6,7.8,12.4c7.3,5.1,12.5,8.3,12.7,8.4l2.9,1.8l0.7-3.4
	c0.1-0.3,0.6-3.4-0.8-7.9c-0.5-1.5-0.8-2.9-1-4.1l5.8,1.9l0.9-1.8C112.6,71,118.2,60.4,116.6,51.3z M105.8,68.5l-0.5,1
	c-0.3-2.7,0.1-4.2,0.6-4.5l1.8-1.2C106.9,66.3,105.9,68.5,105.8,68.5z M106.7,61.7c-0.1-0.2-2.7-4.3-7.6-7.7c1.2-1,2.9-2.2,4.7-2.4
	c1-0.1,1.9,0.6,2.5,1.3c1.9,2,2.9,5.3,2.5,7.1c-0.2,1.2-0.6,2.5-1,3.7L106.7,61.7z"/>
<path class="st1" d="M141,236l-3.1-8.7c-6.6-18.6-37.3-23.7-37.6-23.8l-0.2,0c-0.4-0.1-38.1-9.3-61.3-20.9
	c-24.1-12-37.8-33.3-38.7-60.1c-0.4-11,2.6-24,8.8-38.8c4.6-10.9,9.2-18.5,9.4-18.8l0.7-1.2l9-1.6l1.1-8.8l5.3-0.5
	c1.6-0.2,3.4-0.2,5.3-0.2l1-5h5.4c1.2,0,2.4,0.1,3.6,0.2c-2.6-1.8-3.7-4.1-3.9-4.4l-6-13.4l14,4.4c0.4,0.1,0.6,0.2,0.8,0.2l2-4.9
	c2.8-5.9,7.8-14.3,16-20.7c10-7.8,22-10.5,35.6-7.9c11.8,2.2,21.6,7.3,28.9,15.1c5.3,5.6,9.3,12.5,11.9,20.4l0,0.1
	c0.5,2,0.9,3.9,1.1,4.6l1.5,7.4l-27.6,2c-0.1,1.4-0.8,3.2-2.7,4.7c-0.1,3.4-0.7,7.1-2,11.1c-1.3,4-2.8,6.9-3,7.2l-2.6,4.9l-1.9-0.6
	c0.3,1.7,0.3,3.1,0.3,4.2c5.2-3.8,10.9-6.8,17-9c7.3-2.6,15-3.9,22.9-3.9c17.9,0.1,34.7,7.1,47.2,19.8
	c12.6,12.7,19.5,29.5,19.4,47.4s-7.1,34.7-19.8,47.2c-12.6,12.5-29.4,19.4-47.1,19.4c-0.1,0-0.2,0-0.3,0c-3.2,0-6.5-0.3-9.7-0.7
	c5.4,13.3,2.2,24.6,2.1,25L141,236z M100.6,201.5c1,0.2,32.3,5.6,39.2,25.1l1,2.7l0.8-2.8c0.1-0.5,3.4-12-2.8-25.4l-0.8-1.8l1.9,0.3
	c3.7,0.7,7.4,1,11.2,1c0.1,0,0.2,0,0.3,0c17.2,0,33.4-6.7,45.7-18.8c12.3-12.2,19.1-28.5,19.2-45.8c0.1-17.3-6.6-33.7-18.8-46
	c-12.2-12.3-28.5-19.1-45.8-19.2c-7.6,0-15.1,1.3-22.2,3.8c-6.4,2.3-12.4,5.6-17.9,9.8l-0.6,0.4l-1.5-1l0.1-0.7
	c0.1-0.9,0.4-3.5-0.5-7.1l-0.4-1.8l3.7,1.2l1.8-3.4c0.2-0.3,1.6-3,2.8-6.9c1.3-3.9,1.9-7.6,1.9-11l0-0.6l0.5-0.3
	c1.5-0.9,2.2-2.2,2.3-3.8l0,0c0-0.1,0-0.2,0-0.4l0-1l27.2-1.9l-1-5.1c-0.1-0.7-0.5-2.5-1-4.5c-2.4-7.6-6.3-14.2-11.4-19.6
	C128.5,10,119.2,5.1,107.8,3c-13-2.5-24.4,0.1-34,7.5C66,16.6,61.1,24.7,58.4,30.4l-2.2,5.5L55.8,37l-0.9-0.4
	c-0.5,0-1.1-0.1-1.8-0.3l-9.6-3l4.1,9.2c0.2,0.5,2.3,4.8,8.4,5.4l7,0.8l-9.3,1.7l-0.2,0c-2.6-0.5-5.2-0.7-7.6-0.7h-3.7l-1,5.1
	l-0.9,0c-2.1,0-4.1,0-5.9,0.2l-3.6,0.4l-1,8.7l-9.6,1.7L19.9,66c-0.2,0.3-4.7,7.8-9.2,18.5c-6.1,14.4-9,27.2-8.6,37.9
	c0.8,26,14.2,46.7,37.5,58.3c22.9,11.4,59.9,20.5,60.9,20.7L100.6,201.5z"/>
<g>
	<path class="st0" d="M32.6,64.5l-11.7,2.1c0,0-18.5,30.4-17.7,55.9s13.8,46,37,57.5c23.3,11.6,60.7,20.7,60.7,20.7
		s32.7,5.2,40,25.7c0,0,5.1-17.3-8.4-33.8S120.4,104,120.4,104l-3.9-14.5l-9.9-6.3l-35-21.9l-27.1-1.8l-11.1,2.1"/>
	<path class="st0" d="M147.9,45.7l-0.8-4c-0.2-1-1.2-5.7-2.3-8.6l0.1,0l-1.8-3.6c-0.9-1.8-2.4-4.5-4.6-7.4l0.1-0.1l-1.4-1.7
		l-1.2-1.5l-0.1,0c-1.2-1.3-2.4-2.6-3.8-3.8l0.1-0.1l-1.7-1.3l-1.3-1.1l-0.1,0.1c-1.9-1.5-4-2.8-6.1-4l0-0.1L121,7.6l-1.4-0.7
		l-0.1,0.1c-2.1-0.9-4.3-1.7-6.5-2.3l0-0.1l-1.7-0.4l-1.5-0.4l0,0.1c-0.2,0-0.4-0.1-0.6-0.1c-1.3-0.2-2.6-0.5-3.9-0.6l0-0.1
		l-2.3-0.1l-1.6-0.2l0,0.1c-2.6-0.1-5.2-0.1-7.6,0.2l0-0.1l-2.1,0.4l-2,0.3l0,0.1c-2.1,0.4-4.2,1-6.1,1.7l-0.1-0.1L82,5.8l-2,0.8
		l0,0.1c-1.9,0.9-3.7,2-5.5,3.2L74,10.4l-0.1,0l-0.6,0.5l-1.2,0.8l0.1,0.1l-0.1,0.1c-1.8,1.5-3.4,3.2-5,5l-0.1,0l-0.9,1.2L65,19.4
		l0.1,0.1c-1.1,1.5-2.1,3.1-3.1,4.7l0,0L57,36.3c0,0-0.3,0.4-0.7,0.7c-0.8,0.6-2,0.6-3.5,0.1l-7.7-2.4l3.3,7.3
		c0.2,0.5,2.5,5.1,9.4,5c1.4,0,3.2-0.4,5.2-1.8l1.8,0.8c-1,2.3-2.6,3.7-7.1,4.5l-4.1,0.7c-2.5-0.5-5.1-0.7-7.8-0.7h-3l-1,5.1
		c-2.5-0.1-5.1-0.1-7.4,0.2l-2.9,0.3l-1.8,14.8l5-1.1c0.3-0.1,25.4-5.5,46.8,2.9l5.8,2.3c0.9,0.8,1.9,1.7,3.1,2.5
		c7.3,5.1,12.5,8.3,12.7,8.4l4.4,2.7l1-5.1c0.1-0.4,0.6-3.7-0.9-8.5c-0.2-0.6-0.3-1.1-0.5-1.6l0.1-0.2l4.5,1.5l1.4-2.7
		c0.1-0.1,1.5-2.9,2.8-6.7c1.4-4.3,2-8.3,1.8-11.8c1.1-0.5,2.7-1.5,2.8-3.6v0c0-0.7,0-1.4-0.1-2.2L147.9,45.7z"/>
	<path class="st2" d="M108,69.5l2.3,0.8c0,0,5.4-10.2,4-18.6c-1.4-8.5-6.6-17.4-17-21.2s-19.6,0-24.7,6.7s-1.5,14.7-14.1,17
		c0,0,12.3,4.9,16.1,2.2s4.1-3.8,4.1-3.8s-2.8-5.4,0.1-9.1c2.9-3.6,8.3-1.9,8.9,2.3c0.7,4.2-1.3,14.9-1.3,14.9l-0.5,3.7
		c0,0-0.6,5,6.8,10.2c7.3,5.1,12.6,8.3,12.6,8.3s0.5-2.6-0.8-6.8c-1.3-4.1-2.8-11,0.2-13.1c0,0-3.2-5.2-9.4-8.4c0,0,3.5-4.6,8.2-5.3
		c4.6-0.7,8.5,6.9,7.7,11.1S108,69.5,108,69.5z"/>
	<path class="st3" d="M104.9,56.8c0,0-0.9-1.9,0-2.7c0,0,1.1,0.9,1,0.9s-0.5,1.7,1.3,2c0,0-0.3,0.7-0.9,0.7c0,0,1.7,1.3,3,0.7
		c0,0,0.5,5-2.8,10l-1.6-2.4c0,0,1.1-2.5,2.9-2.7c0,0-4.1-6.1-9.4-9.1l0.7-0.8c0,0,2.7,0.3,3.5,2.2c0,0,0.1-1.2,0.7-1.5
		C103.3,54.1,103.5,56.4,104.9,56.8z"/>
	<path class="st3" d="M70.7,59.3c0,0,3.6,0.2,5.9-1.7s3.8-4,3.8-4s1.1,0.9,2.7,0.9c0,0-2.6-3.5-3.2-6.5s1.5-6.2,5.5-4
		c0,0-5.2,0.3-3.8,4.5c0,0,0.7-1.8,1.9-1.6c1.2,0.2-0.2,1.7-0.3,1.8c-0.1,0.1-1.4,1-0.2,1.8c1.2,0.8,0.7,2,0.7,2s1.5-0.9,1.1-2.3
		c-0.4-1.4,1-1.3,1-1.3l-2,14.8c0,0-0.6,2.9,0.7,4.2C84.5,68,72.9,59.5,70.7,59.3z"/>
	<path class="st2" d="M75,74.2c0,0-23.2,6.8-22.6,33.3S76,140.4,86.1,133l1.7,1.7c0,0-0.3,3.5-3.2,4.6c0,0,2.1,3.1,0.9,7.6l-3.8-0.1
		l0.2-2.5c0,0-3.6,1.9-8.9,0.3c0,0,5.9-1.1,8.7-4.7c0,0-4.5,1.7-8.7,0.1c0,0,6.3-0.8,9.2-3.4c0,0-15.6,5.1-25.9-10.2
		c0,0,2.3,4.9,2,5C58,131.4,53,125,53,125l3.6,7.2l-6.2-6.1l4.6,7l-6.8-5.9l2.8,5.9c0,0-6.4-7-9.6-16.9c-3.2-9.9,0.1-18.2,5.1-26.4
		S62.8,75.4,75,74.2z"/>
	<path class="st2" d="M93,77.1c-26.2-3.3-33.2,19.8-33.2,19.8c12.1-15.4,37.3-17,37.3-17L93,77.1z M93.3,78.8
		c-11.9,0.2-21,5.6-21,5.6C82,74.9,93.3,78.8,93.3,78.8z"/>
	<g>
		<path class="st4" d="M62.7,96.4c0.1-0.1-2.3,17.9-2.3,17.9l-2.2,0.4C58.2,114.7,55.3,104.3,62.7,96.4z"/>
		<path class="st4" d="M61.5,114.5l2.9,0.6c0,0,1.4-13.3,5.5-19.2l1.8,19l4.6-0.9L74,88c0,0-7.5,3.6-9.3,6.2
			C64.7,94.3,62.1,102.2,61.5,114.5z"/>
		<path class="st4" d="M75.2,87.4c0,0,5.8-2.6,8.3-3c0,0,8.6,18.3,10,24.9L89,111l-7.3-20.3l0.6,22.2l-4.6,0.9
			C77.7,113.7,75.4,92.3,75.2,87.4z"/>
		<path class="st4" d="M94.7,108.9c0,0-6.7-19.4-9.8-25l5.2-1.3c0,0,9.2,7.1,15.5,15.3l4.3,5.1l-4.2,2.6c0,0-13.9-18.4-13.8-18.2
			s6.5,20,6.5,20L94.7,108.9z"/>
		<path class="st4" d="M91.8,82.3l2-0.6c0,0,11.6,5.2,19.9,17l-4,1.7C109.6,100.4,99.1,87.3,91.8,82.3z"/>
	</g>
	<path class="st3" d="M58.5,116.1l7.8,1.5c0,0,2.1-12,2-11.9s1.8,12.1,1.8,12.1l14.2-3.4v-9.4l3.4,8.7l6.9-2.5l-4.3,21.7
		c0,0-10.1-8.7-11.8-11.2l4.1,8.1c0,0-7.9,2.4-14.5-1.6C68.1,128.2,62.5,125.2,58.5,116.1z"/>
	<path class="st2" d="M80.4,74l3.9,0.5c0,0-21.9,2.5-27.6,23.4s7.2,29.8,10.6,31.7c3.4,2,10.3,4.4,16.6,1.1l1.4,1.5
		c0,0-10.2,5.5-21.2-2.2s-11.1-21.4-9.8-29.9S64,76.9,80.4,74z"/>
	<path class="st4" d="M130.4,34.7l9.5-3.6c-0.9-1.8-2.5-4.6-4.9-7.7c-2.2,1.1-5.6,2.8-5.6,2.8l4.3-4.4c-1.3-1.5-2.8-3.1-4.6-4.6
		c-2.4,1.9-6,4.8-6,4.6c0-0.2,2.2-3.3,4.2-6.1c-2-1.6-4.3-3.1-6.9-4.4l-4.3,4.8l2.3-5.7c-2.1-0.9-4.4-1.8-6.9-2.4l-2.3,4.1l0.1-4.6
		c-0.3-0.1-0.6-0.1-0.9-0.2c-1.7-0.3-3.3-0.5-4.8-0.7l-1.7,4l-0.2-4.1c-3.1-0.2-6-0.1-8.7,0.2c-0.1,2.3-0.3,4.7-0.3,4.7l-1.5-4.4
		c-2.4,0.4-4.7,1.1-6.7,1.8c0.6,2.1,1.3,4.4,1.1,4.3c-0.1-0.1-1.6-1.7-3.1-3.4c-2.1,0.9-4,2.1-5.7,3.3l1.9,3.9l-4.2-2.1
		c-1.8,1.5-3.4,3.2-4.9,4.9c0.9,1.3,1.7,2.4,1.7,2.4s-1.3-0.4-2.9-0.9c-1.3,1.7-2.4,3.4-3.3,5.1l-0.2,0.4l1.3,2.3l-2.1-0.5l-3.8,9.2
		c0,0-2.1,5-8.6,2.9c0,0,1.3,2.9,6.1,2.8c4.8-0.1,8-7.2,8-7.2S71,25.9,82.8,23s22.3,2.7,27.7,8.5s7.6,12.7,7.6,12.7l25.4-1.8
		c0,0-1.3-6.3-2.4-8.7L130.4,34.7z"/>
	<g>
		<path class="st4" d="M82.9,69.3c0,0-18.1-15.1-37-15.1l-0.7,3.5c0,0,14,1.8,20.8,6c0,0-18.2-5.5-31.2-4.2l-0.8,6.9
			C34.1,66.3,60.3,60.5,82.9,69.3z"/>
		<g>
			<path class="st4" d="M27.2,90.2c14-17.5,25.8-22.6,33.4-23.7c-0.8,0-1.5-0.1-2.3-0.1c-4.4-0.2-8.7-0.1-12.5,0.2
				c-1.6,0.1-3.2,0.2-4.8,0.4c-9.7,1.1-16.1,3-16.1,3s-36.2,47.3-2.7,88.3C19.7,153.1,4.2,118.9,27.2,90.2z"/>
		</g>
		<path class="st4" d="M107.4,190.1c-27.3-7-63.4-24-71.4-58.4C19.7,74.1,69.4,68,69.9,67.8l0.9,0.1c-2.3-0.4-4.9-0.8-7.8-1.2
			c-28.3,6.6-36.9,32.1-36.9,32.1s-18.4,43.4,16.5,71.9s84.5,17.8,95.2,44.6C137.9,215.3,138.4,198.1,107.4,190.1z"/>
		<path class="st4" d="M73.2,68.5c0,0,9.7,2.1,13.4,4.3c0,0-32.8-5.2-44.9,21.3s4.1,61.1,56.7,78.2c0,0-15.6-1.1-37-15.7
			s-29.5-37.7-26-56.3S57.7,70.4,73.2,68.5z"/>
		<path class="st4" d="M49.4,134.9c0,0,17,16.9,42.3,14.9l3.8,9.6C95.5,159.4,66.6,157.9,49.4,134.9z"/>
	</g>
	<path class="st2" d="M108,69.5l2.3,0.8c0,0,5.4-10.2,4-18.6c-1.4-8.5-6.6-17.4-17-21.2s-19.6,0-24.7,6.7s-1.5,14.7-14.1,17
		c0,0,12.3,4.9,16.1,2.2s4.1-3.8,4.1-3.8s-2.8-5.4,0.1-9.1c2.9-3.6,8.3-1.9,8.9,2.3c0.7,4.2-1.3,14.9-1.3,14.9l-0.5,3.7
		c0,0-0.6,5,6.8,10.2c7.3,5.1,12.6,8.3,12.6,8.3s0.5-2.6-0.8-6.8c-1.3-4.1-2.8-11,0.2-13.1c0,0-3.2-5.2-9.4-8.4c0,0,3.5-4.6,8.2-5.3
		c4.6-0.7,8.5,6.9,7.7,11.1S108,69.5,108,69.5z"/>
	<path class="st0" d="M110.6,29.8c-6.1-6-13.6-9-21.9-8.7C77.7,21.5,71,27,67.5,31.6c-3.9,4.9-5.1,9.7-5.2,10l-0.6,2.6l4.7,6.4
		l4-6.4c4.8-15.2,18.1-14.3,20.8-14c8.1,1,14.3,4.7,18.3,11c3.1,4.8,3.7,9.5,3.7,9.5l1.4,9.1l2.8-6.6c1-0.4,3-1.2,3.1-3.4l0,0
		C120.6,45,117.2,36.3,110.6,29.8z"/>
	<path class="st2" d="M117.3,49.7c0,0.2-1.1,0.6-1.1,0.6s-2.6-20.5-24.7-23.2c-4.1-0.5-18.8-0.6-24.1,16.1l-2.1-0.9
		c0,0,4.4-17.4,23.6-18.2S117.5,42.8,117.3,49.7z"/>
	<path class="st0" d="M106.8,63.1c0,0,2.3,0.6,2.2,0.8s-0.8,3.1-0.8,3.1l-1.3,2.4c0,0-1.2,1.1-2.3-0.4s-1.1-1.5-1.1-1.5l-0.1-0.8
		l0.7-1l0.3-0.5"/>
	<g>
		<path class="st0" d="M86.2,71.3l-3.5-1.4c-22.3-8.7-48.3-3-48.5-3l-0.9,0.2l1-8.2l0.5,0c7.4-0.8,16.6,0.7,23.2,2.2
			c-6.2-1.8-12.7-2.7-12.8-2.7l-0.7-0.1l0.9-4.6h0.5c5.5,0,14.4,1.3,25.9,7.6c6.9,3.8,11.5,7.6,11.5,7.6L86.2,71.3z M69.6,65.1
			c3.2,0.5,6.5,1.3,9.8,2.3C73.5,63.2,60.1,55,46.4,54.8L46,57.1c2.9,0.4,14.4,2.3,20.4,6L69.6,65.1z M35.4,60l-0.7,5.5
			c2.1-0.4,7.8-1.4,15.2-1.6c4.9-0.2,11.1-0.1,17.7,0.9l-1.8-0.5C65.7,64.2,48.1,58.9,35.4,60z"/>
		<g>
			<path class="st0" d="M25.2,162.8l-3.5-4.2c-7.7-9.4-12.4-20-13.9-31.4c-1.2-9.1-0.3-18.8,2.5-28.7c4.8-16.9,13.9-28.8,14-29
				l0.1-0.2l0.2-0.1c0.1,0,6.5-1.9,16.2-3c1.6-0.2,3.2-0.3,4.9-0.4c4.2-0.3,8.5-0.4,12.6-0.2c0.8,0,1.5,0.1,2.3,0.1l6,0.4l-5.9,0.8
				c-7.3,1-19,6-33,23.5l0,0c-5.2,6.5-8.8,13.8-10.7,21.8c-1.5,6.5-1.9,13.4-1.2,20.6c1.3,12.6,5.7,22.3,7,25L25.2,162.8z
				 M25.3,70.5C24.2,72,16,83.3,11.6,98.9c-2.8,9.7-3.6,19.2-2.5,28.2c1.2,9.5,4.7,18.4,10.4,26.6c-1.8-4.7-4.2-12-5-20.6
				c-0.8-7.3-0.3-14.4,1.2-21c1.9-8.1,5.6-15.6,10.9-22.3l0,0c7-8.7,17.4-19.2,29.2-22.9c-3.3-0.1-6.7,0-10.1,0.3
				c-1.6,0.1-3.2,0.2-4.8,0.4C32.4,68.6,26.4,70.2,25.3,70.5z"/>
		</g>
		<path class="st0" d="M138.5,218.3l-1.1-2.8c-2.5-6.3-7.3-10.8-15.1-14.4c-7.1-3.2-16-5.3-25.5-7.5c-17.7-4.1-37.7-8.8-54.5-22.5
			c-8-6.6-13.9-14.5-17.5-23.5c-2.8-7.2-4.2-15.2-4.1-23.6c0.2-14,4.6-24.9,4.9-25.5c0.2-0.5,2.3-6.7,7.9-13.7
			c5.2-6.6,14.6-15.3,29.4-18.7l0.1,0l0.1,0c2.7,0.3,5.3,0.7,7.8,1.2l-0.2,1.2L70,68.4c-0.1,0-0.2,0-0.4,0.1
			c-4.5,0.8-8.8,2.2-12.8,4.1c-7.7,3.6-13.6,8.7-17.6,15.1c-6.9,11.1-7.8,25.8-2.7,43.8l0,0c3.6,15.3,13.1,28.5,28.3,39.1
			c14.6,10.2,31.3,15.9,42.7,18.8c16.2,4.2,23.8,10.9,27.3,15.8c3.8,5.4,3.7,9.8,3.7,10L138.5,218.3z M63.1,67.4
			c-14.4,3.4-23.5,11.8-28.6,18.3c-5.6,7-7.7,13.3-7.7,13.4l0,0c0,0.1-4.6,10.9-4.8,25.1c-0.1,8.3,1.2,16,4,23.1
			c3.5,8.8,9.2,16.5,17.1,23c16.6,13.5,36.4,18.1,54,22.2c17.2,4,32.2,7.5,39.3,18.5c-0.5-1.4-1.4-3.2-2.7-5
			c-3.4-4.7-10.7-11.2-26.5-15.3c-11.5-3-28.4-8.7-43.1-19c-15.4-10.8-26.7-23.3-30.3-38.9c-5.2-18.4-2.7-34.4,4.4-45.7
			c4.1-6.6,10.2-11.9,18.1-15.6c3.3-1.5,6.8-2.8,10.4-3.6C65.5,67.6,64.4,67.5,63.1,67.4z"/>
		<path class="st0" d="M103.4,173.2l-5.1-0.4c-0.2,0-4-0.3-10.6-2.4c-6-1.9-15.6-5.8-26.7-13.4c-10.2-6.9-18-16.2-22.6-26.9
			c-4.2-9.7-5.5-20.4-3.7-30c1.6-8.7,6.7-16.5,14.6-22.5c6.8-5.2,15.5-8.7,23.8-9.7l0.1,0l0.1,0c0.4,0.1,9.8,2.1,13.5,4.3l2.7,1.6
			l-3.1-0.5c-0.1,0-8.2-1.3-17.7,0.7c-5.6,1.2-10.5,3.2-14.6,6C49,83.6,45,88.4,42.3,94.3c-2.5,5.4-3.7,11.1-3.7,17
			c0,6,1.3,11.9,3.8,17.7c8.1,18.3,28,33.5,56.2,42.6L103.4,173.2z M73.2,69.1c-8,1-17.2,3.4-23.8,8.5C44,81.7,37.9,89.8,36,100.4
			c-1.7,9.4-0.4,19.8,3.6,29.3c4.5,10.5,12.1,19.6,22.1,26.4c11.2,7.6,20.8,11.5,27.4,13.5c-10.9-4.3-20.4-9.6-28.2-15.7
			c-9.2-7.2-15.8-15.4-19.7-24.3c-2.6-6-4-12.1-4-18.2c0-6,1.3-11.9,3.8-17.5c2.8-6.1,6.9-11.1,12.3-14.8c4.3-2.9,9.4-5,15.1-6.2
			c5.7-1.2,11-1.2,14.4-1C79,70.4,74,69.3,73.2,69.1z"/>
		<path class="st0" d="M96.4,160l-1,0c-0.1,0-7.4-0.4-16.7-3.6c-8.6-3-20.8-9.1-29.8-21.1l0.9-0.8c0,0,4.3,4.2,11.6,8.1
			c6.7,3.6,17.3,7.6,30.2,6.7l0.5,0L96.4,160z M54.1,139.5c8.1,8.5,17.8,13.2,24.9,15.7c7.2,2.5,13.2,3.3,15.5,3.5l-3.3-8.2
			c-13,0.9-23.7-3.2-30.5-6.8C58.1,142.2,55.9,140.7,54.1,139.5z"/>
	</g>
	<path class="st0" d="M101.7,84.7c-3.1-3.6-6.7-9.3-5.5-15.8c0.5-3.1,1.9-5.2,2.5-5.9c-2.6-4.7-10.1-5.7-10.2-5.7l-0.9-0.1l0.4-0.8
		c3.3-6.5,7.4-10.4,12.2-11.8c6.3-1.8,11.8,1.5,13.6,2.6c0.2,0.1,0.4,0.2,0.4,0.3c0,0-0.1,0-0.2,0v1.2c-0.2,0-0.4-0.1-0.9-0.4
		c-1.7-1-6.9-4.1-12.7-2.4c-4.2,1.2-8,4.7-11,10.4c2.3,0.4,8.3,2,10.5,6.6l0.2,0.4l-0.3,0.3c0,0-1.9,2.2-2.5,5.7
		c-0.8,4.8,1,9.7,5.3,14.7L101.7,84.7z"/>
	<path class="st0" d="M70.1,52.6c-1.8,0-3.9-0.5-5.8-2.1l0.8-0.9c3.3,2.9,7.7,1.5,8.9,1.1c0.3-3.4,1.5-5.8,3.5-7.4
		c2.6-2.1,5.7-1.7,5.8-1.7l-0.2,1.2c0,0-2.7-0.3-4.9,1.5c-1.7,1.4-2.8,3.7-3,6.9l0,0.4l-0.3,0.2C74.7,51.7,72.7,52.6,70.1,52.6z"/>
	<g>
		<path class="st0" d="M88.8,132.3L76,119.8c0,0,1.6,6.7,7.4,11.2c5.9,4.5,7.2,6.9,7.2,6.9"/>
		<path class="st0" d="M90,138.2c0,0-1.4-2.3-7-6.7c-6-4.6-7.6-11.3-7.6-11.6l-0.5-2l14.4,13.9l-0.9,0.9l-11-10.6
			c1,2.3,2.9,5.8,6.4,8.5c5.9,4.6,7.3,7,7.3,7.1L90,138.2z"/>
	</g>
</g>
<ellipse transform="matrix(4.611103e-03 -1 1 4.611103e-03 14.8682 286.7419)" class="st0" cx="151.5" cy="135.9" rx="64" ry="64"/>
<circle class="st0" cx="151.5" cy="135.9" r="62.1"/>
<circle class="st2" cx="151.5" cy="135.6" r="59.9"/>
<circle class="st2" cx="151.5" cy="135.9" r="45.9"/>
<path class="st2" d="M189.2,110.3c-8.3,18.9-30.7,32.3-56.9,32.3c-9.7,0-18.9-1.9-27-5.1c0.8,24.6,21.1,44.3,45.9,44.3
	c25.4,0,45.9-20.6,45.9-45.9C197,126.4,194.1,117.6,189.2,110.3z"/>
<path class="st2" d="M151.4,79.4c-31.1,0-56.3,25.2-56.3,56.3s25.2,56.3,56.3,56.3s56.3-25.2,56.3-56.3S182.6,79.4,151.4,79.4z
	 M151.4,181.1c-25.1,0-45.4-20.3-45.4-45.4s20.3-45.4,45.4-45.4c25.1,0,45.4,20.3,45.4,45.4S176.5,181.1,151.4,181.1z"/>
<g>
	<path class="st0" d="M168.8,126.8l4.8-4c-0.9-0.9-2.3-2.2-4.3-3.5c-1.1,1.1-2.6,2.7-2.6,2.7l1.6-3.4c-1.1-0.6-2.2-1.2-3.5-1.7
		c-1,1.6-2.5,3.9-2.6,3.8c0-0.1,0.6-2.3,1.2-4.3c-1.5-0.5-3.1-0.9-4.8-1.2l-1.5,3.6l0.2-3.8c-1.4-0.1-2.9-0.1-4.5,0l-0.5,2.8
		l-0.9-2.7c-0.2,0-0.4,0-0.5,0.1c-1,0.1-2,0.3-2.9,0.6l-0.2,2.6l-0.9-2.3c-1.8,0.5-3.5,1.1-5,1.9c0.4,1.3,0.8,2.8,0.8,2.8l-1.7-2.3
		c-1.3,0.7-2.5,1.5-3.5,2.4c0.8,1.1,1.6,2.3,1.5,2.2c-0.1,0-1.2-0.6-2.5-1.3c-1,1-1.9,2-2.6,3l1.8,1.9l-2.8-0.4
		c-0.7,1.2-1.4,2.5-1.8,3.8c0.8,0.5,1.4,1,1.4,1s-0.8,0-1.8,0c-0.4,1.2-0.7,2.4-0.9,3.6l0,0.3l1.2,1.1l-1.3,0.1l-0.3,6.1
		c0,0-0.2,3.3-4.4,3.4c0,0,1.3,1.4,4.1,0.4c2.7-1,3.2-5.7,3.2-5.7s0.9-7,7.2-11c6.2-4,13.4-2.9,17.6-0.6c4.3,2.3,6.9,5.8,6.9,5.8
		l14.2-6.1c0,0-2-3.3-3.1-4.5L168.8,126.8z"/>
	<path class="st0" d="M162.8,151.2l1.5,0c0,0,1.1-6.9-1.4-11.5c-2.5-4.6-7.2-8.7-14-8.8c-6.8-0.1-11.2,3.9-12.9,8.7
		s2.1,8.8-4.7,12.6c0,0,8,0.4,9.7-1.9s1.6-3,1.6-3s-2.7-2.5-1.7-5.2c1-2.7,4.4-2.7,5.6-0.4s2.2,8.8,2.2,8.8l0.5,2.2
		c0,0,0.7,3,5.9,4.5s8.9,2.3,8.9,2.3s-0.2-1.6-1.8-3.7c-1.5-2.1-3.8-5.8-2.5-7.6c0,0-2.9-2.4-7.1-3c0,0,1.1-3.4,3.7-4.6
		c2.5-1.3,6.3,2.3,6.6,4.9S162.8,151.2,162.8,151.2z"/>
	<path class="st0" d="M164.3,138c0,0.1-0.5,0.6-0.5,0.6s-5.5-11.3-18.8-8.5c-2.5,0.5-10.9,3.4-10.7,14l-1.4-0.1
		c0,0-0.9-10.9,10-15.1C153.8,124.7,163,134,164.3,138z"/>
</g>
<g>
	<polygon class="st0" points="122.1,153.6 124.1,152.7 120.6,144.2 118.6,145.1 119.9,148.3 113.7,150.8 111.3,148.7 114.3,156.1 
		114.6,152.9 120.8,150.4 	"/>
	<path class="st0" d="M119.7,161.5l-3-1l5.6,5.7l-1-3l1.5-1.4l2.7,2.7l-1.2,3.5l0,0.7l-0.2,0.2l1.6,1.6l1.2-1.2l-0.6-0.6l1.1-3.1
		l2.5-0.8l1.4-4.2l-5.1-5.1L119.7,161.5z M126,158.4l2.7,2.7l-0.6,1.9l-0.7,0.2l-3.1-3.1L126,158.4z"/>
	<path class="st0" d="M136.5,163.9l-4.4,3.8l0.4,5.8l5.4,2.2l4.4-3.8l-0.4-5.8L136.5,163.9z M134.5,171.9l-0.2-3.3l2.5-2.2l3.2,1.3
		l0.2,3.3l-2.5,2.2L134.5,171.9z"/>
	<polygon class="st0" points="152.1,168.8 151.9,175.5 149.3,175.4 148.2,173.1 145.8,173 148,177.6 153.3,177.7 154.1,176.2 
		154.3,168.8 157.2,167.5 149.2,167.3 	"/>
	<polygon class="st0" points="160.7,176.8 162.9,176 163.7,169 168.9,173.8 171,173 162.1,164.6 	"/>
	<polyline class="st0" points="181.7,164.3 182.5,163.6 176.5,157 177.6,154 171.8,159.4 174.9,158.5 178.2,162.2 171.5,159.6 
		170.7,160.4 170.5,160.6 169.6,161.4 175.7,167.9 174.5,170.9 180.4,165.6 177.3,166.4 173.9,162.8 180.6,165.3 181.5,164.5 	"/>
	<polygon class="st0" points="186.5,146 184.9,145.3 181.8,152.2 180.6,151.7 183.2,146 181.6,144.1 177.7,152.8 182.9,155.1 
		185.9,148.5 187.6,150.6 185,156.4 187.5,156.3 190.1,150.4 	"/>
</g>
<polygon class="st0" points="117,125.5 118.7,120.8 117,119 114.9,124.8 113.7,124.4 115.8,118.5 114.1,116.8 110.9,125.7 
	119.3,128.7 119.7,131.9 122.4,124.4 120.1,126.6 "/>
<path class="st0" d="M121.8,106.9l-3.9,4.4l2.2,5.3l5.6,1.4l3.9-4.4l-2.2-5.3L121.8,106.9z M127.1,113.1l-2.2,2.6l-3.2-0.8l-1.3-3.1
	l2.2-2.6l3.2,0.8L127.1,113.1z"/>
<path class="st0" d="M134.3,98.3l-5.2,2.8l0.1,5.8l4.7,3.4l5.2-2.8l-0.1-5.8L134.3,98.3z M134.3,100.8l2.7,1.9l0.1,3.3l-3,1.6
	l-2.7-1.9l-0.1-3.3L134.3,100.8z"/>
<polygon class="st0" points="146.5,97.3 150,96.8 149.6,94.6 140.6,96 140.9,98.2 144.3,97.7 145.4,104.3 142.8,106.1 150.6,104.9 
	147.6,103.9 "/>
<polygon class="st0" points="175.6,104.7 178.7,105.2 172.3,100.6 173.8,103.4 169.4,109.5 166.2,109 172.7,113.7 171.2,110.8 "/>
<polygon class="st0" points="177.2,115.8 182.5,111.7 185.4,113.2 180.6,106.8 181.2,110 174.1,115.3 178.4,121.1 180.8,120.7 "/>
<polygon class="st0" points="191,125.6 188.5,118 188.1,121.2 179.6,123.9 181.8,130.8 184.3,131.2 182.4,125.3 188.7,123.3 "/>
<polygon class="st0" points="165.8,98.7 168.9,98 162.2,96.4 163.6,98.2 163.2,100.2 158.5,99.1 159,97.1 161.2,96.1 154.4,94.5 
	156.9,96.6 155.1,103.9 152,104.6 158.6,106.2 157.3,104.4 158,101.3 162.7,102.3 161.9,105.5 160,106.5 166.5,108 164.1,106 "/>
<path class="st0" d="M201.7,135.7c1.3,0,2.6,0,4,0c-0.1-3.1-0.3-6.2-0.8-9.2c0,0-3.5,0.6-3.9,0.7c0.1,0.8,0.3,1.6,0.4,2.4
	c-0.2,0-0.4,0.1-0.6,0.1c-0.1,0-0.6,0.1-0.7,0.1c0,0,0-0.3,0-0.3c0-0.3-0.1-0.6-0.1-0.8c-0.1-0.6-0.2-1.2-0.3-1.8
	c-0.1-0.6-0.2-1.2-0.4-1.8c-0.1-0.3-0.1-0.5-0.2-0.8c0,0-0.1-0.3-0.1-0.4c0.1-0.1,0.5-0.1,0.6-0.2c0.2-0.1,0.4-0.1,0.6-0.2
	c0.2,0.8,0.4,1.6,0.5,2.4c0.8-0.2,1.6-0.3,2.3-0.5c0.4-0.1,0.9-0.2,1.3-0.3c0.1,0,0.2,0,0.2,0c0,0-0.2-0.9-0.2-0.9
	c-0.5-2-1-4-1.7-5.9c-0.1-0.2-0.7-2.1-0.8-2.1c-0.3,0.1-0.5,0.2-0.8,0.3c-1,0.4-1.9,0.7-2.9,1.1c0.3,0.8,0.6,1.5,0.8,2.3
	c-0.2,0.1-0.4,0.1-0.6,0.2c-0.1,0-0.5,0.2-0.6,0.2c0,0-0.1-0.2-0.1-0.3c-0.1-0.3-0.2-0.5-0.3-0.8c-0.2-0.6-0.4-1.2-0.7-1.7
	c-0.2-0.6-0.5-1.1-0.7-1.7c-0.1-0.2-0.2-0.5-0.3-0.7c0,0-0.2-0.3-0.2-0.3c0-0.1,0.5-0.2,0.6-0.3c0.2-0.1,0.4-0.2,0.6-0.3
	c0.3,0.7,0.7,1.5,1,2.3c0.7-0.3,1.5-0.6,2.2-0.9c0.4-0.2,0.8-0.3,1.2-0.5c0.1,0,0.1-0.1,0.2-0.1c0,0-0.3-0.8-0.4-0.9
	c-0.8-1.9-1.7-3.7-2.8-5.5c-0.1-0.2-1.1-1.9-1.2-1.9c-0.2,0.2-0.5,0.3-0.7,0.5c-0.9,0.5-1.7,1.1-2.6,1.6c0.4,0.7,0.9,1.4,1.3,2.1
	c-0.2,0.1-0.4,0.2-0.6,0.3c-0.1,0.1-0.5,0.3-0.6,0.3c0,0-0.1-0.2-0.1-0.3c-0.1-0.2-0.3-0.5-0.4-0.7c-0.3-0.5-0.7-1-1-1.6
	c-0.5-0.8-1.1-1.6-1.7-2.5c0,0,0.9-0.7,1-0.8c0.5,0.7,1,1.3,1.4,2c0.7-0.4,1.3-0.9,2-1.3c0.4-0.2,0.7-0.5,1.1-0.7
	c0.1,0,0.1-0.1,0.2-0.1c0,0-0.6-0.8-0.6-0.9c-1.2-1.7-2.4-3.3-3.8-4.8c-0.1-0.1-1.4-1.6-1.4-1.5c-0.2,0.2-0.4,0.4-0.7,0.6
	c-0.6,0.6-1.3,1.2-1.9,1.8c-0.2,0.2-0.3,0.2,0,0.4c0.5,0.5,1,1.1,1.5,1.6c-0.2,0.2-0.5,0.4-0.7,0.6c-0.1,0.1-0.2,0.2-0.3,0.2
	c0,0-0.3-0.4-0.4-0.4c-0.7-0.8-1.4-1.6-2.2-2.3c-0.5-0.5-1-1-1.5-1.5c-0.2-0.2-0.1-0.2,0.1-0.4c0.2-0.2,0.4-0.5,0.7-0.7
	c0.4,0.4,0.8,0.8,1.2,1.2c0.2,0.2,0.4,0.3,0.5,0.5c0,0,0.2-0.2,0.3-0.2c0.9-0.9,1.7-1.7,2.6-2.6c-2.3-2.2-4.6-4.2-7.1-6
	c-0.7,1-1.4,2-2.1,3c-0.1,0.1-0.2,0.2-0.1,0.3c0.5,0.4,1,0.7,1.5,1.1c0,0,0.4,0.3,0.4,0.3c-0.1,0.1-0.2,0.2-0.2,0.3
	c-0.2,0.2-0.4,0.5-0.6,0.7c-1.6-1.2-3.2-2.4-4.9-3.4c0.1-0.2,0.3-0.5,0.4-0.7c0.1-0.1,0.1-0.2,0.2-0.4c0-0.1,0.4,0.2,0.4,0.2
	c0.5,0.3,1.1,0.7,1.6,1c0.1,0,0.2-0.2,0.2-0.3c0.7-1,1.3-2,2-3c-2.6-1.7-5.3-3.2-8.1-4.5c-0.5,1.1-1,2.2-1.5,3.3
	c0,0.1-0.2,0.3-0.1,0.3c0.6,0.3,1.2,0.5,1.7,0.8c0,0,0.4,0.2,0.4,0.2c-0.1,0.1-0.1,0.2-0.2,0.3c-0.1,0.3-0.3,0.5-0.4,0.8
	c-0.9-0.5-1.8-0.9-2.7-1.3c-0.6-0.2-1.1-0.5-1.7-0.7c-0.1,0-1.1-0.4-1.1-0.4c0.1-0.3,0.2-0.5,0.3-0.8c0-0.1,0.1-0.3,0.1-0.4
	c0-0.1,0.3,0.1,0.4,0.1c0.6,0.2,1.2,0.5,1.9,0.7c0.1,0.1,0.1-0.1,0.2-0.3c0.5-1.1,0.9-2.2,1.4-3.4c-2.9-1.1-5.8-2.1-8.9-2.8
	c-0.3,1.2-0.5,2.3-0.8,3.5c0,0.1-0.1,0.3,0,0.3c0.6,0.1,1.3,0.3,1.9,0.5c0,0,0.5,0.1,0.5,0.2c0,0.1-0.1,0.2-0.1,0.4
	c-0.1,0.3-0.2,0.6-0.2,0.9c-1.9-0.5-3.9-1-5.9-1.2c0-0.3,0.1-0.6,0.1-0.8c0-0.1,0-0.3,0.1-0.4c0-0.1,0.3,0,0.4,0
	c0.7,0.1,1.3,0.2,2,0.4c0.1,0,0.1-0.2,0.1-0.3c0.2-1.2,0.5-2.4,0.7-3.6c-3.1-0.6-6.1-0.9-9.2-1c0,1.2-0.1,2.4-0.1,3.6
	c0,0.1-0.1,0.3,0.1,0.3c0.7,0,1.3,0,2,0.1c0,0,0.4,0,0.4,0c0,0.1,0,0.3,0,0.4c0,0.3,0,0.6-0.1,0.9c-1.5-0.1-3-0.2-4.5-0.1
	c-0.5,0-1,0-1.5,0c0,0-0.1-1.2-0.1-1.3c0.6,0,1.1,0,1.7,0c0.2,0,0.5,0,0.7,0c0,0,0-0.3,0-0.3c0-1.2,0-2.4,0-3.6
	c-3.1,0.1-6.2,0.3-9.2,0.8c0,0,0.6,3.5,0.7,3.9c0.8-0.1,1.6-0.3,2.4-0.4c0,0.2,0.1,0.4,0.1,0.6c0,0.1,0.1,0.6,0.1,0.6
	c0,0-0.3,0-0.3,0c-0.3,0-0.6,0.1-0.8,0.1c-0.6,0.1-1.2,0.2-1.8,0.3c-0.6,0.1-1.2,0.2-1.8,0.4c-0.3,0.1-0.5,0.1-0.8,0.2
	c0,0-0.3,0.1-0.4,0.1c-0.1-0.1-0.1-0.5-0.2-0.6c-0.1-0.2-0.1-0.4-0.2-0.6c0.8-0.2,1.6-0.4,2.4-0.5c-0.2-0.8-0.3-1.6-0.5-2.3
	c-0.1-0.4-0.2-0.9-0.3-1.3c0-0.1,0-0.2,0-0.2c0,0-0.9,0.2-0.9,0.2c-2,0.5-4,1-5.9,1.7c-0.2,0.1-2.1,0.7-2.1,0.8
	c0.1,0.3,0.2,0.5,0.3,0.8c0.4,1,0.7,1.9,1.1,2.9c0.8-0.3,1.5-0.6,2.3-0.8c0.1,0.2,0.1,0.4,0.2,0.6c0,0.1,0.2,0.5,0.2,0.6
	c0,0-0.2,0.1-0.3,0.1c-0.3,0.1-0.5,0.2-0.8,0.3c-0.6,0.2-1.2,0.4-1.7,0.7c-0.6,0.2-1.1,0.5-1.7,0.7c-0.2,0.1-0.5,0.2-0.7,0.3
	c0,0-0.3,0.2-0.3,0.2c-0.1,0-0.2-0.5-0.3-0.6c-0.1-0.2-0.2-0.4-0.3-0.6c0.7-0.3,1.5-0.7,2.3-1c-0.3-0.7-0.6-1.5-0.9-2.2
	c-0.2-0.4-0.3-0.8-0.5-1.2c0-0.1-0.1-0.1-0.1-0.2c0,0-0.8,0.3-0.9,0.4c-1.9,0.8-3.7,1.7-5.5,2.8c-0.2,0.1-1.9,1.1-1.9,1.2
	c0.2,0.2,0.3,0.5,0.5,0.7c0.5,0.9,1.1,1.7,1.6,2.6c0.7-0.4,1.4-0.9,2.1-1.3c0.1,0.2,0.2,0.4,0.3,0.6c0.1,0.1,0.3,0.5,0.3,0.6
	c0,0-0.2,0.1-0.3,0.1c-0.2,0.1-0.5,0.3-0.7,0.4c-0.5,0.3-1,0.7-1.6,1c-0.8,0.5-1.6,1.1-2.5,1.7c0,0-0.7-0.9-0.8-1
	c0.7-0.5,1.3-1,2-1.4c-0.4-0.7-0.9-1.3-1.3-2c-0.2-0.4-0.5-0.7-0.7-1.1c0-0.1-0.1-0.1-0.1-0.2c0,0-0.8,0.6-0.9,0.6
	c-1.7,1.2-3.3,2.4-4.8,3.8c-0.1,0.1-1.6,1.4-1.5,1.4c0.2,0.2,0.4,0.5,0.6,0.7c0.6,0.6,1.2,1.3,1.8,1.9c0.2,0.2,0.2,0.3,0.4,0
	c0.5-0.5,1.1-1,1.6-1.5c0.2,0.2,0.4,0.5,0.6,0.7c0.1,0.1,0.2,0.2,0.2,0.3c0,0-0.4,0.3-0.4,0.4c-0.8,0.7-1.6,1.4-2.3,2.2
	c-0.5,0.5-1,1-1.5,1.5c-0.2,0.2-0.2,0.1-0.4-0.1c-0.2-0.2-0.5-0.4-0.7-0.7c0.4-0.4,0.8-0.8,1.2-1.2c0.2-0.2,0.3-0.4,0.5-0.5
	c0,0-0.2-0.2-0.2-0.3c-0.9-0.9-1.7-1.7-2.6-2.6c-2.2,2.3-4.2,4.6-6,7.1c1,0.7,2,1.4,3,2.1c0.1,0.1,0.2,0.2,0.3,0.1
	c0.4-0.5,0.7-1,1.1-1.5c0,0,0.3-0.4,0.3-0.4c0.1,0.1,0.2,0.2,0.3,0.2c0.2,0.2,0.5,0.4,0.7,0.6c-1.2,1.6-2.4,3.2-3.4,4.9
	c-0.2-0.1-0.5-0.3-0.7-0.4c-0.1-0.1-0.2-0.1-0.4-0.2c-0.1,0,0.2-0.4,0.2-0.4c0.3-0.5,0.7-1.1,1-1.6c0-0.1-0.2-0.2-0.3-0.2
	c-1-0.7-2-1.3-3-2c-1.7,2.6-3.2,5.3-4.5,8.1c1.1,0.5,2.2,1,3.3,1.5c0.1,0.1,0.3,0.2,0.3,0.1c0.3-0.6,0.5-1.2,0.8-1.7
	c0,0,0.2-0.4,0.2-0.4c0.1,0.1,0.2,0.1,0.3,0.2c0.3,0.1,0.5,0.3,0.8,0.4c-0.5,0.9-0.9,1.8-1.3,2.7c-0.1,0.2-1.2,2.8-1.1,2.8
	c-0.3-0.1-0.5-0.2-0.8-0.3c-0.1,0-0.3-0.1-0.4-0.1c-0.1,0,0.1-0.3,0.1-0.4c0.2-0.6,0.5-1.2,0.7-1.9c0.1-0.1-0.1-0.1-0.3-0.2
	c-1.1-0.5-2.2-0.9-3.4-1.4c-1.1,2.9-2.1,5.8-2.8,8.9c1.2,0.3,2.3,0.5,3.5,0.8c0.1,0,0.3,0.1,0.3,0c0.1-0.6,0.3-1.3,0.5-1.9
	c0,0,0.1-0.5,0.2-0.5c0.1,0,0.2,0.1,0.4,0.1c0.3,0.1,0.6,0.2,0.9,0.2c-0.5,1.9-1,3.9-1.2,5.9c-0.3,0-0.6-0.1-0.8-0.1
	c-0.1,0-0.3,0-0.4-0.1c-0.1,0,0-0.3,0-0.4c0.1-0.7,0.2-1.3,0.4-2c0-0.1-0.2-0.1-0.3-0.1c-1.2-0.2-2.4-0.5-3.6-0.7
	c-0.6,3.1-0.9,6.1-1,9.2c1.2,0,2.4,0.1,3.6,0.1c0.1,0,0.3,0.1,0.3-0.1c0-0.7,0-1.3,0.1-2c0,0,0-0.4,0-0.4c0.1,0,0.3,0,0.4,0
	c0.3,0,0.6,0,0.9,0.1c-0.1,1.5-0.2,3-0.1,4.5c0,0.5,0,1,0,1.5c0,0-1.2,0.1-1.3,0.1c0-0.6,0-1.1,0-1.7c0-0.2,0-0.5,0-0.7
	c0,0-0.3,0-0.3,0c-1.2,0-2.4,0-3.6,0c0.1,3.1,0.3,6.2,0.8,9.2c0,0,3.5-0.6,3.9-0.7c-0.1-0.8-0.3-1.6-0.4-2.4c0.2,0,0.4-0.1,0.6-0.1
	c0.1,0,0.6-0.1,0.6-0.1c0,0,0,0.3,0,0.3c0,0.3,0.1,0.6,0.1,0.8c0.1,0.6,0.2,1.2,0.3,1.8c0.1,0.6,0.2,1.2,0.4,1.8
	c0.1,0.3,0.1,0.5,0.2,0.8c0,0,0.1,0.3,0.1,0.4c-0.1,0.1-0.5,0.1-0.6,0.2c-0.2,0.1-0.4,0.1-0.6,0.2c-0.2-0.8-0.4-1.6-0.5-2.4
	c-0.8,0.2-1.6,0.3-2.3,0.5c-0.4,0.1-0.9,0.2-1.3,0.3c-0.1,0-0.2,0-0.2,0c0,0,0.2,0.9,0.2,0.9c0.5,2,1,4,1.7,5.9
	c0.1,0.2,0.7,2.1,0.8,2.1c0.3-0.1,0.5-0.2,0.8-0.3c1-0.4,1.9-0.7,2.9-1.1c-0.3-0.8-0.6-1.5-0.8-2.3c0.2-0.1,0.4-0.1,0.6-0.2
	c0.1,0,0.5-0.2,0.6-0.2c0,0,0.1,0.2,0.1,0.3c0.1,0.3,0.2,0.5,0.3,0.8c0.2,0.6,0.4,1.2,0.7,1.7c0.2,0.6,0.5,1.1,0.7,1.7
	c0.1,0.2,0.2,0.5,0.3,0.7c0,0,0.2,0.3,0.2,0.3c0,0.1-0.5,0.2-0.6,0.3c-0.2,0.1-0.4,0.2-0.6,0.3c-0.3-0.7-0.7-1.5-1-2.3
	c-0.7,0.3-1.5,0.6-2.2,0.9c-0.4,0.2-0.8,0.3-1.2,0.5c-0.1,0-0.1,0.1-0.2,0.1c0,0,0.3,0.8,0.4,0.9c0.8,1.9,1.7,3.7,2.8,5.5
	c0.1,0.2,1.1,1.9,1.2,1.9c0.2-0.2,0.5-0.3,0.7-0.5c0.9-0.5,1.7-1.1,2.6-1.6c-0.4-0.7-0.9-1.4-1.3-2.1c0.2-0.1,0.4-0.2,0.6-0.3
	c0.1-0.1,0.5-0.3,0.6-0.3c0,0,0.1,0.2,0.1,0.3c0.1,0.2,0.3,0.5,0.4,0.7c0.3,0.5,0.7,1,1,1.6c0.5,0.8,1.1,1.6,1.7,2.5
	c0,0-0.9,0.7-1,0.8c-0.5-0.7-1-1.3-1.4-2c-0.7,0.4-1.3,0.9-2,1.3c-0.4,0.2-0.7,0.5-1.1,0.7c-0.1,0-0.1,0.1-0.2,0.1
	c0,0,0.6,0.8,0.6,0.9c1.2,1.7,2.4,3.3,3.8,4.8c0.1,0.1,1.4,1.6,1.4,1.5c0.2-0.2,0.5-0.4,0.7-0.6c0.6-0.6,1.3-1.2,1.9-1.8
	c0.2-0.2,0.3-0.2,0-0.4c-0.5-0.5-1-1.1-1.5-1.6c0.2-0.2,0.5-0.4,0.7-0.6c0.1-0.1,0.2-0.2,0.3-0.2c0,0,0.3,0.4,0.4,0.4
	c0.7,0.8,1.4,1.6,2.2,2.3c0.5,0.5,1,1,1.5,1.5c0.2,0.2,0.1,0.2-0.1,0.4c-0.2,0.2-0.4,0.5-0.7,0.7c-0.4-0.4-0.8-0.8-1.2-1.2
	c-0.2-0.2-0.4-0.3-0.5-0.5c0,0-0.2,0.2-0.3,0.2c-0.9,0.9-1.7,1.7-2.6,2.6c2.3,2.1,4.6,4.2,7.1,6c0.7-1,1.4-2,2.1-3
	c0.1-0.1,0.2-0.2,0.1-0.3c-0.5-0.4-1-0.7-1.5-1.1c0,0-0.4-0.3-0.4-0.3c0.1-0.1,0.2-0.2,0.2-0.3c0.2-0.2,0.4-0.5,0.6-0.7
	c1.6,1.2,3.2,2.4,4.9,3.4c-0.1,0.2-0.3,0.5-0.4,0.7c-0.1,0.1-0.1,0.2-0.2,0.4c0,0.1-0.4-0.2-0.4-0.2c-0.5-0.3-1.1-0.7-1.6-1
	c-0.1,0-0.2,0.2-0.2,0.3c-0.7,1-1.3,2-2,3c1.3,0.8,2.6,1.6,4,2.4c1.3,0.8,2.8,1.4,4.2,2.1c0.5-1.1,1-2.2,1.5-3.3
	c0.1-0.1,0.2-0.3,0.1-0.3c-0.6-0.3-1.2-0.5-1.7-0.8c0,0-0.4-0.2-0.4-0.2c0.1-0.1,0.1-0.2,0.2-0.3c0.1-0.3,0.3-0.5,0.4-0.8
	c0.9,0.5,1.8,0.9,2.7,1.3c0.2,0.1,2.8,1.2,2.8,1.1c-0.1,0.3-0.2,0.5-0.3,0.8c0,0.1-0.1,0.3-0.1,0.4c0,0.1-0.3-0.1-0.4-0.1
	c-0.6-0.2-1.2-0.5-1.9-0.7c-0.1-0.1-0.1,0.1-0.2,0.3c-0.5,1.1-0.9,2.2-1.4,3.4c2.9,1.1,5.8,2.1,8.9,2.8c0.3-1.2,0.5-2.3,0.8-3.5
	c0-0.1,0.1-0.3,0-0.3c-0.6-0.1-1.3-0.3-1.9-0.5c0,0-0.5-0.1-0.5-0.2c0-0.1,0.1-0.2,0.1-0.4c0.1-0.3,0.2-0.6,0.2-0.9
	c1.9,0.5,3.9,1,5.9,1.2c0,0.3-0.1,0.6-0.1,0.8c0,0.1,0,0.3-0.1,0.4c0,0.1-0.3,0-0.4,0c-0.7-0.1-1.3-0.2-2-0.4
	c-0.1,0-0.1,0.2-0.1,0.3c-0.2,1.2-0.5,2.4-0.7,3.6c3.1,0.5,6.1,0.9,9.2,1c0-1.2,0.1-2.4,0.1-3.6c0-0.1,0.1-0.3-0.1-0.3
	c-0.7,0-1.3,0-2-0.1c0,0-0.4,0-0.4,0c0-0.1,0-0.3,0-0.4c0-0.3,0-0.6,0.1-0.9c1.5,0.1,3,0.2,4.5,0.1c0.5,0,1,0,1.5,0
	c0,0,0.1,1.2,0.1,1.3c-0.6,0-1.1,0-1.7,0c-0.2,0-0.5,0-0.7,0c0,0,0,0.3,0,0.3c0,1.2,0,2.4,0,3.6c3.1-0.1,6.2-0.3,9.2-0.8
	c0,0-0.6-3.5-0.7-3.9c-0.8,0.1-1.6,0.3-2.4,0.4c0-0.2-0.1-0.4-0.1-0.6c0-0.1-0.1-0.6-0.1-0.6c0,0,0.3,0,0.3,0c0.3,0,0.6-0.1,0.8-0.1
	c0.6-0.1,1.2-0.2,1.8-0.3c0.6-0.1,1.2-0.2,1.8-0.4c0.3-0.1,0.5-0.1,0.8-0.2c0,0,0.3-0.1,0.4-0.1c0.1,0.1,0.1,0.5,0.2,0.6
	c0.1,0.2,0.1,0.4,0.2,0.6c-0.8,0.2-1.6,0.4-2.4,0.5c0.2,0.8,0.3,1.6,0.5,2.3c0.1,0.4,0.2,0.9,0.3,1.3c0,0.1,0,0.2,0,0.2
	c0,0,0.9-0.2,0.9-0.2c2-0.5,4-1,5.9-1.7c0.2-0.1,2.1-0.7,2.1-0.8c-0.1-0.3-0.2-0.5-0.3-0.8c-0.4-1-0.7-1.9-1.1-2.9
	c-0.8,0.3-1.5,0.6-2.3,0.8c-0.1-0.2-0.1-0.4-0.2-0.6c0-0.1-0.2-0.5-0.2-0.6c0,0,0.2-0.1,0.3-0.1c0.3-0.1,0.5-0.2,0.8-0.3
	c0.6-0.2,1.2-0.4,1.7-0.7c0.6-0.2,1.1-0.5,1.7-0.7c0.2-0.1,0.5-0.2,0.7-0.3c0,0,0.3-0.2,0.3-0.2c0.1,0,0.2,0.5,0.3,0.6
	c0.1,0.2,0.2,0.4,0.3,0.6c-0.7,0.3-1.5,0.7-2.3,1c0.3,0.7,0.6,1.5,0.9,2.2c0.2,0.4,0.3,0.8,0.5,1.2c0,0.1,0.1,0.1,0.1,0.2
	c0,0,0.8-0.3,0.9-0.4c1.9-0.8,3.7-1.7,5.5-2.8c0.2-0.1,1.9-1.1,1.9-1.2c-0.2-0.2-0.3-0.5-0.5-0.7c-0.5-0.9-1.1-1.7-1.6-2.6
	c-0.7,0.4-1.4,0.9-2.1,1.3c-0.1-0.2-0.2-0.4-0.3-0.6c-0.1-0.1-0.3-0.5-0.3-0.6c0,0,0.2-0.1,0.3-0.1c0.2-0.1,0.5-0.3,0.7-0.4
	c0.5-0.3,1-0.7,1.6-1c0.9-0.5,1.6-1.1,2.5-1.7c0,0,0.7,0.9,0.8,1c-0.7,0.5-1.3,1-2,1.4c0.4,0.7,0.9,1.3,1.3,2
	c0.2,0.4,0.5,0.7,0.7,1.1c0,0.1,0.1,0.1,0.1,0.2c0,0,0.8-0.6,0.9-0.6c1.7-1.2,3.3-2.4,4.8-3.8c0.1-0.1,1.6-1.4,1.5-1.4
	c-0.2-0.2-0.4-0.5-0.6-0.7c-0.6-0.6-1.2-1.3-1.8-1.9c-0.2-0.2-0.2-0.3-0.4,0c-0.5,0.5-1.1,1-1.6,1.5c-0.2-0.2-0.4-0.5-0.6-0.7
	c-0.1-0.1-0.2-0.2-0.3-0.3c0,0,0.4-0.3,0.4-0.4c0.8-0.7,1.6-1.4,2.3-2.2c0.5-0.5,1-1,1.5-1.5c0.2-0.2,0.2-0.1,0.4,0.1
	c0.2,0.2,0.5,0.4,0.7,0.7c-0.4,0.4-0.8,0.8-1.2,1.2c-0.2,0.2-0.3,0.4-0.5,0.5c0,0,0.2,0.2,0.2,0.3c0.9,0.9,1.7,1.7,2.6,2.6
	c2.1-2.3,4.2-4.6,6-7.1c-1-0.7-2-1.4-3-2.1c-0.1-0.1-0.2-0.2-0.3-0.1c-0.4,0.5-0.7,1-1.1,1.5c0,0-0.3,0.4-0.3,0.4
	c-0.1-0.1-0.2-0.2-0.3-0.2c-0.2-0.2-0.5-0.4-0.7-0.6c1.2-1.6,2.4-3.2,3.4-4.9c0.2,0.1,0.5,0.3,0.7,0.4c0.1,0.1,0.2,0.1,0.4,0.2
	c0.1,0-0.2,0.4-0.2,0.4c-0.3,0.5-0.7,1.1-1,1.6c0,0.1,0.2,0.2,0.3,0.2c1,0.7,2,1.3,3,2c0.8-1.3,1.6-2.6,2.4-4
	c0.8-1.3,1.4-2.8,2.1-4.2c-1.1-0.5-2.2-1-3.3-1.5c-0.1,0-0.3-0.2-0.3-0.1c-0.3,0.6-0.5,1.2-0.8,1.7c0,0-0.2,0.4-0.2,0.4
	c-0.1-0.1-0.2-0.1-0.3-0.2c-0.3-0.1-0.5-0.3-0.8-0.4c0.5-0.9,0.9-1.8,1.3-2.7c0.2-0.6,0.5-1.1,0.7-1.7c0-0.1,0.4-1.1,0.4-1.1
	c0.3,0.1,0.5,0.2,0.8,0.3c0.1,0,0.3,0.1,0.4,0.1c0.1,0-0.1,0.3-0.1,0.4c-0.2,0.6-0.5,1.2-0.7,1.9c-0.1,0.1,0.1,0.1,0.3,0.2
	c1.1,0.5,2.2,0.9,3.4,1.4c1.1-2.9,2.1-5.8,2.8-8.9c-1.2-0.3-2.3-0.5-3.5-0.8c-0.1,0-0.3-0.1-0.3,0c-0.1,0.6-0.3,1.3-0.5,1.9
	c0,0-0.1,0.5-0.2,0.5c-0.1,0-0.2-0.1-0.4-0.1c-0.3-0.1-0.6-0.2-0.9-0.2c0.5-1.9,1-3.9,1.2-5.9c0.3,0,0.6,0.1,0.8,0.1
	c0.1,0,0.3,0,0.4,0.1c0.1,0,0,0.3,0,0.4c-0.1,0.7-0.2,1.3-0.4,2c0,0.1,0.2,0.1,0.3,0.1c1.2,0.2,2.4,0.5,3.6,0.7
	c0.5-3.1,0.9-6.1,1-9.2c-1.2,0-2.4-0.1-3.6-0.1c-0.1,0-0.3-0.1-0.3,0.1c0,0.7,0,1.3-0.1,2c0,0,0,0.4,0,0.4c-0.1,0-0.3,0-0.4,0
	c-0.3,0-0.6,0-0.9-0.1c0.1-1.5,0.2-3,0.1-4.5c0-0.5,0-1,0-1.5c0,0,1.2-0.1,1.3-0.1C201.6,134,201.6,134.8,201.7,135.7z M198.9,132.7
	c0.1,1.2,0.1,2.4,0.1,3.6c0,0.3-0.2,4-0.2,4c1.3,0.1,2.6,0.3,3.9,0.4c0-0.2,0.2-2.5,0.2-2.5c0.1,0,1.3,0,1.3,0.1
	c0,1.1-0.1,2.3-0.3,3.3c-0.1,1-0.3,2.1-0.4,3.1c0,0-1.2-0.2-1.3-0.2c0.1-0.8,0.3-1.7,0.4-2.5c-0.8-0.1-1.6-0.2-2.4-0.3
	c-0.4-0.1-0.9-0.1-1.3-0.2c-0.1,0-0.2,0-0.2,0c0,0-0.1,0.6-0.1,0.7c-0.3,2-0.6,4.1-1.2,6c-0.1,0.4-0.2,0.8-0.3,1.2
	c0,0.1-0.1,0.2,0,0.2c0.4,0.1,0.7,0.2,1.1,0.3c0.9,0.3,1.8,0.5,2.6,0.8c0.2-0.8,0.5-1.6,0.7-2.4c0.1,0,1.3,0.3,1.3,0.3
	c-0.2,1-0.5,2-0.8,3c-0.3,1.1-0.7,2.1-1.1,3.2c0,0-1.1-0.4-1.2-0.5c0.3-0.8,0.6-1.6,0.9-2.4c-0.8-0.2-1.5-0.5-2.3-0.7
	c-0.4-0.1-0.8-0.3-1.3-0.4c-0.1,0-0.1,0-0.2-0.1c0,0-0.2,0.6-0.2,0.6c-0.6,1.9-1.4,3.9-2.4,5.6c-0.2,0.4-0.4,0.7-0.5,1.1
	c-0.1,0.1-0.1,0.1,0,0.2c0.3,0.2,0.7,0.4,1,0.5c0.8,0.4,1.6,0.9,2.4,1.3c0.4-0.7,0.8-1.5,1.1-2.3c0.2,0.1,0.4,0.2,0.6,0.3
	c0.1,0.1,0.5,0.2,0.6,0.3c0,0.1-0.2,0.4-0.2,0.5c-0.1,0.3-0.3,0.5-0.4,0.8c-0.3,0.6-0.6,1.2-0.9,1.7c-0.5,0.9-1,1.8-1.6,2.7
	c0,0-1-0.6-1.1-0.7c0.5-0.7,0.9-1.4,1.3-2.2c-0.7-0.4-1.4-0.8-2.1-1.2c-0.4-0.2-0.8-0.4-1.2-0.7c-0.1,0-0.1-0.1-0.2-0.1
	c0,0-0.3,0.6-0.3,0.6c-1,1.7-2.1,3.4-3.4,5c-0.1,0.1-1,1.1-0.9,1.2c0.3,0.2,0.6,0.5,0.8,0.7c0.7,0.6,1.5,1.2,2.2,1.8
	c0.5-0.7,1.1-1.3,1.6-2c0.2,0.2,0.5,0.4,0.7,0.5c0.1,0.1,0.2,0.2,0.3,0.2c0,0-0.3,0.5-0.4,0.5c-0.9,1.2-1.9,2.4-2.9,3.5
	c-0.1,0.1-0.9,1-0.9,0.9c-0.3-0.2-0.5-0.5-0.8-0.7c0,0-0.2-0.2-0.2-0.2c0.2-0.2,0.4-0.4,0.5-0.6c0.4-0.4,0.8-0.9,1.2-1.3
	c-1-0.9-2-1.7-3-2.6c0,0-2.2,2.4-2.4,2.6c-1.1,1.1-2.2,2.2-3.4,3.1c0.8,0.9,1.5,1.9,2.3,2.8c0.1,0.1,0.1,0.3,0.3,0.2
	c0.5-0.4,1-0.9,1.5-1.3c0,0,0.3-0.3,0.3-0.3c0.1,0.1,0.2,0.2,0.2,0.3c0.2,0.2,0.4,0.5,0.6,0.7c-1.6,1.4-3.3,2.8-5.1,4
	c-0.2-0.2-0.3-0.5-0.5-0.7c-0.1-0.1-0.2-0.2-0.2-0.3c0,0,0.2-0.2,0.3-0.2c0.5-0.4,1.1-0.8,1.6-1.2c0.2-0.2,0.1-0.2,0-0.4
	c-0.7-1-1.5-1.9-2.2-2.9c-1.1,0.8-2.2,1.6-3.3,2.4c-1.1,0.7-2.3,1.5-3.5,2.1c0.6,1.1,1.2,2.1,1.7,3.2c0.1,0.1,0.1,0.3,0.2,0.2
	c0.6-0.3,1.2-0.7,1.8-1c0,0,0.3-0.2,0.3-0.2c0.1,0.1,0.1,0.2,0.2,0.3c0.2,0.3,0.3,0.5,0.5,0.8c-1.9,1.1-3.8,2.1-5.8,3
	c-0.1-0.3-0.2-0.5-0.3-0.8c-0.1-0.1-0.1-0.3-0.2-0.4c0-0.1,0.2-0.1,0.2-0.1c0.6-0.3,1.2-0.5,1.8-0.8c0.3-0.1,0.3-0.1,0.1-0.4
	c-0.6-1.1-1.1-2.2-1.7-3.3c-2.4,1.2-5,2.3-7.6,3c0.4,1.2,0.7,2.3,1.1,3.5c0,0.2,0,0.3,0.2,0.3c0.7-0.2,1.3-0.4,2-0.7
	c0,0,0.3-0.1,0.3-0.1c0,0.1,0.1,0.2,0.1,0.4c0.1,0.3,0.2,0.6,0.3,0.9c-2.1,0.7-4.1,1.3-6.2,1.8c-0.1-0.3-0.1-0.6-0.2-0.9
	c0-0.1-0.1-0.3-0.1-0.4c0,0,0.3-0.1,0.3-0.1c0.6-0.2,1.3-0.3,1.9-0.5c0.2-0.1,0.2-0.1,0.1-0.3c-0.3-1.2-0.6-2.3-1-3.5
	c-1.3,0.4-2.6,0.7-4,0.9c-1.3,0.2-2.7,0.5-4,0.6c0.1,1.2,0.2,2.4,0.4,3.6c0,0.2,0,0.3,0.1,0.3c0.7-0.1,1.3-0.2,2-0.2
	c0,0,0.4-0.1,0.4-0.1c0,0.1,0,0.2,0.1,0.4c0,0.3,0.1,0.6,0.1,0.9c-2.2,0.3-4.3,0.5-6.5,0.5c0-0.3,0-0.6,0-0.9c0-0.1,0-0.3,0-0.4
	c0,0,0.3,0,0.3,0c0.7,0,1.3,0,2-0.1c0.2,0,0.2,0,0.2-0.3c-0.1-1.2-0.2-2.5-0.3-3.7c-2.7,0.2-5.4,0.1-8.2-0.1c0,0-0.4,3.6-0.4,3.9
	c0.2,0,2.5,0.2,2.5,0.2c0,0.1,0,1.3-0.1,1.3c-1.1,0-2.3-0.1-3.3-0.3c-1-0.1-2.1-0.3-3.1-0.4c0,0,0.2-1.2,0.2-1.3
	c0.8,0.2,1.7,0.3,2.5,0.4c0.1-0.8,0.2-1.6,0.3-2.4c0.1-0.4,0.1-0.9,0.2-1.3c0-0.1,0-0.2,0-0.2c0,0-0.6-0.1-0.7-0.1
	c-2-0.3-4.1-0.6-6-1.2c-0.4-0.1-0.8-0.2-1.2-0.3c-0.1,0-0.2-0.1-0.2,0c-0.1,0.4-0.2,0.7-0.3,1.1c-0.3,0.9-0.5,1.8-0.8,2.6
	c0.8,0.2,1.6,0.5,2.4,0.7c0,0.1-0.3,1.3-0.3,1.3c-1-0.2-2-0.5-3-0.8c-1.1-0.3-2.1-0.7-3.2-1.1c0,0,0.4-1.1,0.5-1.2
	c0.8,0.3,1.6,0.6,2.4,0.9c0.2-0.8,0.5-1.5,0.7-2.3c0.1-0.4,0.3-0.8,0.4-1.3c0-0.1,0-0.1,0.1-0.2c0,0-0.6-0.2-0.6-0.2
	c-1.9-0.6-3.9-1.4-5.6-2.4c-0.4-0.2-0.7-0.4-1.1-0.5c-0.1-0.1-0.1-0.1-0.2,0c-0.2,0.3-0.4,0.7-0.5,1c-0.4,0.8-0.9,1.6-1.3,2.4
	c0.7,0.4,1.5,0.8,2.3,1.1c-0.1,0.1-0.5,1.2-0.6,1.2c-1-0.5-2-1-3-1.5c-0.9-0.5-1.8-1-2.7-1.6c0,0,0.6-1,0.7-1.1
	c0.7,0.5,1.4,0.9,2.2,1.3c0.4-0.7,0.8-1.4,1.2-2.1c0.2-0.4,0.4-0.8,0.7-1.2c0-0.1,0.1-0.1,0.1-0.2c0,0-0.6-0.3-0.6-0.3
	c-1.7-1-3.4-2.1-5-3.4c-0.1-0.1-1.1-1-1.2-0.9c-0.2,0.3-0.5,0.6-0.7,0.8c-0.6,0.7-1.2,1.5-1.8,2.2c0.7,0.5,1.3,1.1,2,1.6
	c-0.2,0.2-0.4,0.5-0.5,0.7c-0.1,0.1-0.2,0.2-0.2,0.3c0,0-0.5-0.3-0.5-0.4c-1.2-0.9-2.4-1.9-3.5-2.9c-0.1-0.1-1-0.9-0.9-0.9
	c0.2-0.3,0.5-0.5,0.7-0.8c0,0,0.2-0.2,0.2-0.2c0.2,0.2,0.4,0.4,0.6,0.5c0.4,0.4,0.9,0.8,1.3,1.2c0.9-1,1.7-2,2.6-3
	c0,0-2.4-2.2-2.6-2.4c-1.1-1.1-2.2-2.2-3.1-3.4c-0.9,0.8-1.9,1.5-2.8,2.3c-0.1,0.1-0.3,0.1-0.2,0.3c0.4,0.5,0.9,1,1.3,1.5
	c0,0,0.3,0.3,0.3,0.3c-0.1,0.1-0.2,0.2-0.3,0.2c-0.2,0.2-0.5,0.4-0.7,0.6c-1.4-1.6-2.8-3.3-4-5.1c0.2-0.2,0.5-0.3,0.7-0.5
	c0.1-0.1,0.2-0.2,0.3-0.2c0,0,0.2,0.2,0.2,0.3c0.4,0.5,0.8,1.1,1.2,1.6c0.2,0.2,0.2,0.1,0.4,0c1-0.7,1.9-1.5,2.9-2.2
	c-0.8-1.1-1.6-2.2-2.4-3.3c-0.7-1.1-1.5-2.3-2.1-3.5c-1.1,0.6-2.1,1.1-3.2,1.7c-0.1,0.1-0.3,0.1-0.2,0.2c0.3,0.6,0.7,1.2,1,1.8
	c0,0,0.2,0.3,0.2,0.3c-0.1,0.1-0.2,0.1-0.3,0.2c-0.3,0.2-0.5,0.3-0.8,0.5c-1.1-1.9-2.1-3.8-3-5.8c0.3-0.1,0.5-0.2,0.8-0.4
	c0.1-0.1,0.2-0.1,0.4-0.2c0,0,0.1,0.3,0.2,0.3c0.3,0.6,0.6,1.2,0.9,1.8c0.1,0.2,0.1,0.1,0.4,0c1.1-0.5,2.2-1.1,3.3-1.6
	c-1.2-2.4-2.3-5-3-7.6c-1.2,0.4-2.3,0.7-3.5,1.1c-0.2,0-0.3,0-0.3,0.2c0.2,0.6,0.4,1.3,0.6,1.9c0,0,0.1,0.4,0.1,0.4
	c-0.1,0-0.2,0.1-0.3,0.1c-0.3,0.1-0.6,0.2-0.9,0.3c-0.7-2.1-1.3-4.1-1.8-6.2c0.3-0.1,0.6-0.1,0.9-0.2c0.1,0,0.3-0.1,0.4-0.1
	c0,0,0.1,0.3,0.1,0.3c0.2,0.7,0.3,1.3,0.5,1.9c0.1,0.2,0.1,0.2,0.3,0.1c1.2-0.3,2.3-0.6,3.5-1c-0.4-1.3-0.7-2.6-0.9-4
	c-0.2-1.3-0.5-2.7-0.6-4c-1.2,0.1-2.4,0.2-3.6,0.4c-0.2,0-0.3,0-0.3,0.1c0.1,0.7,0.2,1.3,0.2,2c0,0,0.1,0.4,0.1,0.4
	c-0.1,0-0.2,0-0.4,0.1c-0.3,0-0.6,0.1-0.9,0.1c-0.3-2.2-0.5-4.3-0.5-6.5c0.3,0,0.6,0,0.9,0c0.1,0,0.3,0,0.4,0c0,0,0,0.3,0,0.3
	c0,0.7,0,1.3,0.1,2c0,0.2,0,0.2,0.3,0.2c1.2-0.1,2.5-0.2,3.7-0.3c-0.2-2.7-0.1-5.4,0.1-8.2c0,0-3.6-0.4-3.9-0.4
	c0,0.2-0.2,2.5-0.2,2.5c-0.1,0-1.3,0-1.3-0.1c0-1.1,0.1-2.3,0.3-3.3c0.1-1,0.3-2.1,0.4-3.1c0,0,1.2,0.2,1.3,0.2
	c-0.1,0.8-0.3,1.7-0.4,2.5c0.8,0.1,1.6,0.2,2.4,0.3c0.4,0.1,0.9,0.1,1.3,0.2c0.1,0,0.2,0,0.2,0c0,0,0.1-0.6,0.1-0.7
	c0.3-2,0.6-4.1,1.2-6c0.1-0.4,0.2-0.8,0.3-1.2c0-0.1,0.1-0.2,0-0.2c-0.4-0.1-0.7-0.2-1.1-0.3c-0.9-0.3-1.8-0.5-2.6-0.8
	c-0.2,0.8-0.5,1.6-0.7,2.4c-0.1,0-1.3-0.3-1.3-0.3c0.2-1,0.5-2,0.8-3c0.3-1.1,0.7-2.1,1.1-3.2c0,0,1.1,0.4,1.2,0.4
	c-0.3,0.8-0.6,1.6-0.9,2.4c0.8,0.2,1.5,0.5,2.3,0.7c0.4,0.1,0.8,0.3,1.3,0.4c0.1,0,0.1,0,0.2,0.1c0,0,0.2-0.6,0.2-0.6
	c0.6-1.9,1.4-3.9,2.4-5.6c0.2-0.4,0.4-0.7,0.5-1.1c0.1-0.1,0.1-0.1,0-0.2c-0.3-0.2-0.7-0.4-1-0.5c-0.8-0.4-1.6-0.9-2.4-1.3
	c-0.4,0.7-0.8,1.5-1.1,2.3c-0.1-0.1-1.2-0.5-1.2-0.6c0.5-1,1-2,1.5-3c0.5-0.9,1-1.8,1.6-2.7c0,0,1,0.6,1.1,0.7
	c-0.5,0.7-0.9,1.4-1.3,2.2c0.7,0.4,1.4,0.8,2.1,1.2c0.4,0.2,0.8,0.4,1.2,0.7c0.1,0,0.1,0.1,0.2,0.1c0,0,0.3-0.6,0.3-0.6
	c1-1.7,2.1-3.4,3.4-5c0.1-0.1,1-1.1,0.9-1.2c-0.3-0.2-0.6-0.5-0.8-0.7c-0.7-0.6-1.5-1.2-2.2-1.8c-0.5,0.7-1.1,1.3-1.6,2
	c-0.2-0.2-0.5-0.4-0.7-0.5c-0.1-0.1-0.2-0.2-0.3-0.2c0,0,0.3-0.5,0.4-0.5c0.9-1.2,1.9-2.4,2.9-3.5c0.1-0.1,0.9-1,0.9-0.9
	c0.3,0.2,0.5,0.5,0.8,0.7c0,0,0.2,0.2,0.2,0.2c-0.2,0.2-0.4,0.4-0.5,0.6c-0.4,0.4-0.8,0.9-1.2,1.3c1,0.9,2,1.7,3,2.6
	c0,0,2.2-2.4,2.4-2.6c1.1-1.1,2.2-2.2,3.4-3.1c-0.8-0.9-1.5-1.9-2.3-2.8c-0.1-0.1-0.1-0.3-0.3-0.2c-0.5,0.4-1,0.9-1.5,1.3
	c0,0-0.3,0.3-0.3,0.3c-0.1-0.1-0.2-0.2-0.2-0.3c-0.2-0.2-0.4-0.5-0.6-0.7c1.6-1.4,3.3-2.8,5.1-4c0.2,0.2,0.3,0.5,0.5,0.7
	c0.1,0.1,0.2,0.2,0.2,0.3c0,0-0.2,0.2-0.3,0.2c-0.5,0.4-1.1,0.8-1.6,1.2c-0.2,0.2-0.1,0.2,0,0.4c0.7,1,1.5,1.9,2.2,2.9
	c1.1-0.8,2.2-1.6,3.3-2.4c1.1-0.7,2.3-1.5,3.5-2.1c-0.6-1.1-1.1-2.1-1.7-3.2c-0.1-0.1-0.1-0.3-0.2-0.2c-0.6,0.3-1.2,0.7-1.8,1
	c0,0-0.3,0.2-0.3,0.2c-0.1-0.1-0.1-0.2-0.2-0.3c-0.2-0.3-0.3-0.5-0.5-0.8c1.9-1.1,3.8-2.1,5.8-3c0.1,0.3,0.2,0.5,0.4,0.8
	c0.1,0.1,0.1,0.2,0.2,0.4c0,0-0.3,0.1-0.3,0.2c-0.6,0.3-1.2,0.6-1.8,0.9c-0.2,0.1-0.1,0.1,0,0.4c0.5,1.1,1.1,2.2,1.6,3.3
	c2.4-1.2,5-2.3,7.6-3c-0.4-1.2-0.7-2.3-1.1-3.5c0-0.2,0-0.3-0.2-0.3c-0.6,0.2-1.3,0.4-1.9,0.6c0,0-0.4,0.1-0.4,0.1
	c0-0.1-0.1-0.2-0.1-0.3c-0.1-0.3-0.2-0.6-0.3-0.9c2.1-0.7,4.1-1.3,6.2-1.8c0.1,0.3,0.1,0.6,0.2,0.9c0,0.1,0.1,0.3,0.1,0.4
	c0,0-0.3,0.1-0.3,0.1c-0.6,0.2-1.3,0.3-1.9,0.5c-0.2,0.1-0.2,0.1-0.1,0.3c0.3,1.2,0.6,2.3,1,3.5c1.3-0.4,2.6-0.7,4-0.9
	c1.3-0.2,2.7-0.5,4-0.6c-0.1-1.2-0.2-2.4-0.4-3.6c0-0.2,0-0.3-0.1-0.3c-0.7,0.1-1.3,0.2-2,0.2c0,0-0.4,0.1-0.4,0.1
	c0-0.1,0-0.2-0.1-0.4c0-0.3-0.1-0.6-0.1-0.9c2.2-0.3,4.3-0.5,6.5-0.5c0,0.3,0,0.6,0,0.9c0,0.1,0,0.3,0,0.4c0,0-0.3,0-0.3,0
	c-0.7,0-1.3,0-2,0.1c-0.2,0-0.2,0-0.2,0.3c0.1,1.2,0.2,2.5,0.3,3.7c2.7-0.2,5.4-0.1,8.2,0.1c0,0,0.4-3.6,0.4-3.9
	c-0.2,0-2.5-0.2-2.5-0.2c0-0.1,0-1.3,0.1-1.3c1.1,0,2.3,0.1,3.3,0.3c1,0.1,2.1,0.3,3.1,0.4c0,0-0.2,1.2-0.2,1.3
	c-0.8-0.1-1.7-0.3-2.5-0.4c-0.1,0.8-0.2,1.6-0.3,2.4c-0.1,0.4-0.1,0.9-0.2,1.3c0,0.1,0,0.2,0,0.2c0,0,0.6,0.1,0.7,0.1
	c2,0.3,4.1,0.6,6,1.2c0.4,0.1,0.8,0.2,1.2,0.3c0.1,0,0.2,0.1,0.2,0c0.1-0.4,0.2-0.7,0.3-1.1c0.3-0.9,0.5-1.8,0.8-2.6
	c-0.8-0.2-1.6-0.5-2.4-0.7c0-0.1,0.3-1.3,0.3-1.3c1,0.2,2,0.5,3,0.8c1.1,0.3,2.1,0.7,3.2,1.1c0,0-0.4,1.1-0.4,1.2
	c-0.8-0.3-1.6-0.6-2.4-0.9c-0.2,0.8-0.5,1.5-0.7,2.3c-0.1,0.4-0.3,0.8-0.4,1.3c0,0.1,0,0.1-0.1,0.2c0,0,0.6,0.2,0.6,0.2
	c1.9,0.6,3.9,1.4,5.6,2.4c0.4,0.2,0.7,0.4,1.1,0.5c0.1,0.1,0.1,0.1,0.2,0c0.2-0.3,0.4-0.7,0.5-1c0.4-0.8,0.9-1.6,1.3-2.4
	c-0.7-0.4-1.5-0.8-2.3-1.1c0.1-0.1,0.5-1.2,0.6-1.2c1,0.5,2,1,3,1.5c0.9,0.5,1.8,1,2.7,1.6c0,0-0.6,1-0.7,1.1
	c-0.7-0.5-1.4-0.9-2.2-1.3c-0.4,0.7-0.8,1.4-1.2,2.1c-0.2,0.4-0.4,0.8-0.7,1.2c0,0.1-0.1,0.1-0.1,0.2c0,0,0.6,0.3,0.6,0.3
	c1.7,1,3.4,2.1,5,3.4c0.1,0.1,1.1,1,1.2,0.9c0.2-0.3,0.5-0.6,0.7-0.8c0.6-0.7,1.2-1.5,1.8-2.2c-0.7-0.5-1.3-1.1-2-1.6
	c0.2-0.2,0.4-0.5,0.5-0.7c0.1-0.1,0.2-0.2,0.2-0.3c0,0,0.5,0.3,0.5,0.4c1.2,0.9,2.4,1.9,3.5,2.9c0.1,0.1,1,0.9,0.9,0.9
	c-0.2,0.3-0.5,0.5-0.7,0.8c0,0-0.2,0.2-0.2,0.2c-0.2-0.2-0.4-0.4-0.6-0.5c-0.4-0.4-0.9-0.8-1.3-1.2c-0.9,1-1.7,2-2.6,3
	c0,0,2.4,2.2,2.6,2.4c1.1,1.1,2.2,2.2,3.1,3.4c0.9-0.8,1.9-1.5,2.8-2.3c0.1-0.1,0.3-0.1,0.2-0.3c-0.4-0.5-0.9-1-1.3-1.5
	c0,0-0.3-0.3-0.3-0.3c0.1-0.1,0.2-0.2,0.3-0.2c0.2-0.2,0.5-0.4,0.7-0.6c1.4,1.6,2.8,3.3,4,5.1c-0.2,0.2-0.5,0.3-0.7,0.5
	c-0.1,0.1-0.2,0.2-0.3,0.2c0,0-0.2-0.2-0.2-0.3c-0.4-0.5-0.8-1.1-1.2-1.6c-0.2-0.2-0.2-0.1-0.4,0c-1,0.7-1.9,1.5-2.9,2.2
	c0.8,1.1,1.6,2.2,2.4,3.3c0.7,1.1,1.5,2.3,2.1,3.5c1.1-0.6,2.1-1.1,3.2-1.7c0.1-0.1,0.3-0.1,0.2-0.2c-0.3-0.6-0.7-1.2-1-1.8
	c0,0-0.2-0.3-0.2-0.3c0.1-0.1,0.2-0.1,0.3-0.2c0.3-0.2,0.5-0.3,0.8-0.5c1.1,1.9,2.1,3.8,3,5.8c-0.3,0.1-0.5,0.2-0.8,0.3
	c-0.1,0.1-0.3,0.1-0.4,0.2c-0.1,0-0.1-0.2-0.1-0.2c-0.3-0.6-0.5-1.2-0.8-1.8c-0.1-0.3-0.1-0.3-0.4-0.1c-1.1,0.6-2.2,1.1-3.3,1.7
	c1.2,2.4,2.3,5,3,7.6c1.2-0.4,2.3-0.7,3.5-1.1c0.2,0,0.3,0,0.3-0.2c-0.2-0.7-0.4-1.3-0.7-2c0,0-0.1-0.3-0.1-0.3
	c0.1,0,0.2-0.1,0.4-0.1c0.3-0.1,0.6-0.2,0.9-0.3c0.7,2.1,1.3,4.1,1.8,6.2c-0.3,0.1-0.6,0.1-0.9,0.2c-0.1,0-0.3,0.1-0.4,0.1
	c0,0-0.1-0.3-0.1-0.3c-0.2-0.6-0.3-1.3-0.5-1.9c-0.1-0.2-0.1-0.2-0.3-0.1c-1.2,0.3-2.3,0.6-3.5,1c0.4,1.3,0.7,2.6,0.9,4
	c0.2,1.3,0.5,2.7,0.6,4c1.2-0.1,2.4-0.2,3.6-0.4c0.2,0,0.3,0,0.3-0.1c-0.1-0.7-0.2-1.3-0.2-2c0,0-0.1-0.4-0.1-0.4
	c0.1,0,0.2,0,0.4-0.1c0.3,0,0.6-0.1,0.9-0.1c0.3,2.2,0.5,4.3,0.5,6.5c-0.3,0-0.6,0-0.9,0c-0.1,0-0.3,0-0.4,0c0,0,0-0.3,0-0.3
	c0-0.7,0-1.3-0.1-2c0-0.2,0-0.2-0.3-0.2c-1.2,0.1-2.4,0.2-3.7,0.3C198.9,132.3,198.9,132.5,198.9,132.7
	C198.9,132.9,198.9,132.4,198.9,132.7z"/>
<g>
	<g>
		<path d="M109,151.9c-1.6-4.7-2.9-10.9-2.9-16.2c0-21.4,16.9-39.8,36.9-44.5l-3.3-11.1c-24.5,6.1-45.2,29.1-44.6,55.6
			c0.2,6.3,1.5,13.9,3.4,19.6L109,151.9z"/>
		<path class="st2" d="M97.8,156.5l-0.3-0.9c-1.9-5.7-3.3-13.5-3.4-19.9c-0.7-25.7,18.8-50,45.3-56.6l0.9-0.2l3.8,13.1l-1,0.2
			c-20.6,4.9-36.1,23.6-36.1,43.5c0,4.8,1.1,10.9,2.8,15.8l0.3,1L97.8,156.5z M139,81.3c-25.1,6.7-43.5,30-42.9,54.4
			c0.1,5.8,1.3,12.9,3,18.3l8.6-2.8c-1.6-5-2.6-10.8-2.6-15.5c0-20.5,15.7-39.8,36.6-45.2L139,81.3z"/>
	</g>
	<g>
		<path d="M161.1,91.4c20.2,4.6,35.7,22.8,35.7,44.4c0,5.3-0.9,10.4-2.6,15.2c2.6,1.1,7.4,3,10.2,4.1c2.2-6,3.3-12.5,3.4-19.3
			c0.3-26.7-19.2-48.9-43.6-55.1C163.2,83.5,162.2,88.3,161.1,91.4z"/>
		<path class="st2" d="M205,156.4l-1-0.4c-2.7-1.1-7.6-3-10.2-4.1l-0.9-0.4l0.3-0.9c1.7-4.8,2.6-9.8,2.6-14.9
			c0-20.5-14.7-38.8-34.9-43.4l-1.1-0.2l0.4-1.1c0.5-1.5,1-3.4,1.5-5.3c0.5-2,1-3.9,1.6-5.4l0.3-0.9l0.9,0.2
			c26,6.6,44.6,30.1,44.3,56.1c-0.1,7-1.2,13.6-3.5,19.7L205,156.4z M195.4,150.4c2.4,1,5.9,2.4,8.3,3.4c1.9-5.6,2.9-11.7,3-18
			c0.3-24.7-17.3-47.2-41.9-53.9c-0.4,1.3-0.8,2.9-1.2,4.4c-0.4,1.5-0.8,3.1-1.2,4.4c20.6,5.2,35.4,24,35.4,45.1
			C197.8,140.7,197,145.6,195.4,150.4z"/>
	</g>
	<g>
		<path d="M168.6,177.7c-5.3,2.2-11.1,3.4-17.2,3.4c-5.5,0-10.8-1-15.7-2.8l-3.8,10.3c6.1,2.2,12.6,3.4,19.4,3.4
			c7.7,0,15-1.5,21.7-4.3C172.1,185.4,170.1,180.9,168.6,177.7z"/>
		<path class="st2" d="M151.4,193.1c-6.8,0-13.4-1.2-19.8-3.5l-0.9-0.3l4.5-12.2l0.9,0.3c4.9,1.8,10,2.7,15.3,2.7
			c5.8,0,11.5-1.1,16.8-3.3l0.9-0.4l0.4,0.9c1.4,3.2,3.5,7.7,4.5,10l0.4,0.9l-0.9,0.4C166.5,191.6,159.1,193.1,151.4,193.1z
			 M133.3,188c5.8,2,11.9,3,18.1,3c7,0,13.9-1.3,20.4-3.9c-1-2.2-2.5-5.5-3.7-8.2c-5.3,2.1-10.9,3.1-16.7,3.1
			c-5.2,0-10.2-0.8-15.1-2.5L133.3,188z"/>
	</g>
</g>
<g>
	<g>
		<polygon class="st2" points="142.1,184.5 143.1,183.3 137.6,181.9 136.7,185.3 140.8,186.3 139.9,187.3 136.2,186.5 136.6,188 
			140.3,188.9 142.5,186.4 142.7,185.3 138.5,184.2 138.6,183.7 		"/>
		<polygon class="st2" points="144.3,189.7 145.8,189.8 147.9,186.4 149.4,190 150.9,190.2 148.1,183.3 		"/>
		<polygon class="st2" points="159.3,183.4 153.6,183.9 154,189 152.2,190.2 157.5,189.7 155.5,188.9 155.3,187.2 158.2,186.9 
			158.8,185.4 155.2,185.7 155.1,185.2 158.7,184.9 		"/>
		<polygon class="st2" points="163.6,187.2 164,185.4 162.8,184 166,183.2 166.3,181.6 160.8,183 161,184.1 162.5,185.8 162,187.9 
			162.3,189 167.1,187.8 167.5,186.2 		"/>
	</g>
	<path class="st2" d="M103.6,147.2l-1.1,0.2l-0.4-2.1l1.6-1.3l0.3-0.4l0.2,0l-0.3-1.4l-1.1,0.2l0.1,0.5l-1.5,1.2l-1.5-0.4l-2.1,1.7
		l0.9,4.3l5.2-1.1l1.4,1.7l-1.1-5.2L103.6,147.2z M99.9,148l-0.4-2.1l0.9-0.7l0.3,0.1l0.5,2.4L99.9,148z"/>
	<polygon class="st2" points="100.3,139.7 102.3,140.6 103.4,140.5 103.2,135.5 101.7,134.8 101.9,138.9 100.2,138.1 98.6,139 
		98.4,135.7 96.9,135 97.2,140.8 98.4,140.8 	"/>
	<polygon class="st2" points="101,128.7 102.2,129.5 101.8,133.3 103.4,132.7 103.8,128.8 100.9,127 99.8,126.8 99.3,131.3 
		98.7,131.2 99.1,127.6 97.7,126.7 97.1,132.5 100.6,132.9 	"/>
	<path class="st2" d="M102.3,122.8l0.9-3.2l-1.5-1.3l-1.9,0.4l-1.3,4.6l5.1,1.4l0.4,2.1l1.5-5.2l-1.5,1.6L102.3,122.8z M100.3,122.2
		l0.7-2.4l0.3-0.1l0.2,0.2l-0.7,2.4L100.3,122.2z"/>
	<polygon class="st2" points="106.1,115.8 105,114.3 103.1,114.4 104.5,111.3 103.5,110 101.1,115.3 102.1,115.8 104.3,115.7 
		105.7,117.4 106.7,117.9 108.9,113.3 107.9,112 	"/>
	<polygon class="st2" points="109.7,109.1 107.9,108.9 106.9,107.3 108.9,104.3 107.7,103.5 105.3,107.2 107,110.2 110.5,110.6 
		112.9,107 111.7,106.2 	"/>
	<polygon class="st2" points="112.9,99.8 114.2,98.2 113.1,97.2 109.4,101.4 110.5,102.4 111.9,100.8 114.7,103.4 114.1,105.5 
		117.7,101.5 115.7,102.3 	"/>
	<polygon class="st2" points="119.1,96.8 121.3,94.9 121,93.3 118.1,95.6 117.8,95.2 120.6,92.9 120.2,91.3 115.7,94.9 119,99.1 
		118.1,101 122.3,97.7 120.2,98.1 	"/>
	<polygon class="st2" points="133.5,85.7 135,84.2 129.9,85.9 132.1,86.2 133.8,91.2 138,89.7 138.2,88.1 134.7,89.3 	"/>
	<path class="st2" d="M171.7,85.6l-4.1-1.5l-1.8,5l-2.2,0.3l5,1.8l-1.5-1.6l0.4-1l2,0.7l0.2,2l0.2,0.4l-0.1,0.2l1.4,0.5l0.4-1.1
		l-0.5-0.2l-0.2-1.9l1.1-1.1L171.7,85.6z M170.5,87.8l-0.2,0.2l-2.3-0.8l0.4-1.2l2,0.7L170.5,87.8z"/>
	<polygon class="st2" points="176.1,91.2 176.2,89.3 179.2,91 180.5,90 175.4,87.2 174.8,88.2 174.8,90.4 172.9,91.7 172.4,92.7 
		176.8,95.2 178.2,94.2 174.6,92.2 	"/>
	<polygon class="st2" points="185.6,96.3 182,93.6 182.4,93.2 185.3,95.4 186.7,94.6 182.1,91.1 180,93.9 183.3,96.5 182,97.1 
		179,94.8 178.7,96.4 181.8,98.8 184.9,97.3 	"/>
	<path class="st2" d="M189.7,102.5l1.9-0.6l0.7-1.9l-3.3-3.4l-3.8,3.7l-2.1-0.7l3.7,3.8l-0.7-2.1l1.3-1.2L189.7,102.5z M188.9,98.7
		l1.7,1.8l-0.1,0.3l-0.3,0.1l-1.7-1.8L188.9,98.7z"/>
	<path class="st2" d="M196.7,106l-2.1-2.9l-3.5,0.5l-1.6,3.1l2.1,2.9l3.5-0.5L196.7,106z M195,106.2l-0.9,1.6l-1.8,0.3l-1.1-1.6
		l0.9-1.6l1.8-0.3L195,106.2z"/>
	<polygon class="st2" points="202.1,123 200.7,118.8 201.3,118.6 202.4,122.1 204,122.3 202.2,116.8 198.9,117.8 200.2,121.9 
		198.8,121.6 197.6,118 196.4,119.2 197.6,122.9 201,123.4 	"/>
	<polygon class="st2" points="199.4,126.1 198,124.4 199,129 199.7,127.5 203.9,126.7 205.2,128.4 204.2,123.2 203.6,125.3 	"/>
	<path class="st2" d="M199.4,135l3.2,1.3l1-0.6l-0.1-0.9l1.1-0.1l0.9-0.6l-0.3-4.4l-6.2,0.5L199.4,135z M203.4,131.4l0.6,0l0.1,2
		l-0.6,0L203.4,131.4z M202.2,134.6l-1.3-0.5l-0.2-2.4l1.3-0.1L202.2,134.6z"/>
	<polygon class="st2" points="204.7,138.3 199.4,137.9 199.1,142.3 200.5,143.1 200.7,139.4 204.6,139.7 205.4,141.7 205.8,136.4 	
		"/>
	<polygon class="st2" points="201.6,145.6 199.9,144.2 198.8,144 197.7,148.9 199,150 199.9,146 201.3,147.1 203.1,146.7 202.4,150 
		203.7,151 204.9,145.3 203.8,145.1 	"/>
	<polygon class="st2" points="200,111.8 199.7,113.2 199.6,113.2 199.6,113.2 197.3,114.4 199.7,111.2 199.4,110.6 199.3,110.4 
		199,109.7 194.2,112.1 192.5,110.8 194.5,114.9 194.9,113.4 197,112.4 197.2,112.3 194.9,115.3 194.9,115.3 194.8,115.4 
		194.9,115.6 194.9,115.6 195.1,116.1 195.3,116.3 195.6,116.9 200.3,114.5 202,115.8 	"/>
	<polygon class="st2" points="130.1,90.9 128.4,87.7 129.6,85.9 126,87.9 126,87.9 125.7,88.1 127.1,88.4 128.8,91.4 128.8,91.9 
		126.8,93 126.4,92.7 124.8,89.7 125.1,88.4 121.3,90.5 123.5,90.4 125.2,93.6 126.8,94.6 130.2,92.8 	"/>
</g>
<path class="st0" d="M53.8,84.2c0,0-13.9,9.8-10.9,29.4c0.1-0.1,0.2-8.2,2-11.2c0,0-0.3,4.8,1.1,7.8C45.9,110.2,46.6,94.1,53.8,84.2
	z"/>
<path class="st0" d="M151.4,193.1c-31.6,0-57.3-25.7-57.3-57.3s25.7-57.3,57.3-57.3s57.3,25.7,57.3,57.3S183.1,193.1,151.4,193.1z
	 M151.4,80.4c-30.5,0-55.3,24.8-55.3,55.3c0,30.5,24.8,55.3,55.3,55.3s55.3-24.8,55.3-55.3C206.8,105.2,182,80.4,151.4,80.4z
	 M151.4,182.1c-25.6,0-46.4-20.8-46.4-46.4s20.8-46.4,46.4-46.4s46.4,20.8,46.4,46.4S177,182.1,151.4,182.1z M151.4,91.4
	c-24.5,0-44.4,19.9-44.4,44.4c0,24.5,19.9,44.4,44.4,44.4s44.4-19.9,44.4-44.4C195.8,111.3,175.9,91.4,151.4,91.4z"/>
<path class="st0" d="M151.4,80.6c30.4,0,55.1,24.7,55.1,55.1s-24.7,55.1-55.1,55.1c-30.4,0-55.1-24.7-55.1-55.1
	S121.1,80.6,151.4,80.6 M151.4,182.3c25.7,0,46.6-20.9,46.6-46.6c0-25.7-20.9-46.6-46.6-46.6c-25.7,0-46.6,20.9-46.6,46.6
	C104.8,161.4,125.7,182.3,151.4,182.3 M151.4,79.4c-31.1,0-56.3,25.2-56.3,56.3s25.2,56.3,56.3,56.3s56.3-25.2,56.3-56.3
	S182.6,79.4,151.4,79.4L151.4,79.4z M151.4,181.1c-25.1,0-45.4-20.3-45.4-45.4c0-25.1,20.3-45.4,45.4-45.4
	c25.1,0,45.4,20.3,45.4,45.4C196.8,160.8,176.5,181.1,151.4,181.1L151.4,181.1z"/>
<polyline class="st2" points="198,153.3 202.4,155.1 201.8,156.6 197.5,155.3 197.2,154.7 "/>
<path class="st2" d="M178.6,181l-6.8,3.5c0,0-2.6-5-2.5-5.3s4-1.7,4-1.7l1.4,3.9l1.2,0.3"/>
<path class="st2" d="M134.2,182.2c-0.1-0.1-1.9-0.6-1.9-0.6l-1.1,1.6c0,0-1.3,2.9-1.1,2.9c0.2,0,1.6,0.4,1.8,0.4c0.2,0,0.7,0.2,1,0
	c0.3-0.2,0.9-1.2,0.9-1.2"/>
<path class="st2" d="M162.8,82.5l-0.8,4.1c0,0,0.6,0.4,0.9,0c0.3-0.4,1.1-3.3,1.1-3.3s0.3-1,0.1-1"/>
</svg>
