<?xml version="1.0" encoding="utf-8"?>
<!-- Generator: Adobe Illustrator 21.0.2, SVG Export Plug-In . SVG Version: 6.00 Build 0)  -->
<svg version="1.1" id="Layer_1" xmlns="http://www.w3.org/2000/svg" xmlns:xlink="http://www.w3.org/1999/xlink" x="0px" y="0px"
	 viewBox="0 0 258.2 172.4" style="enable-background:new 0 0 258.2 172.4;" xml:space="preserve">
<style type="text/css">
	.st0{fill:#397dbd;}
	.st1{fill:#FFFFFF;}
</style>
<g>
	<g>
		<g>
			<polygon class="st0" points="8.1,148.9 0,152.9 22.4,152.9 14.3,148.9 14.3,139.8 28.5,139.8 31.6,133.6 14.3,133.6 14.3,130 
				31.8,130 34.9,123.8 8.1,123.8 			"/>
		</g>
		<g>
			<path class="st0" d="M41,123.8l-7.3,14.6l7.3,14.6h16.6l7.3-14.6l-7.3-14.6H41z M44.5,146.7l-4.2-8.3l4.2-8.3h9.6l4.2,8.3
				l-4.2,8.3H44.5z"/>
		</g>
		<g>
			<path class="st0" d="M74.7,123.8l-7.3,14.6l7.3,14.6h16.6l7.3-14.6l-7.3-14.6H74.7z M78.2,146.7l-4.2-8.3l4.2-8.3h9.6l4.2,8.3
				l-4.2,8.3H78.2z"/>
		</g>
		<g>
			<polygon class="st0" points="100.6,130 110.4,130 110.4,148.9 102.3,152.9 124.8,152.9 116.7,148.9 116.7,130 126.5,130 
				126.5,123.8 100.6,123.8 			"/>
		</g>
		<g>
			<polygon class="st0" points="189.9,127.8 198,123.8 175.5,123.8 183.6,127.8 183.6,148.9 175.5,152.9 198,152.9 189.9,148.9 			
				"/>
		</g>
		<g>
			<polygon class="st0" points="214.8,127.8 222.9,123.8 200.5,123.8 208.6,127.8 208.6,152.9 229,152.9 232.1,146.7 214.8,146.7 
							"/>
		</g>
		<g>
			<polygon class="st0" points="240.9,146.7 240.9,127.8 249,123.8 226.6,123.8 234.7,127.8 234.7,152.9 255.1,152.9 258.2,146.7 
							"/>
		</g>
		<g>
			<path class="st0" d="M130.9,152.9h20l-5.4-3.9l-0.3-0.1v-9.1h13.4v9.1l-0.3,0.2l-5.8,3.9H173l-8.1-4v-21.1l8.1-4h-20.3l5.9,4v5.8
				h-13.4v-5.8c0.2-0.1,4.2-2.9,5.9-4h-20.3l8.1,4v21.1L130.9,152.9z"/>
		</g>
	</g>
	<g>
		<path class="st0" d="M27.5,172.4l1.2-0.6v-8.8h1.8l0.6,1.2l0.6,1.2l0.6,1.2l0.6,1.2l0.6-1.2l0.6-1.2l0.6-1.2l0.6-1.2h1.8v8.8
			l1.2,0.6h-3.5l1.2-0.6v-7.6l-0.6,1.2l-0.6,1.2l-0.6,1.2l-0.6,1.2h-1.2l-0.6-1.2l-0.6-1.2l-0.6-1.2l-0.6-1.2v7.6l1.2,0.6H27.5z"/>
		<path class="st0" d="M45.8,172.4l1.2-0.6v-8.2l-1.2-0.6h3.5l-1.2,0.6v8.2l1.2,0.6H45.8z"/>
		<path class="st0" d="M57,172.4v-9.4h6.5l0.6,1.2l0.6,1.2l0.6,1.2l0.6,1.2l-0.6,1.2l-0.6,1.2l-0.6,1.2l-0.6,1.2H57z M62.9,171.3
			l0.6-1.2l0.6-1.2l0.6-1.2l-0.6-1.2l-0.6-1.2l-0.6-1.2h-4.7v7H62.9z"/>
		<path class="st0" d="M73.6,172.4v-9.4H80l0.6,1.2l0.6,1.2l0.6,1.2l0.6,1.2l-0.6,1.2l-0.6,1.2l-0.6,1.2l-0.6,1.2H73.6z M79.4,171.3
			l0.6-1.2l0.6-1.2l0.6-1.2l-0.6-1.2l-0.6-1.2l-0.6-1.2h-4.7v7H79.4z"/>
		<path class="st0" d="M91.3,172.4v-8.8l-1.2-0.6h3.5l-1.2,0.6v7.6h5.9l-0.6,1.2H91.3z"/>
		<path class="st0" d="M106.1,172.4v-1.2l0.6-1.2l0.6-1.2l0.6-1.2l-0.6-1.2l-0.6-1.2l-0.6-1.2v-1.2h8.2l-0.6,1.2h-6.5l0.6,1.2
			l0.6,1.2l0.6,1.2l-0.6,1.2l-0.6,1.2l-0.6,1.2h7l-0.6,1.2H106.1z"/>
		<path class="st0" d="M135.6,172.4l-0.6-1.2h5.9l0.6-1.2l0.6-1.2l0.6-1.2H135v-4.7h8.2l-0.6,1.2h-6.5v2.3h7.6v1.2l-0.6,1.2
			l-0.6,1.2l-0.6,1.2l-0.6,1.2H135.6z"/>
		<path class="st0" d="M152.7,172.4l-0.6-1.2l-0.6-1.2l-0.6-1.2l-0.6-1.2l0.6-1.2l0.6-1.2l0.6-1.2l0.6-1.2h6.5v1.2h-5.9l-0.6,1.2
			l-0.6,1.2l-0.6,1.2l0.6,1.2l0.6,1.2l0.6,1.2h5.9v1.2H152.7z"/>
		<path class="st0" d="M166.9,172.4l1.2-0.6v-8.2l-1.2-0.6h3.5l-1.2,0.6v2.9h5.9v-2.9l-1.2-0.6h3.5l-1.2,0.6v8.2l1.2,0.6H174
			l1.2-0.6v-4.1h-5.9v4.1l1.2,0.6H166.9z"/>
		<path class="st0" d="M185.2,172.4l-0.6-1.2l-0.6-1.2l-0.6-1.2l-0.6-1.2l0.6-1.2l0.6-1.2l0.6-1.2l0.6-1.2h5.3l0.6,1.2l0.6,1.2
			l0.6,1.2l0.6,1.2l-0.6,1.2l-0.6,1.2l-0.6,1.2l-0.6,1.2H185.2z M189.9,171.3l0.6-1.2l0.6-1.2l0.6-1.2l-0.6-1.2l-0.6-1.2l-0.6-1.2
			h-4.1l-0.6,1.2l-0.6,1.2l-0.6,1.2l0.6,1.2l0.6,1.2l0.6,1.2H189.9z"/>
		<path class="st0" d="M201.8,172.4l-0.6-1.2l-0.6-1.2l-0.6-1.2l-0.6-1.2l0.6-1.2l0.6-1.2l0.6-1.2l0.6-1.2h5.3l0.6,1.2l0.6,1.2
			l0.6,1.2l0.6,1.2l-0.6,1.2l-0.6,1.2l-0.6,1.2l-0.6,1.2H201.8z M206.5,171.3l0.6-1.2l0.6-1.2l0.6-1.2l-0.6-1.2l-0.6-1.2l-0.6-1.2
			h-4.1l-0.6,1.2l-0.6,1.2l-0.6,1.2l0.6,1.2l0.6,1.2l0.6,1.2H206.5z"/>
		<path class="st0" d="M218.3,172.4v-8.8l-1.2-0.6h3.5l-1.2,0.6v7.6h5.9l-0.6,1.2H218.3z"/>
	</g>
	<g>
		
			<ellipse transform="matrix(4.611103e-03 -1 1 4.611103e-03 71.4287 185.9233)" class="st0" cx="129.1" cy="57.1" rx="57.1" ry="57.1"/>
	</g>
	<g>
		<circle class="st0" cx="129.1" cy="57.1" r="55.4"/>
	</g>
	<g>
		<circle class="st1" cx="129.1" cy="56.9" r="53.5"/>
	</g>
	<g>
		<circle class="st1" cx="129.1" cy="57.1" r="41"/>
	</g>
	<g>
		<g>
			<path class="st1" d="M129.1,6.6c-27.8,0-50.3,22.5-50.3,50.3s22.5,50.3,50.3,50.3s50.3-22.5,50.3-50.3S156.9,6.6,129.1,6.6z
				 M129.1,97.4c-22.4,0-40.5-18.1-40.5-40.5s18.1-40.5,40.5-40.5c22.4,0,40.5,18.1,40.5,40.5S151.4,97.4,129.1,97.4z"/>
		</g>
		<g>
			<path class="st1" d="M129.1,108.1c-28.2,0-51.1-22.9-51.1-51.1c0-28.2,22.9-51.1,51.1-51.1c28.2,0,51.1,22.9,51.1,51.1
				C180.2,85.1,157.3,108.1,129.1,108.1z M129.1,7.5c-27.3,0-49.4,22.2-49.4,49.4s22.2,49.4,49.4,49.4c27.3,0,49.4-22.2,49.4-49.4
				S156.3,7.5,129.1,7.5z M129.1,98.3c-22.8,0-41.3-18.5-41.3-41.3s18.5-41.3,41.3-41.3c22.8,0,41.3,18.5,41.3,41.3
				S151.9,98.3,129.1,98.3z M129.1,17.3c-21.9,0-39.6,17.8-39.6,39.6c0,21.9,17.8,39.6,39.6,39.6c21.9,0,39.6-17.8,39.6-39.6
				C168.7,35.1,150.9,17.3,129.1,17.3z"/>
		</g>
	</g>
	<g>
		<g>
			<path class="st0" d="M152.1,43l6.3-5.5c-1.2-1.2-3.2-3.1-5.9-5c-1.4,1.5-3.5,3.8-3.5,3.8l2.1-4.7c-1.4-0.9-3-1.8-4.8-2.5
				c-1.3,2.2-3.3,5.5-3.4,5.3c0-0.1,0.8-3.3,1.5-6.1c-2-0.7-4.2-1.4-6.5-1.7l-2,5l0.2-5.3c-1.9-0.2-3.9-0.3-6-0.1l-0.6,4l-1.2-3.8
				c-0.2,0-0.5,0.1-0.7,0.1c-1.4,0.2-2.7,0.4-3.9,0.7l-0.2,3.7l-1.3-3.3c-2.5,0.7-4.7,1.5-6.7,2.5c0.5,1.9,1.1,3.9,1.1,3.9l-2.4-3.2
				c-1.7,1-3.3,2.1-4.7,3.3c1.1,1.5,2.2,3.2,2,3.2c-0.1,0-1.7-0.9-3.4-1.9c-1.3,1.3-2.5,2.7-3.5,4.2l2.5,2.7l-3.8-0.6
				c-1,1.7-1.8,3.5-2.4,5.3c1.1,0.8,2,1.5,2,1.5s-1.1,0-2.5,0c-0.5,1.7-0.9,3.4-1.1,5l0,0.4l1.7,1.5l-1.7,0.2l-0.3,8.5
				c0,0-0.2,4.6-5.8,4.7c0,0,1.8,2,5.5,0.7s4.2-8,4.2-8s1.1-9.8,9.5-15.3s18-3.7,23.8-0.4c5.8,3.3,9.4,8.3,9.4,8.3l19.1-8.2
				c0,0-2.7-4.8-4.3-6.4L152.1,43z"/>
		</g>
		<g>
			<path class="st0" d="M144.5,77.4l2,0c0,0,1.3-9.7-2.1-16.2c-3.5-6.5-9.9-12.4-19.1-12.8c-9.1-0.3-15.1,5.2-17.2,12
				s3,12.4-6.1,17.6c0,0,10.8,0.7,13-2.5c2.2-3.2,2.1-4.2,2.1-4.2s-3.7-3.6-2.5-7.4c1.2-3.7,5.8-3.7,7.5-0.5s3.1,12.5,3.1,12.5
				L126,79c0,0,1,4.2,8.1,6.5c7.1,2.2,12,3.4,12,3.4s-0.3-2.3-2.5-5.3c-2.1-3-5.3-8.2-3.5-10.7c0,0-3.9-3.4-9.6-4.4
				c0,0,1.4-4.7,4.9-6.5c3.4-1.8,8.5,3.4,9.1,7S144.5,77.4,144.5,77.4z"/>
		</g>
		<g>
			<path class="st0" d="M146.2,58.8c0,0.1-0.7,0.8-0.7,0.8s-7.7-16-25.6-12.3c-3.3,0.7-14.7,4.5-14.1,19.5l-1.8-0.2
				c0,0-1.5-15.3,13.1-21.1S144.4,53.1,146.2,58.8z"/>
		</g>
	</g>
	<g>
		<path class="st0" d="M173.9,56.9c1.2,0,2.4,0,3.5,0c-0.1-2.8-0.2-5.5-0.7-8.3c0,0-3.1,0.5-3.5,0.6c0.1,0.7,0.2,1.4,0.3,2.2
			c-0.2,0-0.4,0-0.6,0.1c-0.1,0-0.5,0.1-0.6,0.1c0,0,0-0.2,0-0.3c0-0.2-0.1-0.5-0.1-0.7c-0.1-0.5-0.2-1.1-0.3-1.6
			c-0.1-0.5-0.2-1.1-0.3-1.6c-0.1-0.2-0.1-0.4-0.2-0.7c0,0-0.1-0.3-0.1-0.3c0.1-0.1,0.5-0.1,0.6-0.1c0.2,0,0.4-0.1,0.6-0.1
			c0.2,0.7,0.4,1.4,0.5,2.1c0.7-0.1,1.4-0.3,2.1-0.4c0.4-0.1,0.8-0.2,1.2-0.2c0.1,0,0.1,0,0.2,0c0,0-0.2-0.8-0.2-0.8
			c-0.4-1.8-0.9-3.6-1.5-5.3c-0.1-0.2-0.6-1.8-0.7-1.8c-0.2,0.1-0.5,0.2-0.7,0.3c-0.9,0.3-1.7,0.7-2.6,1c0.3,0.7,0.5,1.4,0.7,2.1
			c-0.2,0.1-0.4,0.1-0.6,0.2c-0.1,0-0.5,0.2-0.6,0.2c0,0-0.1-0.2-0.1-0.3c-0.1-0.2-0.2-0.5-0.2-0.7c-0.2-0.5-0.4-1-0.6-1.5
			c-0.2-0.5-0.4-1-0.6-1.5c-0.1-0.2-0.2-0.4-0.3-0.6c0,0-0.2-0.3-0.1-0.3c0-0.1,0.4-0.2,0.5-0.3c0.2-0.1,0.4-0.2,0.5-0.3
			c0.3,0.7,0.6,1.3,0.9,2c0.7-0.3,1.3-0.5,2-0.8c0.4-0.2,0.7-0.3,1.1-0.5c0.1,0,0.1-0.1,0.2-0.1c0,0-0.3-0.7-0.3-0.8
			c-0.8-1.7-1.6-3.3-2.5-4.9c-0.1-0.1-1-1.7-1-1.7c-0.2,0.1-0.4,0.3-0.7,0.4c-0.8,0.5-1.5,1-2.3,1.5c0.4,0.6,0.8,1.2,1.1,1.9
			c-0.2,0.1-0.3,0.2-0.5,0.3c-0.1,0-0.4,0.3-0.5,0.3c0,0-0.1-0.2-0.1-0.2c-0.1-0.2-0.2-0.4-0.4-0.7c-0.3-0.5-0.6-0.9-0.9-1.4
			c-0.5-0.8-1-1.5-1.5-2.2c0,0,0.8-0.6,0.9-0.7c0.4,0.6,0.9,1.2,1.3,1.8c0.6-0.4,1.2-0.8,1.8-1.2c0.3-0.2,0.7-0.4,1-0.7
			c0.1,0,0.1-0.1,0.2-0.1c0,0-0.5-0.7-0.6-0.8c-1.1-1.5-2.2-2.9-3.4-4.3c-0.1-0.1-1.2-1.4-1.3-1.4c-0.2,0.2-0.4,0.4-0.6,0.6
			c-0.6,0.5-1.1,1.1-1.7,1.6c-0.2,0.2-0.3,0.2,0,0.4c0.4,0.5,0.9,1,1.3,1.4c-0.2,0.2-0.4,0.4-0.6,0.5c-0.1,0.1-0.2,0.1-0.3,0.2
			c0,0-0.3-0.3-0.3-0.4c-0.6-0.7-1.2-1.4-1.9-2.1c-0.5-0.4-0.9-0.9-1.4-1.3c-0.2-0.2-0.1-0.2,0.1-0.3c0.2-0.2,0.4-0.4,0.6-0.6
			c0.4,0.4,0.7,0.7,1.1,1.1c0.2,0.1,0.3,0.3,0.5,0.4c0,0,0.2-0.2,0.2-0.2c0.8-0.8,1.5-1.5,2.3-2.3c-2-1.9-4.1-3.7-6.4-5.3
			c-0.6,0.9-1.3,1.8-1.9,2.7c-0.1,0.1-0.2,0.2-0.1,0.3c0.5,0.3,0.9,0.7,1.4,1c0,0,0.3,0.2,0.3,0.3c-0.1,0.1-0.1,0.2-0.2,0.3
			c-0.2,0.2-0.3,0.4-0.5,0.6c-1.4-1.1-2.9-2.1-4.4-3c0.1-0.2,0.3-0.4,0.4-0.6c0.1-0.1,0.1-0.2,0.2-0.3c0-0.1,0.3,0.2,0.4,0.2
			c0.5,0.3,1,0.6,1.5,0.9c0.1,0,0.2-0.2,0.2-0.2c0.6-0.9,1.2-1.8,1.8-2.7c-2.3-1.5-4.7-2.9-7.3-4c-0.4,1-0.9,2-1.3,3
			c0,0.1-0.2,0.2,0,0.3c0.5,0.2,1,0.5,1.5,0.7c0,0,0.4,0.2,0.4,0.2c-0.1,0.1-0.1,0.2-0.2,0.3c-0.1,0.2-0.2,0.5-0.4,0.7
			c-0.8-0.4-1.6-0.8-2.4-1.1c-0.5-0.2-1-0.4-1.5-0.6c-0.1,0-1-0.3-1-0.4c0.1-0.2,0.2-0.5,0.3-0.7c0-0.1,0.1-0.2,0.1-0.4
			c0-0.1,0.3,0.1,0.3,0.1c0.6,0.2,1.1,0.4,1.7,0.7c0.1,0,0.1-0.1,0.2-0.2c0.4-1,0.8-2,1.2-3c-2.6-1-5.2-1.9-7.9-2.5
			c-0.2,1-0.5,2.1-0.7,3.1c0,0.1-0.1,0.3,0,0.3c0.6,0.1,1.1,0.2,1.7,0.4c0,0,0.4,0.1,0.4,0.1c0,0.1-0.1,0.2-0.1,0.3
			c-0.1,0.3-0.1,0.5-0.2,0.8c-1.7-0.5-3.5-0.9-5.2-1.1c0-0.2,0.1-0.5,0.1-0.7c0-0.1,0-0.2,0.1-0.4c0-0.1,0.3,0,0.3,0
			c0.6,0.1,1.2,0.2,1.8,0.3c0.1,0,0.1-0.1,0.1-0.3c0.2-1.1,0.4-2.1,0.6-3.2c-2.7-0.5-5.5-0.8-8.2-0.9c0,1.1-0.1,2.2-0.1,3.3
			c0,0.1-0.1,0.3,0.1,0.3c0.6,0,1.2,0,1.8,0.1c0,0,0.3,0,0.3,0c0,0.1,0,0.2,0,0.3c0,0.3,0,0.5-0.1,0.8c-1.3-0.1-2.7-0.1-4-0.1
			c-0.4,0-0.9,0-1.3,0c0,0-0.1-1.1-0.1-1.2c0.5,0,1,0,1.5,0c0.2,0,0.4,0,0.7,0c0,0,0-0.3,0-0.3c0-1.1,0-2.1,0-3.2
			c-2.8,0.1-5.5,0.2-8.3,0.7c0,0,0.5,3.1,0.6,3.5c0.7-0.1,1.4-0.2,2.2-0.3c0,0.2,0,0.4,0.1,0.6c0,0.1,0.1,0.5,0.1,0.6
			c0,0-0.2,0-0.3,0c-0.2,0-0.5,0.1-0.7,0.1c-0.5,0.1-1.1,0.2-1.6,0.3c-0.5,0.1-1.1,0.2-1.6,0.3c-0.2,0.1-0.4,0.1-0.7,0.2
			c0,0-0.3,0.1-0.3,0.1c-0.1-0.1-0.1-0.5-0.1-0.6c0-0.2-0.1-0.4-0.1-0.6c0.7-0.2,1.4-0.4,2.1-0.5c-0.1-0.7-0.3-1.4-0.4-2.1
			c-0.1-0.4-0.2-0.8-0.2-1.2c0-0.1,0-0.1,0-0.2c0,0-0.8,0.2-0.8,0.2c-1.8,0.4-3.6,0.9-5.3,1.5c-0.2,0.1-1.8,0.6-1.8,0.7
			c0.1,0.2,0.2,0.5,0.3,0.7c0.3,0.9,0.7,1.7,1,2.6c0.7-0.3,1.4-0.5,2.1-0.7c0.1,0.2,0.1,0.4,0.2,0.6c0,0.1,0.2,0.5,0.2,0.6
			c0,0-0.2,0.1-0.3,0.1c-0.2,0.1-0.5,0.2-0.7,0.2c-0.5,0.2-1,0.4-1.5,0.6c-0.5,0.2-1,0.4-1.5,0.6c-0.2,0.1-0.4,0.2-0.6,0.3
			c0,0-0.3,0.2-0.3,0.1c-0.1,0-0.2-0.4-0.3-0.5c-0.1-0.2-0.2-0.4-0.3-0.5c0.7-0.3,1.3-0.6,2-0.9c-0.3-0.7-0.5-1.3-0.8-2
			c-0.2-0.4-0.3-0.7-0.5-1.1c0-0.1-0.1-0.1-0.1-0.2c0,0-0.7,0.3-0.8,0.3c-1.7,0.8-3.3,1.6-4.9,2.5c-0.1,0.1-1.7,1-1.7,1
			c0.1,0.2,0.3,0.4,0.4,0.7c0.5,0.8,1,1.5,1.5,2.3c0.6-0.4,1.2-0.8,1.9-1.1c0.1,0.2,0.2,0.3,0.3,0.5c0,0.1,0.3,0.4,0.3,0.5
			c0,0-0.2,0.1-0.2,0.1c-0.2,0.1-0.4,0.2-0.7,0.4c-0.5,0.3-0.9,0.6-1.4,0.9c-0.8,0.5-1.5,1-2.2,1.5c0,0-0.6-0.8-0.7-0.9
			c0.6-0.4,1.2-0.9,1.8-1.3c-0.4-0.6-0.8-1.2-1.2-1.8c-0.2-0.3-0.4-0.7-0.7-1c0-0.1-0.1-0.1-0.1-0.2c0,0-0.7,0.5-0.8,0.6
			c-1.5,1.1-2.9,2.2-4.3,3.4c-0.1,0.1-1.4,1.2-1.4,1.3c0.2,0.2,0.4,0.4,0.6,0.6c0.5,0.6,1.1,1.1,1.6,1.7c0.2,0.2,0.2,0.3,0.4,0
			c0.5-0.4,1-0.9,1.4-1.3c0.2,0.2,0.4,0.4,0.5,0.6c0.1,0.1,0.1,0.2,0.2,0.3c0,0-0.3,0.3-0.4,0.3c-0.7,0.6-1.4,1.2-2.1,1.9
			c-0.4,0.5-0.9,0.9-1.3,1.4c-0.2,0.2-0.2,0.1-0.3-0.1c-0.2-0.2-0.4-0.4-0.6-0.6c0.4-0.4,0.7-0.7,1.1-1.1c0.1-0.2,0.3-0.3,0.4-0.5
			c0,0-0.2-0.2-0.2-0.2c-0.8-0.8-1.5-1.5-2.3-2.3c-1.9,2-3.7,4.1-5.3,6.4c0.9,0.6,1.8,1.3,2.7,1.9c0.1,0.1,0.2,0.2,0.3,0.1
			c0.3-0.5,0.7-0.9,1-1.4c0,0,0.2-0.3,0.3-0.3c0.1,0.1,0.2,0.1,0.3,0.2c0.2,0.2,0.4,0.3,0.6,0.5c-1.1,1.4-2.1,2.9-3,4.4
			c-0.2-0.1-0.4-0.3-0.6-0.4c-0.1-0.1-0.2-0.1-0.3-0.2c-0.1,0,0.2-0.3,0.2-0.4c0.3-0.5,0.6-1,0.9-1.5c0-0.1-0.2-0.2-0.2-0.2
			c-0.9-0.6-1.8-1.2-2.7-1.8c-1.5,2.3-2.9,4.7-4,7.3c1,0.4,2,0.9,3,1.3c0.1,0,0.2,0.2,0.3,0c0.2-0.5,0.5-1,0.7-1.5
			c0,0,0.2-0.4,0.2-0.4c0.1,0.1,0.2,0.1,0.3,0.2c0.2,0.1,0.5,0.2,0.7,0.4c-0.4,0.8-0.8,1.6-1.1,2.4c-0.1,0.2-1,2.5-1,2.5
			c-0.2-0.1-0.5-0.2-0.7-0.3c-0.1,0-0.2-0.1-0.4-0.1c-0.1,0,0.1-0.3,0.1-0.3c0.2-0.6,0.4-1.1,0.7-1.7c0-0.1-0.1-0.1-0.2-0.2
			c-1-0.4-2-0.8-3-1.2c-1,2.6-1.9,5.2-2.5,7.9c1,0.2,2.1,0.5,3.1,0.7c0.1,0,0.3,0.1,0.3,0c0.1-0.6,0.2-1.1,0.4-1.7
			c0,0,0.1-0.4,0.1-0.4c0.1,0,0.2,0.1,0.3,0.1c0.3,0.1,0.5,0.1,0.8,0.2c-0.5,1.7-0.9,3.5-1.1,5.2c-0.2,0-0.5-0.1-0.7-0.1
			c-0.1,0-0.2,0-0.4-0.1c-0.1,0,0-0.3,0-0.3c0.1-0.6,0.2-1.2,0.3-1.8c0-0.1-0.1-0.1-0.3-0.1c-1.1-0.2-2.1-0.4-3.2-0.6
			c-0.5,2.7-0.8,5.5-0.9,8.2c1.1,0,2.2,0.1,3.3,0.1c0.1,0,0.3,0.1,0.3-0.1c0-0.6,0-1.2,0.1-1.8c0,0,0-0.3,0-0.3c0.1,0,0.2,0,0.3,0
			c0.3,0,0.5,0,0.8,0.1c-0.1,1.3-0.1,2.7-0.1,4c0,0.4,0,0.9,0,1.3c0,0-1.1,0.1-1.2,0.1c0-0.5,0-1,0-1.5c0-0.2,0-0.4,0-0.7
			c0,0-0.3,0-0.3,0c-1.1,0-2.1,0-3.2,0c0.1,2.8,0.2,5.5,0.7,8.3c0,0,3.1-0.5,3.5-0.6c-0.1-0.7-0.2-1.4-0.3-2.2c0.2,0,0.4,0,0.6-0.1
			c0.1,0,0.5-0.1,0.6-0.1c0,0,0,0.2,0,0.3c0,0.2,0.1,0.5,0.1,0.8c0.1,0.5,0.2,1.1,0.3,1.6c0.1,0.5,0.2,1.1,0.3,1.6
			c0.1,0.2,0.1,0.4,0.2,0.7c0,0,0.1,0.3,0.1,0.3c-0.1,0.1-0.5,0.1-0.6,0.1c-0.2,0-0.4,0.1-0.6,0.1c-0.2-0.7-0.4-1.4-0.5-2.1
			c-0.7,0.1-1.4,0.3-2.1,0.4c-0.4,0.1-0.8,0.2-1.2,0.2c-0.1,0-0.1,0-0.2,0c0,0,0.2,0.8,0.2,0.8c0.4,1.8,0.9,3.6,1.5,5.3
			c0.1,0.2,0.6,1.8,0.7,1.8c0.2-0.1,0.5-0.2,0.7-0.3c0.9-0.3,1.7-0.7,2.6-1c-0.3-0.7-0.5-1.4-0.7-2.1c0.2-0.1,0.4-0.1,0.6-0.2
			c0.1,0,0.5-0.2,0.6-0.2c0,0,0.1,0.2,0.1,0.3c0.1,0.2,0.2,0.5,0.2,0.7c0.2,0.5,0.4,1,0.6,1.5c0.2,0.5,0.4,1,0.6,1.5
			c0.1,0.2,0.2,0.4,0.3,0.6c0,0,0.2,0.3,0.1,0.3c0,0.1-0.4,0.2-0.5,0.3c-0.2,0.1-0.4,0.2-0.5,0.3c-0.3-0.7-0.6-1.3-0.9-2
			c-0.7,0.3-1.3,0.5-2,0.8c-0.4,0.2-0.7,0.3-1.1,0.5c-0.1,0-0.1,0.1-0.2,0.1c0,0,0.3,0.7,0.3,0.8c0.8,1.7,1.6,3.3,2.5,4.9
			c0.1,0.1,1,1.7,1,1.7c0.2-0.1,0.4-0.3,0.7-0.4c0.8-0.5,1.5-1,2.3-1.5c-0.4-0.6-0.8-1.2-1.1-1.9c0.2-0.1,0.3-0.2,0.5-0.3
			c0.1,0,0.4-0.3,0.5-0.3c0,0,0.1,0.2,0.1,0.2c0.1,0.2,0.2,0.4,0.4,0.7c0.3,0.5,0.6,0.9,0.9,1.4c0.5,0.8,1,1.5,1.5,2.2
			c0,0-0.8,0.6-0.9,0.7c-0.4-0.6-0.9-1.2-1.3-1.8c-0.6,0.4-1.2,0.8-1.8,1.2c-0.3,0.2-0.7,0.4-1,0.7c-0.1,0-0.1,0.1-0.2,0.1
			c0,0,0.5,0.7,0.6,0.8c1.1,1.5,2.2,2.9,3.4,4.3c0.1,0.1,1.2,1.4,1.3,1.4c0.2-0.2,0.4-0.4,0.6-0.6c0.6-0.5,1.1-1.1,1.7-1.6
			c0.2-0.2,0.3-0.2,0-0.4c-0.4-0.5-0.9-1-1.3-1.4c0.2-0.2,0.4-0.4,0.6-0.5c0.1-0.1,0.2-0.1,0.3-0.2c0,0,0.3,0.3,0.3,0.4
			c0.6,0.7,1.2,1.4,1.9,2.1c0.5,0.4,0.9,0.9,1.4,1.3c0.2,0.2,0.1,0.2-0.1,0.3c-0.2,0.2-0.4,0.4-0.6,0.6c-0.4-0.4-0.7-0.7-1.1-1.1
			c-0.2-0.2-0.3-0.3-0.5-0.5c0,0-0.2,0.2-0.2,0.2c-0.8,0.8-1.5,1.5-2.3,2.3c2,1.9,4.1,3.7,6.4,5.3c0.6-0.9,1.3-1.8,1.9-2.7
			c0.1-0.1,0.2-0.2,0.1-0.3c-0.5-0.3-0.9-0.7-1.4-1c0,0-0.3-0.2-0.3-0.3c0.1-0.1,0.1-0.2,0.2-0.3c0.2-0.2,0.3-0.4,0.5-0.6
			c1.4,1.1,2.9,2.1,4.4,3c-0.1,0.2-0.3,0.4-0.4,0.6c-0.1,0.1-0.1,0.2-0.2,0.3c0,0.1-0.3-0.2-0.4-0.2c-0.5-0.3-1-0.6-1.5-0.9
			c-0.1,0-0.2,0.2-0.2,0.2c-0.6,0.9-1.2,1.8-1.8,2.7c1.2,0.7,2.3,1.5,3.5,2.2c1.2,0.7,2.5,1.3,3.7,1.8c0.4-1,0.9-2,1.3-3
			c0-0.1,0.2-0.2,0-0.3c-0.5-0.2-1-0.5-1.5-0.7c0,0-0.4-0.2-0.4-0.2c0.1-0.1,0.1-0.2,0.2-0.3c0.1-0.2,0.2-0.5,0.4-0.7
			c0.8,0.4,1.6,0.8,2.4,1.1c0.2,0.1,2.5,1,2.5,1c-0.1,0.2-0.2,0.5-0.3,0.7c0,0.1-0.1,0.2-0.1,0.4c0,0.1-0.3-0.1-0.3-0.1
			c-0.6-0.2-1.1-0.4-1.7-0.7c-0.1,0-0.1,0.1-0.2,0.2c-0.4,1-0.8,2-1.2,3c2.6,1,5.2,1.9,7.9,2.5c0.2-1,0.5-2.1,0.7-3.1
			c0-0.1,0.1-0.3,0-0.3c-0.6-0.1-1.1-0.2-1.7-0.4c0,0-0.4-0.1-0.4-0.1c0-0.1,0.1-0.2,0.1-0.3c0.1-0.3,0.1-0.5,0.2-0.8
			c1.7,0.5,3.5,0.9,5.2,1.1c0,0.2-0.1,0.5-0.1,0.7c0,0.1,0,0.2-0.1,0.4c0,0.1-0.3,0-0.3,0c-0.6-0.1-1.2-0.2-1.8-0.3
			c-0.1,0-0.1,0.1-0.1,0.3c-0.2,1.1-0.4,2.1-0.6,3.2c2.7,0.5,5.5,0.8,8.2,0.9c0-1.1,0.1-2.2,0.1-3.3c0-0.1,0.1-0.3-0.1-0.3
			c-0.6,0-1.2,0-1.8-0.1c0,0-0.3,0-0.3,0c0-0.1,0-0.2,0-0.3c0-0.3,0-0.5,0.1-0.8c1.3,0.1,2.7,0.1,4,0.1c0.4,0,0.9,0,1.3,0
			c0,0,0.1,1.1,0.1,1.2c-0.5,0-1,0-1.5,0c-0.2,0-0.4,0-0.7,0c0,0,0,0.3,0,0.3c0,1.1,0,2.1,0,3.2c2.8-0.1,5.5-0.2,8.3-0.7
			c0,0-0.5-3.1-0.6-3.5c-0.7,0.1-1.4,0.2-2.2,0.3c0-0.2,0-0.4-0.1-0.6c0-0.1-0.1-0.5-0.1-0.6c0,0,0.2,0,0.3,0c0.2,0,0.5-0.1,0.7-0.1
			c0.5-0.1,1.1-0.2,1.6-0.3c0.5-0.1,1.1-0.2,1.6-0.3c0.2-0.1,0.4-0.1,0.7-0.2c0,0,0.3-0.1,0.3-0.1c0.1,0.1,0.1,0.5,0.1,0.6
			c0,0.2,0.1,0.4,0.1,0.6c-0.7,0.2-1.4,0.4-2.1,0.5c0.1,0.7,0.3,1.4,0.4,2.1c0.1,0.4,0.2,0.8,0.2,1.2c0,0.1,0,0.1,0,0.2
			c0,0,0.8-0.2,0.8-0.2c1.8-0.4,3.6-0.9,5.3-1.5c0.2-0.1,1.8-0.6,1.8-0.7c-0.1-0.2-0.2-0.5-0.3-0.7c-0.3-0.9-0.7-1.7-1-2.6
			c-0.7,0.3-1.4,0.5-2.1,0.7c-0.1-0.2-0.1-0.4-0.2-0.6c0-0.1-0.2-0.5-0.2-0.6c0,0,0.2-0.1,0.3-0.1c0.2-0.1,0.5-0.2,0.7-0.2
			c0.5-0.2,1-0.4,1.5-0.6c0.5-0.2,1-0.4,1.5-0.6c0.2-0.1,0.4-0.2,0.6-0.3c0,0,0.3-0.2,0.3-0.1c0.1,0,0.2,0.4,0.3,0.5
			c0.1,0.2,0.2,0.4,0.3,0.5c-0.7,0.3-1.3,0.6-2,0.9c0.3,0.7,0.5,1.3,0.8,2c0.2,0.4,0.3,0.7,0.5,1.1c0,0.1,0.1,0.1,0.1,0.2
			c0,0,0.7-0.3,0.8-0.3c1.7-0.8,3.3-1.6,4.9-2.5c0.1-0.1,1.7-1,1.7-1c-0.1-0.2-0.3-0.4-0.4-0.7c-0.5-0.8-1-1.5-1.5-2.3
			c-0.6,0.4-1.2,0.8-1.9,1.1c-0.1-0.2-0.2-0.3-0.3-0.5c0-0.1-0.3-0.4-0.3-0.5c0,0,0.2-0.1,0.2-0.1c0.2-0.1,0.4-0.2,0.7-0.4
			c0.5-0.3,0.9-0.6,1.4-0.9c0.8-0.5,1.5-1,2.2-1.5c0,0,0.6,0.8,0.7,0.9c-0.6,0.4-1.2,0.9-1.8,1.3c0.4,0.6,0.8,1.2,1.2,1.8
			c0.2,0.3,0.4,0.7,0.7,1c0,0.1,0.1,0.1,0.1,0.2c0,0,0.7-0.5,0.8-0.6c1.5-1.1,2.9-2.2,4.3-3.4c0.1-0.1,1.4-1.2,1.4-1.3
			c-0.2-0.2-0.4-0.4-0.6-0.6c-0.5-0.6-1.1-1.1-1.6-1.7c-0.2-0.2-0.2-0.3-0.4,0c-0.5,0.4-1,0.9-1.4,1.3c-0.2-0.2-0.4-0.4-0.5-0.6
			c-0.1-0.1-0.1-0.2-0.2-0.3c0,0,0.3-0.3,0.4-0.3c0.7-0.6,1.4-1.2,2-1.9c0.4-0.5,0.9-0.9,1.3-1.4c0.2-0.2,0.2-0.1,0.3,0.1
			c0.2,0.2,0.4,0.4,0.6,0.6c-0.4,0.4-0.7,0.7-1.1,1.1c-0.1,0.2-0.3,0.3-0.4,0.5c0,0,0.2,0.2,0.2,0.2c0.8,0.8,1.5,1.5,2.3,2.3
			c1.9-2,3.7-4.1,5.3-6.4c-0.9-0.6-1.8-1.3-2.7-1.9c-0.1-0.1-0.2-0.2-0.3-0.1c-0.3,0.5-0.7,0.9-1,1.4c0,0-0.2,0.3-0.3,0.3
			c-0.1-0.1-0.2-0.1-0.3-0.2c-0.2-0.2-0.4-0.3-0.6-0.5c1.1-1.4,2.1-2.9,3-4.4c0.2,0.1,0.4,0.3,0.6,0.4c0.1,0.1,0.2,0.1,0.3,0.2
			c0.1,0-0.2,0.3-0.2,0.4c-0.3,0.5-0.6,1-0.9,1.5c0,0.1,0.2,0.2,0.2,0.2c0.9,0.6,1.8,1.2,2.7,1.8c0.7-1.2,1.5-2.3,2.2-3.5
			c0.7-1.2,1.3-2.5,1.8-3.7c-1-0.4-2-0.9-3-1.3c-0.1,0-0.2-0.2-0.3,0c-0.2,0.5-0.5,1-0.7,1.5c0,0-0.2,0.4-0.2,0.4
			c-0.1-0.1-0.2-0.1-0.3-0.2c-0.2-0.1-0.5-0.2-0.7-0.4c0.4-0.8,0.8-1.6,1.1-2.4c0.2-0.5,0.4-1,0.6-1.5c0-0.1,0.3-1,0.4-1
			c0.2,0.1,0.5,0.2,0.7,0.3c0.1,0,0.2,0.1,0.4,0.1c0.1,0-0.1,0.3-0.1,0.3c-0.2,0.6-0.4,1.1-0.7,1.7c0,0.1,0.1,0.1,0.2,0.2
			c1,0.4,2,0.8,3,1.2c1-2.6,1.9-5.2,2.5-7.9c-1-0.2-2.1-0.5-3.1-0.7c-0.1,0-0.3-0.1-0.3,0c-0.1,0.6-0.2,1.1-0.4,1.7
			c0,0-0.1,0.4-0.1,0.4c-0.1,0-0.2-0.1-0.3-0.1c-0.3-0.1-0.5-0.1-0.8-0.2c0.5-1.7,0.9-3.5,1.1-5.2c0.2,0,0.5,0.1,0.7,0.1
			c0.1,0,0.2,0,0.4,0.1c0.1,0,0,0.3,0,0.3c-0.1,0.6-0.2,1.2-0.3,1.8c0,0.1,0.1,0.1,0.3,0.1c1.1,0.2,2.1,0.4,3.2,0.6
			c0.5-2.7,0.8-5.5,0.9-8.2c-1.1,0-2.2-0.1-3.3-0.1c-0.1,0-0.3-0.1-0.3,0.1c0,0.6,0,1.2-0.1,1.8c0,0,0,0.3,0,0.3c-0.1,0-0.2,0-0.3,0
			c-0.3,0-0.5,0-0.8-0.1c0.1-1.3,0.1-2.7,0.1-4c0-0.4,0-0.9,0-1.3c0,0,1.1-0.1,1.2-0.1C173.9,55.4,173.9,56.1,173.9,56.9z
			 M171.5,54.2c0.1,1.1,0.1,2.1,0.1,3.2c0,0.3-0.2,3.6-0.2,3.6c1.2,0.1,2.3,0.2,3.5,0.3c0-0.2,0.2-2.3,0.2-2.3c0.1,0,1.2,0,1.2,0.1
			c0,1-0.1,2-0.2,3c-0.1,0.9-0.2,1.8-0.4,2.7c0,0-1-0.2-1.2-0.2c0.1-0.7,0.2-1.5,0.3-2.2c-0.7-0.1-1.4-0.2-2.1-0.3
			c-0.4,0-0.8-0.1-1.2-0.1c-0.1,0-0.1,0-0.2,0c0,0-0.1,0.6-0.1,0.6c-0.2,1.8-0.6,3.6-1.1,5.3c-0.1,0.3-0.2,0.7-0.3,1
			c0,0.1-0.1,0.1,0,0.2c0.3,0.1,0.6,0.2,1,0.3c0.8,0.2,1.6,0.5,2.4,0.7c0.2-0.7,0.4-1.4,0.6-2.2c0.1,0,1.1,0.3,1.1,0.3
			c-0.2,0.9-0.5,1.8-0.8,2.7c-0.3,1-0.6,1.9-1,2.8c0,0-1-0.4-1.1-0.4c0.3-0.7,0.5-1.4,0.8-2.1c-0.7-0.2-1.3-0.4-2-0.7
			c-0.4-0.1-0.8-0.3-1.1-0.4c-0.1,0-0.1,0-0.2-0.1c0,0-0.2,0.5-0.2,0.6c-0.6,1.7-1.3,3.4-2.1,5c-0.2,0.3-0.3,0.6-0.5,1
			c0,0.1-0.1,0.1,0,0.2c0.3,0.2,0.6,0.3,0.9,0.5c0.7,0.4,1.5,0.8,2.2,1.2c0.3-0.7,0.7-1.3,1-2c0.2,0.1,0.4,0.2,0.5,0.3
			c0.1,0,0.5,0.2,0.5,0.3c0,0.1-0.2,0.4-0.2,0.4c-0.1,0.2-0.2,0.5-0.4,0.7c-0.3,0.5-0.5,1-0.8,1.5c-0.5,0.8-0.9,1.6-1.4,2.4
			c0,0-0.9-0.6-1-0.6c0.4-0.6,0.8-1.3,1.2-1.9c-0.6-0.3-1.2-0.7-1.8-1c-0.3-0.2-0.7-0.4-1-0.6c-0.1,0-0.1-0.1-0.2-0.1
			c0,0-0.3,0.5-0.3,0.5c-0.9,1.5-1.9,3.1-3,4.5c-0.1,0.1-0.9,1-0.8,1.1c0.2,0.2,0.5,0.4,0.7,0.6c0.7,0.5,1.3,1.1,1.9,1.6
			c0.5-0.6,1-1.2,1.4-1.8c0.2,0.2,0.4,0.3,0.7,0.5c0.1,0.1,0.2,0.1,0.3,0.2c0,0-0.3,0.4-0.3,0.5c-0.8,1.1-1.7,2.1-2.6,3.1
			c-0.1,0.1-0.8,0.9-0.8,0.8c-0.2-0.2-0.5-0.4-0.7-0.6c0,0-0.2-0.1-0.2-0.2c0.2-0.2,0.3-0.3,0.5-0.5c0.4-0.4,0.7-0.8,1-1.2
			c-0.9-0.8-1.8-1.5-2.7-2.3c0,0-1.9,2.1-2.2,2.3c-1,0.9-2,2-3.1,2.8c0.7,0.8,1.4,1.7,2.1,2.5c0.1,0.1,0.1,0.3,0.2,0.1
			c0.5-0.4,0.9-0.8,1.3-1.2c0,0,0.3-0.3,0.3-0.3c0.1,0.1,0.1,0.2,0.2,0.2c0.2,0.2,0.4,0.4,0.6,0.6c-1.5,1.3-2.9,2.5-4.5,3.6
			c-0.2-0.2-0.3-0.4-0.5-0.6c-0.1-0.1-0.1-0.2-0.2-0.3c0,0,0.2-0.2,0.2-0.2c0.5-0.3,1-0.7,1.4-1.1c0.2-0.1,0.1-0.1,0-0.3
			c-0.7-0.9-1.3-1.7-2-2.6c-1,0.8-1.9,1.5-3,2.1c-1,0.7-2,1.3-3.1,1.9c0.5,1,1,1.9,1.5,2.9c0.1,0.1,0.1,0.3,0.2,0.2
			c0.5-0.3,1.1-0.6,1.6-0.9c0,0,0.3-0.2,0.3-0.1c0.1,0.1,0.1,0.2,0.2,0.3c0.1,0.2,0.3,0.5,0.4,0.7c-1.7,1-3.4,1.9-5.1,2.7
			c-0.1-0.2-0.2-0.5-0.3-0.7c-0.1-0.1-0.1-0.2-0.2-0.3c0-0.1,0.2-0.1,0.2-0.1c0.5-0.2,1.1-0.5,1.6-0.8c0.3-0.1,0.2-0.1,0.1-0.3
			c-0.5-1-1-2-1.5-2.9c-2.1,1.1-4.4,2.1-6.8,2.7c0.3,1,0.6,2.1,0.9,3.1c0,0.1,0,0.3,0.2,0.2c0.6-0.2,1.2-0.4,1.8-0.6
			c0,0,0.3-0.1,0.3-0.1c0,0.1,0.1,0.2,0.1,0.3c0.1,0.3,0.2,0.5,0.3,0.8c-1.8,0.6-3.7,1.2-5.6,1.6c-0.1-0.3-0.1-0.5-0.2-0.8
			c0-0.1-0.1-0.2-0.1-0.4c0,0,0.3-0.1,0.3-0.1c0.6-0.1,1.2-0.3,1.7-0.4c0.2-0.1,0.1-0.1,0.1-0.3c-0.3-1-0.6-2.1-0.9-3.1
			c-1.2,0.3-2.4,0.6-3.6,0.8c-1.2,0.2-2.4,0.4-3.6,0.5c0.1,1.1,0.2,2.2,0.3,3.2c0,0.1,0,0.3,0.1,0.3c0.6,0,1.2-0.1,1.7-0.2
			c0,0,0.4-0.1,0.4,0c0,0.1,0,0.2,0,0.3c0,0.3,0.1,0.6,0.1,0.8c-1.9,0.2-3.8,0.4-5.8,0.5c0-0.3,0-0.5,0-0.8c0-0.1,0-0.2,0-0.4
			c0,0,0.3,0,0.3,0c0.6,0,1.2,0,1.8-0.1c0.2,0,0.2,0,0.2-0.3c-0.1-1.1-0.2-2.2-0.2-3.3c-2.4,0.2-4.8,0.1-7.3-0.1
			c0,0-0.3,3.2-0.3,3.5c0.2,0,2.3,0.1,2.3,0.2c0,0.1,0,1.2-0.1,1.2c-1,0-2-0.1-3-0.2c-0.9-0.1-1.8-0.2-2.7-0.4c0,0,0.2-1,0.2-1.2
			c0.7,0.1,1.5,0.2,2.2,0.3c0.1-0.7,0.2-1.4,0.3-2.1c0-0.4,0.1-0.8,0.1-1.2c0-0.1,0-0.1,0-0.2c0,0-0.6-0.1-0.6-0.1
			c-1.8-0.2-3.6-0.6-5.3-1.1c-0.3-0.1-0.7-0.2-1-0.3c-0.1,0-0.1-0.1-0.2,0c-0.1,0.3-0.2,0.6-0.3,1c-0.2,0.8-0.5,1.6-0.7,2.4
			c0.7,0.2,1.4,0.4,2.2,0.6c0,0.1-0.3,1.1-0.3,1.1c-0.9-0.2-1.8-0.5-2.7-0.8c-1-0.3-1.9-0.6-2.8-1c0,0,0.4-1,0.4-1.1
			c0.7,0.3,1.4,0.5,2.1,0.8c0.2-0.7,0.4-1.3,0.7-2c0.1-0.4,0.3-0.8,0.4-1.1c0-0.1,0-0.1,0.1-0.2c0,0-0.5-0.2-0.6-0.2
			c-1.7-0.6-3.4-1.3-5-2.1c-0.3-0.2-0.6-0.3-1-0.5c-0.1,0-0.1-0.1-0.2,0c-0.2,0.3-0.3,0.6-0.5,0.9c-0.4,0.7-0.8,1.5-1.2,2.2
			c0.7,0.3,1.3,0.7,2,1c-0.1,0.1-0.5,1.1-0.5,1c-0.9-0.4-1.8-0.9-2.7-1.4c-0.8-0.5-1.6-0.9-2.4-1.4c0,0,0.6-0.9,0.6-1
			c0.6,0.4,1.3,0.8,1.9,1.2c0.3-0.6,0.7-1.2,1-1.8c0.2-0.3,0.4-0.7,0.6-1c0-0.1,0.1-0.1,0.1-0.2c0,0-0.5-0.3-0.5-0.3
			c-1.5-0.9-3.1-1.9-4.5-3c-0.1-0.1-1-0.9-1.1-0.8c-0.2,0.2-0.4,0.5-0.6,0.7c-0.5,0.6-1.1,1.3-1.6,1.9c0.6,0.5,1.2,1,1.8,1.4
			c-0.2,0.2-0.3,0.4-0.5,0.7c-0.1,0.1-0.1,0.2-0.2,0.3c0,0-0.4-0.3-0.5-0.3c-1.1-0.8-2.1-1.7-3.1-2.6c-0.1-0.1-0.9-0.8-0.8-0.8
			c0.2-0.2,0.4-0.5,0.6-0.7c0,0,0.1-0.2,0.2-0.2c0.2,0.2,0.3,0.3,0.5,0.5c0.4,0.4,0.8,0.7,1.2,1c0.8-0.9,1.5-1.8,2.3-2.7
			c0,0-2.1-1.9-2.3-2.2c-0.9-1-2-2-2.8-3.1c-0.8,0.7-1.7,1.4-2.5,2.1c-0.1,0.1-0.3,0.1-0.1,0.2c0.4,0.5,0.8,0.9,1.2,1.3
			c0,0,0.3,0.3,0.3,0.3c-0.1,0.1-0.2,0.1-0.2,0.2c-0.2,0.2-0.4,0.4-0.6,0.6c-1.3-1.5-2.5-2.9-3.6-4.5c0.2-0.2,0.4-0.3,0.6-0.5
			c0.1-0.1,0.2-0.1,0.3-0.2c0,0,0.2,0.2,0.2,0.2c0.3,0.5,0.7,1,1.1,1.4c0.1,0.2,0.1,0.1,0.3,0c0.9-0.7,1.7-1.3,2.6-2
			c-0.8-1-1.5-1.9-2.1-3c-0.7-1-1.3-2-1.9-3.1c-1,0.5-1.9,1-2.9,1.5c-0.1,0.1-0.3,0.1-0.2,0.2c0.3,0.5,0.6,1.1,0.9,1.6
			c0,0,0.2,0.3,0.1,0.3c-0.1,0.1-0.2,0.1-0.3,0.2c-0.2,0.1-0.5,0.3-0.7,0.4c-1-1.7-1.9-3.4-2.7-5.1c0.2-0.1,0.5-0.2,0.7-0.3
			c0.1,0,0.2-0.1,0.3-0.1c0,0,0.1,0.2,0.1,0.3c0.2,0.5,0.5,1.1,0.8,1.6c0.1,0.2,0.1,0.1,0.3,0c1-0.5,1.9-1,2.9-1.5
			c-1.1-2.2-2.1-4.4-2.7-6.8c-1,0.3-2.1,0.6-3.1,0.9c-0.1,0-0.3,0-0.2,0.2c0.2,0.6,0.4,1.1,0.6,1.7c0,0,0.1,0.4,0.1,0.4
			c-0.1,0-0.2,0.1-0.3,0.1c-0.3,0.1-0.5,0.2-0.8,0.3c-0.6-1.8-1.2-3.7-1.6-5.6c0.3-0.1,0.5-0.1,0.8-0.2c0.1,0,0.2-0.1,0.4-0.1
			c0,0,0.1,0.3,0.1,0.3c0.1,0.6,0.3,1.2,0.4,1.7c0.1,0.2,0.1,0.1,0.3,0.1c1-0.3,2.1-0.6,3.1-0.9c-0.3-1.2-0.6-2.4-0.8-3.6
			c-0.2-1.2-0.4-2.4-0.5-3.6c-1.1,0.1-2.2,0.2-3.2,0.3c-0.1,0-0.3,0-0.3,0.1c0,0.6,0.1,1.2,0.2,1.8c0,0,0.1,0.4,0,0.4
			c-0.1,0-0.2,0-0.3,0c-0.3,0-0.6,0.1-0.8,0.1C82.2,61.9,82,60,81.9,58c0.3,0,0.5,0,0.8,0c0.1,0,0.2,0,0.4,0c0,0,0,0.3,0,0.3
			c0,0.6,0,1.2,0.1,1.8c0,0.2,0,0.2,0.3,0.1c1.1-0.1,2.2-0.2,3.3-0.2c-0.2-2.4-0.1-4.8,0.1-7.3c0,0-3.2-0.3-3.5-0.3
			c0,0.2-0.1,2.3-0.2,2.3c-0.1,0-1.2,0-1.2-0.1c0-1,0.1-2,0.2-3c0.1-0.9,0.2-1.8,0.4-2.7c0,0,1,0.2,1.2,0.2
			c-0.1,0.7-0.2,1.5-0.3,2.2c0.7,0.1,1.4,0.2,2.1,0.3c0.4,0,0.8,0.1,1.2,0.1c0.1,0,0.1,0,0.2,0c0,0,0.1-0.6,0.1-0.6
			c0.2-1.8,0.6-3.6,1.1-5.3c0.1-0.3,0.2-0.7,0.3-1c0-0.1,0.1-0.1,0-0.2c-0.3-0.1-0.6-0.2-1-0.3c-0.8-0.2-1.6-0.5-2.4-0.7
			c-0.2,0.7-0.4,1.4-0.6,2.2c-0.1,0-1.1-0.3-1.1-0.3c0.2-0.9,0.5-1.8,0.8-2.7c0.3-1,0.6-1.9,1-2.8c0,0,1,0.4,1.1,0.4
			c-0.3,0.7-0.5,1.4-0.8,2.1c0.7,0.2,1.3,0.4,2,0.7c0.4,0.1,0.8,0.3,1.1,0.4c0.1,0,0.1,0,0.2,0.1c0,0,0.2-0.5,0.2-0.6
			c0.6-1.7,1.3-3.4,2.1-5c0.2-0.3,0.3-0.6,0.5-1c0-0.1,0.1-0.1,0-0.2c-0.3-0.2-0.6-0.3-0.9-0.5c-0.7-0.4-1.5-0.8-2.2-1.2
			c-0.3,0.7-0.7,1.3-1,2c-0.1-0.1-1.1-0.5-1-0.5c0.4-0.9,0.9-1.8,1.4-2.7c0.5-0.8,0.9-1.6,1.4-2.4c0,0,0.9,0.6,1,0.6
			c-0.4,0.6-0.8,1.3-1.2,1.9c0.6,0.3,1.2,0.7,1.8,1c0.3,0.2,0.7,0.4,1,0.6c0.1,0,0.1,0.1,0.2,0.1c0,0,0.3-0.5,0.3-0.5
			c0.9-1.5,1.9-3.1,3-4.5c0.1-0.1,0.9-1,0.8-1.1c-0.2-0.2-0.5-0.4-0.7-0.6c-0.6-0.5-1.3-1.1-1.9-1.6c-0.5,0.6-1,1.2-1.4,1.8
			c-0.2-0.2-0.4-0.3-0.6-0.5c-0.1-0.1-0.2-0.1-0.3-0.2c0,0,0.3-0.4,0.3-0.5c0.8-1.1,1.7-2.1,2.6-3.1c0.1-0.1,0.8-0.9,0.8-0.8
			c0.2,0.2,0.5,0.4,0.7,0.6c0,0,0.2,0.1,0.2,0.2c-0.2,0.2-0.3,0.3-0.5,0.5c-0.4,0.4-0.7,0.8-1,1.2c0.9,0.8,1.8,1.5,2.7,2.3
			c0,0,1.9-2.1,2.2-2.3c1-0.9,2-2,3.1-2.8c-0.7-0.8-1.4-1.7-2.1-2.5c-0.1-0.1-0.1-0.3-0.2-0.1c-0.5,0.4-0.9,0.8-1.3,1.2
			c0,0-0.3,0.3-0.3,0.3c-0.1-0.1-0.1-0.2-0.2-0.2c-0.2-0.2-0.4-0.4-0.6-0.6c1.5-1.3,2.9-2.5,4.5-3.6c0.2,0.2,0.3,0.4,0.5,0.6
			c0.1,0.1,0.1,0.2,0.2,0.3c0,0-0.2,0.2-0.2,0.2c-0.5,0.3-1,0.7-1.4,1.1c-0.2,0.1-0.1,0.1,0,0.3c0.7,0.9,1.3,1.7,2,2.6
			c1-0.8,1.9-1.5,3-2.1c1-0.7,2-1.3,3.1-1.9c-0.5-1-1-1.9-1.5-2.9c-0.1-0.1-0.1-0.3-0.2-0.2c-0.5,0.3-1.1,0.6-1.6,0.9
			c0,0-0.3,0.2-0.3,0.1c-0.1-0.1-0.1-0.2-0.2-0.3c-0.1-0.2-0.3-0.5-0.4-0.7c1.7-1,3.4-1.9,5.1-2.7c0.1,0.2,0.2,0.5,0.3,0.7
			c0,0.1,0.1,0.2,0.1,0.3c0,0-0.2,0.1-0.3,0.1c-0.5,0.2-1.1,0.5-1.6,0.8c-0.2,0.1-0.1,0.1,0,0.3c0.5,1,1,1.9,1.5,2.9
			c2.2-1.1,4.4-2.1,6.8-2.7c-0.3-1-0.6-2.1-0.9-3.1c0-0.1,0-0.3-0.2-0.2c-0.6,0.2-1.1,0.4-1.7,0.6c0,0-0.4,0.1-0.4,0.1
			c0-0.1-0.1-0.2-0.1-0.3c-0.1-0.3-0.2-0.5-0.3-0.8c1.8-0.6,3.7-1.2,5.6-1.6c0.1,0.3,0.1,0.5,0.2,0.8c0,0.1,0.1,0.2,0.1,0.4
			c0,0-0.3,0.1-0.3,0.1c-0.6,0.1-1.2,0.3-1.7,0.4c-0.2,0.1-0.1,0.1-0.1,0.3c0.3,1,0.6,2.1,0.9,3.1c1.2-0.3,2.4-0.6,3.6-0.8
			c1.2-0.2,2.4-0.4,3.6-0.5c-0.1-1.1-0.2-2.2-0.3-3.2c0-0.1,0-0.3-0.1-0.3c-0.6,0-1.2,0.1-1.8,0.2c0,0-0.4,0.1-0.4,0
			c0-0.1,0-0.2,0-0.3c0-0.3-0.1-0.6-0.1-0.8c1.9-0.2,3.8-0.4,5.8-0.5c0,0.3,0,0.5,0,0.8c0,0.1,0,0.2,0,0.4c0,0-0.3,0-0.3,0
			c-0.6,0-1.2,0-1.8,0.1c-0.2,0-0.2,0-0.1,0.3c0.1,1.1,0.2,2.2,0.2,3.3c2.4-0.2,4.8-0.1,7.3,0.1c0,0,0.3-3.2,0.3-3.5
			c-0.2,0-2.3-0.1-2.3-0.2c0-0.1,0-1.2,0.1-1.2c1,0,2,0.1,3,0.2c0.9,0.1,1.8,0.2,2.7,0.4c0,0-0.2,1-0.2,1.2
			c-0.7-0.1-1.5-0.2-2.2-0.3c-0.1,0.7-0.2,1.4-0.3,2.1c0,0.4-0.1,0.8-0.1,1.2c0,0.1,0,0.1,0,0.2c0,0,0.6,0.1,0.6,0.1
			c1.8,0.2,3.6,0.6,5.3,1.1c0.3,0.1,0.7,0.2,1,0.3c0.1,0,0.1,0.1,0.2,0c0.1-0.3,0.2-0.6,0.3-1c0.2-0.8,0.5-1.6,0.7-2.4
			c-0.7-0.2-1.4-0.4-2.2-0.6c0-0.1,0.3-1.1,0.3-1.1c0.9,0.2,1.8,0.5,2.7,0.8c1,0.3,1.9,0.6,2.8,1c0,0-0.4,1-0.4,1.1
			c-0.7-0.3-1.4-0.5-2.1-0.8c-0.2,0.7-0.4,1.3-0.7,2c-0.1,0.4-0.3,0.8-0.4,1.1c0,0.1,0,0.1-0.1,0.2c0,0,0.5,0.2,0.6,0.2
			c1.7,0.6,3.4,1.3,5,2.1c0.3,0.2,0.6,0.3,1,0.5c0.1,0,0.1,0.1,0.2,0c0.2-0.3,0.3-0.6,0.5-0.9c0.4-0.7,0.8-1.5,1.2-2.2
			c-0.7-0.3-1.3-0.7-2-1c0.1-0.1,0.5-1.1,0.5-1c0.9,0.4,1.8,0.9,2.7,1.4c0.8,0.5,1.6,0.9,2.4,1.4c0,0-0.6,0.9-0.6,1
			c-0.6-0.4-1.3-0.8-1.9-1.2c-0.3,0.6-0.7,1.2-1,1.8c-0.2,0.3-0.4,0.7-0.6,1c0,0.1-0.1,0.1-0.1,0.2c0,0,0.5,0.3,0.5,0.3
			c1.5,0.9,3.1,1.9,4.5,3c0.1,0.1,1,0.9,1.1,0.8c0.2-0.2,0.4-0.5,0.6-0.7c0.5-0.6,1.1-1.3,1.6-1.9c-0.6-0.5-1.2-1-1.8-1.4
			c0.2-0.2,0.3-0.4,0.5-0.6c0.1-0.1,0.1-0.2,0.2-0.3c0,0,0.4,0.3,0.5,0.3c1.1,0.8,2.1,1.7,3.1,2.6c0.1,0.1,0.9,0.8,0.8,0.8
			c-0.2,0.2-0.4,0.5-0.6,0.7c0,0-0.1,0.2-0.2,0.2c-0.2-0.2-0.3-0.3-0.5-0.5c-0.4-0.4-0.8-0.7-1.2-1c-0.8,0.9-1.5,1.8-2.3,2.7
			c0,0,2.1,1.9,2.3,2.2c0.9,1,2,2,2.8,3.1c0.8-0.7,1.7-1.4,2.5-2.1c0.1-0.1,0.3-0.1,0.1-0.2c-0.4-0.5-0.8-0.9-1.2-1.3
			c0,0-0.3-0.3-0.3-0.3c0.1-0.1,0.2-0.1,0.2-0.2c0.2-0.2,0.4-0.4,0.6-0.6c1.3,1.5,2.5,2.9,3.6,4.5c-0.2,0.2-0.4,0.3-0.6,0.5
			c-0.1,0.1-0.2,0.1-0.3,0.2c0,0-0.2-0.2-0.2-0.2c-0.3-0.5-0.7-1-1.1-1.4c-0.1-0.2-0.1-0.1-0.3,0c-0.9,0.7-1.7,1.3-2.6,2
			c0.8,1,1.5,1.9,2.1,3c0.7,1,1.3,2,1.9,3.1c1-0.5,1.9-1,2.9-1.5c0.1-0.1,0.3-0.1,0.2-0.2c-0.3-0.5-0.6-1.1-0.9-1.6
			c0,0-0.2-0.3-0.1-0.3c0.1-0.1,0.2-0.1,0.3-0.2c0.2-0.1,0.5-0.3,0.7-0.4c1,1.7,1.9,3.4,2.7,5.1c-0.2,0.1-0.5,0.2-0.7,0.3
			c-0.1,0.1-0.2,0.1-0.3,0.2c-0.1,0-0.1-0.2-0.1-0.2c-0.2-0.5-0.5-1.1-0.8-1.6c-0.1-0.3-0.1-0.2-0.3-0.1c-1,0.5-2,1-2.9,1.5
			c1.1,2.1,2.1,4.4,2.7,6.8c1-0.3,2.1-0.6,3.1-0.9c0.1,0,0.3,0,0.2-0.2c-0.2-0.6-0.4-1.2-0.6-1.8c0,0-0.1-0.3-0.1-0.3
			c0.1,0,0.2-0.1,0.3-0.1c0.3-0.1,0.5-0.2,0.8-0.3c0.6,1.8,1.2,3.7,1.6,5.6c-0.3,0.1-0.5,0.1-0.8,0.2c-0.1,0-0.2,0.1-0.4,0.1
			c0,0-0.1-0.3-0.1-0.3c-0.1-0.6-0.3-1.2-0.4-1.7c-0.1-0.2-0.1-0.1-0.3-0.1c-1,0.3-2.1,0.6-3.1,0.9c0.3,1.2,0.6,2.4,0.8,3.6
			c0.2,1.2,0.4,2.4,0.5,3.6c1.1-0.1,2.2-0.2,3.2-0.3c0.1,0,0.3,0,0.3-0.1c0-0.6-0.1-1.2-0.2-1.8c0,0-0.1-0.4,0-0.4
			c0.1,0,0.2,0,0.3,0c0.3,0,0.6-0.1,0.8-0.1c0.2,1.9,0.4,3.8,0.5,5.8c-0.3,0-0.5,0-0.8,0c-0.1,0-0.2,0-0.4,0c0,0,0-0.3,0-0.3
			c0-0.6,0-1.2-0.1-1.8c0-0.2,0-0.2-0.3-0.1c-1.1,0.1-2.2,0.2-3.3,0.2C171.4,53.9,171.5,54.1,171.5,54.2
			C171.5,54.4,171.5,53.9,171.5,54.2z"/>
	</g>
	<g>
		<path class="st0" d="M91.2,71.4c-1.5-4.2-2.6-9.7-2.6-14.4c0-19.1,15.1-35.5,32.9-39.7l-2.9-9.9c-21.9,5.5-40.4,26-39.8,49.7
			c0.1,5.6,1.3,12.4,3,17.5L91.2,71.4z"/>
	</g>
	<g>
		<path class="st1" d="M81.3,75.4L81,74.6c-1.7-5.1-2.9-12.1-3.1-17.7c-0.6-22.9,16.8-44.6,40.4-50.5l0.8-0.2l3.4,11.6l-0.9,0.2
			c-18.4,4.4-32.2,21.1-32.2,38.9c0,4.3,1,9.7,2.5,14.2l0.3,0.8L81.3,75.4z M118,8.3c-22.5,6-38.9,26.8-38.3,48.6
			c0.1,5.2,1.2,11.5,2.7,16.4l7.7-2.5c-1.5-4.5-2.3-9.7-2.3-13.9c0-18.3,14-35.5,32.7-40.4L118,8.3z"/>
	</g>
	<g>
		<path class="st0" d="M137.7,17.3c18,4.1,31.8,20.4,31.8,39.6c0,4.8-0.8,9.3-2.3,13.6c2.3,1,6.6,2.7,9.1,3.7c2-5.4,3-11.2,3-17.3
			c0.3-23.9-17.1-43.7-38.9-49.2C139.5,10.3,138.7,14.6,137.7,17.3z"/>
	</g>
	<g>
		<path class="st1" d="M176.8,75.3L176,75c-2.4-1-6.8-2.7-9.1-3.7l-0.7-0.3l0.3-0.8c1.5-4.3,2.3-8.7,2.3-13.3
			c0-18.3-13.1-34.6-31.2-38.8l-0.9-0.2l0.3-0.9c0.5-1.3,0.9-3.1,1.3-4.7c0.5-1.8,0.9-3.5,1.4-4.8l0.3-0.7l0.7,0.2
			c23.2,5.9,39.8,26.9,39.6,50c-0.1,6.2-1.1,12.1-3.1,17.5L176.8,75.3z M168.3,70c2.1,0.9,5.3,2.2,7.5,3c1.7-5,2.6-10.4,2.7-16.1
			C178.8,34.8,163,14.7,141,8.8c-0.4,1.2-0.7,2.6-1.1,4c-0.4,1.4-0.7,2.8-1.1,4c18.4,4.6,31.6,21.4,31.6,40.2
			C170.4,61.4,169.7,65.8,168.3,70z"/>
	</g>
	<g>
		<path class="st0" d="M144.4,94.4c-4.7,1.9-9.9,3-15.3,3c-4.9,0-9.6-0.9-14-2.5l-3.4,9.2c5.4,2,11.2,3.1,17.3,3.1
			c6.9,0,13.4-1.4,19.4-3.9C147.5,101.3,145.7,97.2,144.4,94.4z"/>
	</g>
	<g>
		<path class="st1" d="M129.1,108.1c-6.1,0-12-1.1-17.6-3.1l-0.8-0.3l4-10.8l0.8,0.3c4.4,1.6,9,2.4,13.7,2.4c5.2,0,10.2-1,15-3
			l0.8-0.3l0.3,0.8c1.3,2.8,3.1,6.9,4,8.9l0.4,0.8l-0.8,0.3C142.5,106.7,135.9,108.1,129.1,108.1z M112.8,103.6
			c5.2,1.8,10.7,2.7,16.2,2.7c6.3,0,12.4-1.2,18.2-3.5c-0.9-2-2.2-5-3.3-7.4c-4.8,1.8-9.8,2.8-14.9,2.8c-4.6,0-9.1-0.8-13.5-2.2
			L112.8,103.6z"/>
	</g>
	<g>
		<g>
			<g>
				<polygon class="st1" points="120.7,100.5 121.7,99.4 116.7,98.2 116,101.2 119.5,102 118.7,103 115.5,102.2 115.8,103.6 
					119.2,104.4 121.1,102.1 121.3,101.1 117.5,100.2 117.6,99.7 				"/>
			</g>
			<g>
				<polygon class="st1" points="122.7,105.1 124.1,105.2 125.9,102.1 127.2,105.4 128.6,105.5 126.1,99.4 				"/>
			</g>
			<g>
				<polygon class="st1" points="136.1,99.4 131,99.9 131.4,104.5 129.7,105.5 134.5,105.1 132.7,104.4 132.5,102.9 135.1,102.6 
					135.6,101.3 132.4,101.6 132.4,101.1 135.5,100.8 				"/>
			</g>
			<g>
				<polygon class="st1" points="139.9,102.8 140.2,101.2 139.2,100 142.1,99.3 142.4,97.9 137.4,99.1 137.7,100.1 138.9,101.6 
					138.5,103.5 138.8,104.5 143.1,103.4 143.4,102 				"/>
			</g>
		</g>
		<g>
			<path class="st1" d="M86.4,67.2l-0.9,0.2L85,65.5l1.4-1.1l0.2-0.3l0.2,0l-0.3-1.3l-1,0.2l0.1,0.4l-1.3,1l-1.3-0.3l-1.9,1.5
				l0.8,3.8l4.6-1l1.2,1.5l-1-4.7L86.4,67.2z M83,67.9L82.7,66l0.8-0.6l0.3,0.1l0.5,2.1L83,67.9z"/>
		</g>
		<g>
			<polygon class="st1" points="83.4,60.5 85.2,61.3 86.2,61.2 86,56.7 84.7,56.1 84.9,59.8 83.4,59.1 81.9,59.9 81.8,56.9 
				80.4,56.3 80.7,61.5 81.7,61.4 			"/>
		</g>
		<g>
			<polygon class="st1" points="84.1,50.6 85.2,51.3 84.8,54.7 86.2,54.2 86.6,50.7 84,49.1 83,49 82.5,52.9 82,52.9 82.4,49.7 
				81.1,48.9 80.6,54 83.7,54.4 			"/>
		</g>
		<g>
			<path class="st1" d="M85.2,45.4l0.8-2.8l-1.3-1.2L83,41.7l-1.1,4.1l4.5,1.3l0.4,1.9l1.3-4.6l-1.3,1.4L85.2,45.4z M83.4,44.9
				l0.6-2.1l0.3-0.1l0.2,0.2L84,45L83.4,44.9z"/>
		</g>
		<g>
			<polygon class="st1" points="88.6,39.1 87.6,37.8 85.9,37.8 87.2,35.1 86.3,34 84.1,38.7 85.1,39.1 87,39.1 88.2,40.6 89.2,41 
				91.1,36.9 90.2,35.8 			"/>
		</g>
		<g>
			<polygon class="st1" points="91.8,33.2 90.2,33 89.4,31.6 91.1,28.9 90,28.2 87.9,31.4 89.4,34.2 92.5,34.5 94.7,31.3 93.6,30.5 
							"/>
		</g>
		<g>
			<polygon class="st1" points="94.6,24.8 95.9,23.5 94.9,22.6 91.6,26.3 92.5,27.1 93.8,25.8 96.3,28.1 95.8,29.9 99,26.4 
				97.2,27.1 			"/>
		</g>
		<g>
			<polygon class="st1" points="100.2,22.2 102.2,20.5 101.9,19.1 99.4,21.1 99,20.7 101.5,18.7 101.2,17.3 97.2,20.5 100.1,24.2 
				99.3,26 103.1,23 101.2,23.4 			"/>
		</g>
		<g>
			<polygon class="st1" points="113,12.3 114.4,10.9 109.9,12.5 111.8,12.7 113.4,17.2 117.1,15.9 117.2,14.4 114.2,15.5 			"/>
		</g>
		<g>
			<path class="st1" d="M147.1,12.2l-3.7-1.3l-1.6,4.4l-1.9,0.2l4.5,1.6l-1.3-1.4l0.3-0.9l1.8,0.6l0.2,1.8l0.2,0.4l-0.1,0.2l1.2,0.4
				l0.3-0.9l-0.4-0.1l-0.2-1.7l1-0.9L147.1,12.2z M146.1,14.1l-0.2,0.2l-2.1-0.7l0.4-1.1l1.8,0.6L146.1,14.1z"/>
		</g>
		<g>
			<polygon class="st1" points="151.1,17.2 151.2,15.5 153.8,17 155,16.1 150.5,13.6 150,14.5 149.9,16.5 148.3,17.6 147.8,18.5 
				151.7,20.7 152.9,19.9 149.7,18.1 			"/>
		</g>
		<g>
			<polygon class="st1" points="159.5,21.8 156.4,19.4 156.7,18.9 159.3,20.9 160.6,20.3 156.4,17.1 154.5,19.6 157.5,21.9 
				156.4,22.5 153.7,20.4 153.4,21.8 156.2,23.9 158.9,22.6 			"/>
		</g>
		<g>
			<path class="st1" d="M163.2,27.3l1.7-0.5l0.6-1.7l-2.9-3l-3.4,3.3l-1.8-0.6l3.3,3.4l-0.6-1.8l1.1-1.1L163.2,27.3z M162.5,23.9
				l1.5,1.6l-0.1,0.3l-0.3,0.1l-1.5-1.6L162.5,23.9z"/>
		</g>
		<g>
			<path class="st1" d="M169.5,30.4l-1.8-2.6l-3.1,0.5l-1.5,2.8l1.8,2.6l3.1-0.5L169.5,30.4z M168,30.5l-0.8,1.5l-1.6,0.3l-1-1.4
				l0.8-1.5l1.6-0.3L168,30.5z"/>
		</g>
		<g>
			<polygon class="st1" points="174.3,45.6 173.1,41.8 173.6,41.6 174.6,44.7 176,44.9 174.4,40 171.4,41 172.6,44.5 171.3,44.4 
				170.3,41.1 169.2,42.1 170.3,45.5 173.3,45.9 			"/>
		</g>
		<g>
			<polygon class="st1" points="171.9,48.3 170.7,46.8 171.5,50.9 172.1,49.6 175.9,48.9 177.1,50.4 176.2,45.7 175.6,47.6 			"/>
		</g>
		<g>
			<path class="st1" d="M171.9,56.2l2.9,1.2l0.9-0.5l-0.1-0.8l1-0.1l0.8-0.5l-0.3-3.9l-5.6,0.4L171.9,56.2z M175.5,53.1l0.5,0
				l0.1,1.7l-0.5,0L175.5,53.1z M174.4,55.9l-1.2-0.5l-0.2-2.2l1.1-0.1L174.4,55.9z"/>
		</g>
		<g>
			<polygon class="st1" points="176.6,59.2 171.9,58.8 171.6,62.8 172.8,63.5 173.1,60.2 176.5,60.5 177.2,62.3 177.6,57.5 			"/>
		</g>
		<g>
			<polygon class="st1" points="173.9,65.7 172.4,64.5 171.4,64.3 170.4,68.7 171.5,69.6 172.3,66.1 173.6,67.1 175.2,66.7 
				174.6,69.6 175.7,70.6 176.8,65.5 175.8,65.3 			"/>
		</g>
		<g>
			<polygon class="st1" points="172.4,35.6 172.1,36.8 172.1,36.8 172.1,36.9 170,37.9 172.1,35 171.9,34.5 171.8,34.3 171.5,33.7 
				167.3,35.9 165.7,34.7 167.6,38.3 167.9,37 169.7,36.1 169.9,36 167.9,38.7 167.9,38.7 167.8,38.8 167.9,39 167.9,39 168.1,39.4 
				168.2,39.6 168.5,40.1 172.7,38 174.2,39.2 			"/>
		</g>
		<g>
			<polygon class="st1" points="110.1,16.9 108.5,14.1 109.6,12.5 106.4,14.3 106.4,14.3 106.1,14.4 107.4,14.7 108.8,17.4 
				108.8,17.8 107.1,18.8 106.8,18.5 105.3,15.9 105.5,14.7 102.2,16.6 104.1,16.5 105.7,19.3 107.1,20.3 110.1,18.6 			"/>
		</g>
	</g>
	<g>
		<path class="st0" d="M129.1,108.1c-28.2,0-51.1-22.9-51.1-51.1c0-28.2,22.9-51.1,51.1-51.1c28.2,0,51.1,22.9,51.1,51.1
			C180.2,85.1,157.3,108.1,129.1,108.1z M129.1,7.5c-27.3,0-49.4,22.2-49.4,49.4s22.2,49.4,49.4,49.4c27.3,0,49.4-22.2,49.4-49.4
			S156.3,7.5,129.1,7.5z M129.1,98.3c-22.8,0-41.3-18.5-41.3-41.3s18.5-41.3,41.3-41.3c22.8,0,41.3,18.5,41.3,41.3
			S151.9,98.3,129.1,98.3z M129.1,17.3c-21.9,0-39.6,17.8-39.6,39.6c0,21.9,17.8,39.6,39.6,39.6c21.9,0,39.6-17.8,39.6-39.6
			C168.7,35.1,150.9,17.3,129.1,17.3z"/>
	</g>
	<g>
		<path class="st0" d="M129.1,7.7c27.1,0,49.2,22.1,49.2,49.2s-22.1,49.2-49.2,49.2S79.9,84.1,79.9,56.9S101.9,7.7,129.1,7.7
			 M129.1,98.5c22.9,0,41.6-18.6,41.6-41.6S152,15.4,129.1,15.4S87.5,34,87.5,56.9S106.2,98.5,129.1,98.5 M129.1,6.6
			c-27.8,0-50.3,22.5-50.3,50.3s22.5,50.3,50.3,50.3s50.3-22.5,50.3-50.3S156.9,6.6,129.1,6.6L129.1,6.6z M129.1,97.4
			c-22.4,0-40.5-18.1-40.5-40.5s18.1-40.5,40.5-40.5c22.4,0,40.5,18.1,40.5,40.5S151.4,97.4,129.1,97.4L129.1,97.4z"/>
	</g>
	<g>
		<polyline class="st1" points="170.6,72.6 174.6,74.2 174.1,75.6 170.2,74.4 169.9,73.9 		"/>
	</g>
	<g>
		<path class="st1" d="M153.3,97.3l-6.1,3.2c0,0-2.3-4.5-2.2-4.7c0.1-0.2,3.5-1.5,3.5-1.5l1.3,3.5L151,98"/>
	</g>
	<g>
		<path class="st1" d="M113.7,98.4c-0.1-0.1-1.7-0.5-1.7-0.5l-1,1.4c0,0-1.1,2.6-1,2.6c0.2,0,1.4,0.4,1.6,0.4c0.2,0,0.6,0.2,0.9,0
			c0.2-0.2,0.8-1.1,0.8-1.1"/>
	</g>
	<g>
		<path class="st1" d="M139.3,9.4l-0.7,3.7c0,0,0.6,0.4,0.8,0c0.2-0.4,1-2.9,1-2.9s0.3-0.9,0.1-0.9"/>
	</g>
</g>
</svg>
